STARTFONT 2.1
COMMENT
COMMENT Converted from OpenType font "bsk1.ttf" by "otf2bdf 3.0".
COMMENT
FONT -FreeType-Libre Baskerville-Medium-I-Normal--52-520-72-72-P-310-ISO10646-1
SIZE 52 72 72
FONTBOUNDINGBOX 96 64 -16 -14
STARTPROPERTIES 19
FOUNDRY "FreeType"
FAMILY_NAME "Libre Baskerville"
WEIGHT_NAME "Medium"
SLANT "I"
SETWIDTH_NAME "Normal"
ADD_STYLE_NAME ""
PIXEL_SIZE 52
POINT_SIZE 520
RESOLUTION_X 72
RESOLUTION_Y 72
SPACING "P"
AVERAGE_WIDTH 310
CHARSET_REGISTRY "ISO10646"
CHARSET_ENCODING "1"
FONT_ASCENT 50
FONT_DESCENT 14
COPYRIGHT "Copyright (c) 2012, Pablo Impallari (www.impallari.com|impallari@gmail.com), Copyright (c) 2012, Rodrigo Fuenzalida (www.rfuenzalida.com|hello@rfuenzalida.com), with Reserved Font Name Libre Baskerville."
_OTF_FONTFILE "bsk1.ttf"
_OTF_PSNAME "LibreBaskerville-Italic"
ENDPROPERTIES
CHARS 442
STARTCHAR 0020
ENCODING 32
SWIDTH 269 0
DWIDTH 14 0
BBX 0 0 0 0
BITMAP
ENDCHAR
STARTCHAR 0021
ENCODING 33
SWIDTH 307 0
DWIDTH 16 0
BBX 13 42 3 -1
BITMAP
0020
00F0
01F8
01F8
03F8
03F8
03F8
03F0
03F0
03F0
03E0
03E0
03E0
07C0
07C0
07C0
0780
0780
0700
0700
0700
0600
0E00
0E00
0E00
0C00
0C00
0C00
0C00
0C00
0000
0000
0000
0000
1000
7C00
FC00
FC00
FE00
FC00
7C00
1000
ENDCHAR
STARTCHAR 0022
ENCODING 34
SWIDTH 365 0
DWIDTH 19 0
BBX 14 14 8 29
BITMAP
1C1C
3C3C
7C7C
7C7C
7878
7878
7870
7070
70F0
E0E0
E0E0
E0C0
C0C0
C0C0
ENDCHAR
STARTCHAR 0023
ENCODING 35
SWIDTH 673 0
DWIDTH 35 0
BBX 31 40 3 0
BITMAP
001E03C0
001C0380
001C0380
001C0380
001C0380
001C0380
001C0380
003C0780
00380700
00380700
00380700
00380700
00380700
3FFFFFFE
3FFFFFFE
3FFFFFFC
00700E00
00700E00
00700E00
00700E00
00F01E00
00E01C00
00E01C00
00E01C00
FFFFFFF8
FFFFFFF8
FFFFFFF8
01C03800
01C03800
01C03800
01C03800
01C03800
01C03800
03C07800
03807000
03807000
03807000
03807000
03807000
07807000
ENDCHAR
STARTCHAR 0024
ENCODING 36
SWIDTH 576 0
DWIDTH 30 0
BBX 28 53 1 -8
BITMAP
00001C00
00001C00
00003800
00003800
00003800
0007FF00
001FFF80
003F77C0
007C71E0
00F070F0
01F070F0
01E0E0F0
03E0E0F0
03E0E1F0
03E0E1F0
03E1C3E0
03F1C7C0
03F9C000
03F9C000
01FF8000
01FF8000
00FF8000
007FC000
003FF000
001FF800
000FFC00
0007FE00
0007FE00
000EFF00
000E7F80
000E3F80
1E0E1F80
3F1C0F80
7C1C0F80
781C0F80
F81C0780
F8380F80
F8380F00
F8380F00
78381E00
78703C00
3C707800
1E71F000
0FFFE000
03FF8000
00F00000
00E00000
00E00000
01C00000
01C00000
01C00000
01C00000
03800000
ENDCHAR
STARTCHAR 0025
ENCODING 37
SWIDTH 692 0
DWIDTH 36 0
BBX 35 42 1 -1
BITMAP
0004000000
003F0000E0
00718001C0
00E1C00380
01C1C00700
01C1C00F00
0381C00E00
0381C01C00
0381C03800
0703807000
070380F000
070380E000
070701C000
0706038000
030E070000
039C0F0000
01F00E0000
00001C0000
0000380000
0000700000
0000F00000
0001E00000
0001C00000
0003800000
0007000000
000F00F000
001E039800
001C070C00
00380E0C00
00700C0E00
00F01C0E00
01E01C1E00
01C0381C00
0380381C00
0700381C00
0F00381800
1E00383800
3C00383000
3800387000
700018E000
F0000F8000
0000020000
ENDCHAR
STARTCHAR 0026
ENCODING 38
SWIDTH 903 0
DWIDTH 47 0
BBX 44 42 3 -1
BITMAP
000040000000
0007F8000000
001FFE003F00
003FFE007F80
007FFF00FFE0
007FFF00F8E0
00F80F00F870
00F007007070
00F003000070
00E002000070
00E0000000F0
00E0000001F0
00E0000007F0
0070007FFFE0
00F801FFFFE0
03FF07FFFFC0
0FFF8FFFFF00
1F7F8F07FC00
3C1F9C01E000
3C0F1C00F000
780018307000
780018787800
F800187C3800
F8001C7C3800
F8001E7C3800
F8000FF83800
F80007F03800
F80000803800
FC0000007800
FC0000007800
7E000000F000
7F000001F000
3F800003E000
3FC00007E000
1FF0000FC000
0FFC007F8000
07FFFFFF0000
03FFFFFE0000
01FFFFFC0000
007FFFF00000
001FFF800000
000060000000
ENDCHAR
STARTCHAR 0027
ENCODING 39
SWIDTH 211 0
DWIDTH 11 0
BBX 6 14 8 29
BITMAP
1C
3C
7C
7C
78
78
78
70
70
E0
E0
E0
C0
C0
ENDCHAR
STARTCHAR 0028
ENCODING 40
SWIDTH 346 0
DWIDTH 18 0
BBX 21 53 2 -10
BITMAP
000010
000038
000070
0001E0
0003C0
000780
000F00
001E00
001E00
003C00
007800
00F000
01F000
01E000
03C000
07C000
078000
0F8000
0F0000
1F0000
1E0000
3E0000
3E0000
7C0000
7C0000
7C0000
7C0000
F80000
F80000
F80000
F80000
F80000
F80000
F00000
F00000
F00000
F00000
F00000
F00000
F00000
F00000
780000
780000
780000
780000
380000
3C0000
1C0000
1E0000
0E0000
0F0000
070000
020000
ENDCHAR
STARTCHAR 0029
ENCODING 41
SWIDTH 326 0
DWIDTH 17 0
BBX 22 53 -6 -10
BITMAP
000180
000380
0001C0
0001C0
0001E0
0000E0
0000F0
0000F0
000078
000078
000078
000078
00007C
00003C
00003C
00003C
00003C
00003C
00007C
00007C
00007C
00007C
00007C
00007C
0000F8
0000F8
0000F8
0000F8
0001F0
0001F0
0001F0
0003E0
0003E0
0007C0
0007C0
000F80
000F80
001F00
001E00
003E00
003C00
007800
00F000
00E000
01E000
03C000
078000
0F0000
1E0000
3C0000
700000
E00000
400000
ENDCHAR
STARTCHAR 002A
ENCODING 42
SWIDTH 538 0
DWIDTH 28 0
BBX 22 21 6 19
BITMAP
000600
000F00
1E0F00
1F0F00
1F0F00
0F0E00
079C00
019838
00D87C
0073FC
7FFFFC
FFF838
FF3C00
F86E00
706700
00C7C0
01C3E0
03C3E0
03C1E0
03C080
038000
ENDCHAR
STARTCHAR 002B
ENCODING 43
SWIDTH 576 0
DWIDTH 30 0
BBX 24 24 3 5
BITMAP
001800
001800
001800
001800
001800
001800
001800
001800
001800
001800
FFFFFF
FFFFFF
FFFFFF
001800
001800
001800
001800
001800
001800
001800
001800
001800
001800
001800
ENDCHAR
STARTCHAR 002C
ENCODING 44
SWIDTH 269 0
DWIDTH 14 0
BBX 9 16 -2 -9
BITMAP
0E00
1F80
3F80
3F80
3F80
3F80
1F80
0300
0700
0600
0E00
1C00
3800
7000
E000
4000
ENDCHAR
STARTCHAR 002D
ENCODING 45
SWIDTH 461 0
DWIDTH 24 0
BBX 17 4 3 13
BITMAP
7FFF80
7FFF80
7FFF80
FFFF00
ENDCHAR
STARTCHAR 002E
ENCODING 46
SWIDTH 269 0
DWIDTH 14 0
BBX 7 8 0 -1
BITMAP
10
7C
FE
FE
FE
FE
7C
10
ENDCHAR
STARTCHAR 002F
ENCODING 47
SWIDTH 384 0
DWIDTH 20 0
BBX 26 40 -2 0
BITMAP
000003C0
00000380
00000700
00000700
00000E00
00000E00
00001C00
00003C00
00003800
00007800
00007000
0000F000
0000E000
0001C000
0001C000
00038000
00078000
00070000
000F0000
000E0000
001E0000
001C0000
003C0000
00380000
00780000
00F00000
00E00000
01E00000
01C00000
03C00000
03800000
07800000
07000000
0F000000
0E000000
1E000000
3C000000
38000000
78000000
F0000000
ENDCHAR
STARTCHAR 0030
ENCODING 48
SWIDTH 653 0
DWIDTH 34 0
BBX 29 42 4 -1
BITMAP
00002000
0003FE00
000FFF00
001F0F80
003E07C0
007C03E0
00F803E0
01F001F0
03F001F0
07E001F0
07C001F0
0FC001F8
1F8001F8
1F8001F8
1F8001F8
3F0003F8
3F0003F8
7F0003F0
7E0003F0
7E0003F0
FE0003F0
FE0007F0
FC0007E0
FC0007E0
FC0007E0
FC000FC0
FC000FC0
FC000F80
F8001F80
F8001F00
F8003F00
F8003E00
F8007E00
F8007C00
7C00F800
7C01F000
3C01E000
3E03C000
1F0F8000
0FFF0000
07FC0000
00400000
ENDCHAR
STARTCHAR 0031
ENCODING 49
SWIDTH 480 0
DWIDTH 25 0
BBX 22 41 0 0
BITMAP
00000C
00001C
00003C
000078
0001F8
0003F8
000FF8
03FFF0
03FFF0
03E3F0
0003F0
0003E0
0003E0
0007E0
0007E0
0007C0
0007C0
000FC0
000FC0
000F80
000F80
001F80
001F80
001F00
001F00
003F00
003F00
003E00
003E00
007E00
007E00
007C00
007C00
00FC00
00FC00
01FC00
01FE00
07FE00
FFFFF0
FFFFE0
FFFFE0
ENDCHAR
STARTCHAR 0032
ENCODING 50
SWIDTH 634 0
DWIDTH 33 0
BBX 30 41 1 0
BITMAP
00002000
0007FF00
001FFFC0
007E0FE0
00F803F0
01F003F8
01E001F8
03E001F8
03E001FC
07C000FC
07C001FC
07E001FC
07E001F8
07E001F8
03F801F8
03FE03F0
01FE03F0
00F807E0
000007E0
00000FC0
00001F80
00003F00
00007E00
00007E00
0000FC00
0001F800
0003E000
0007C000
001F8000
003F0000
007E0000
00F80000
01F00060
03E000C0
078001C0
1F0007C0
3FFFFF80
7FFFFF80
FFFFFF80
FFFFFF00
FFFFFF00
ENDCHAR
STARTCHAR 0033
ENCODING 51
SWIDTH 615 0
DWIDTH 32 0
BBX 28 42 1 -1
BITMAP
00002000
0007FF00
001FFF80
003E0FE0
007C03E0
00F803F0
00F003F0
01F001F0
01F001F0
01F001F0
01F001F0
00F803F0
00FE03F0
007C03E0
000007C0
000007C0
00000F80
00003F00
0000FC00
001FF000
007FF000
007FFC00
00007F00
00003F80
00001F80
00001FC0
00000FC0
0F800FC0
3FC00FC0
7F000FE0
7E000FC0
7C000FC0
FC000FC0
FC000F80
F8001F80
FC001F00
7C003E00
7E007C00
3F01F800
0FFFE000
07FF8000
00300000
ENDCHAR
STARTCHAR 0034
ENCODING 52
SWIDTH 576 0
DWIDTH 30 0
BBX 27 41 1 0
BITMAP
00000060
000001E0
000003C0
000007C0
00000FC0
00001FC0
00003F80
00007F80
0000FF80
0001EF80
0003DF00
00079F00
000F1F00
001E3E00
003C3E00
00783E00
00F03E00
01E07C00
07C07C00
0F807C00
1F007C00
3E00F800
7C00F800
FFFFFFE0
FFFFFFE0
FFFFFFE0
0001F000
0001F000
0003F000
0003E000
0003E000
0003E000
0007E000
0007C000
0007C000
0007C000
000FC000
000FC000
000F8000
000F8000
001F8000
ENDCHAR
STARTCHAR 0035
ENCODING 53
SWIDTH 615 0
DWIDTH 32 0
BBX 29 42 2 -1
BITMAP
00180038
001FFFF0
003FFFE0
003FFFE0
003FFF80
0071FE00
00700000
00700000
00E00000
00E00000
00E00000
01C00000
01C00000
01C00000
03800000
03860000
03FFF000
07FFFC00
07C0FE00
07003F00
06001F80
00000F80
00000FC0
00000FC0
00000FC0
000007E0
0C0007E0
3F0007E0
7F800FE0
7C000FE0
F8000FC0
F8000FC0
F8001FC0
F8001F80
F8003F00
F8003F00
F8007E00
7C00FC00
3F03F000
1FFFE000
07FF0000
00600000
ENDCHAR
STARTCHAR 0036
ENCODING 54
SWIDTH 634 0
DWIDTH 33 0
BBX 28 42 4 -1
BITMAP
00000800
0001FF80
0007FFE0
001FC3F0
003E01F0
007C01F0
00F801F0
01F001F0
03E000E0
07C00000
07C00000
0F800000
1F800000
1F000000
3F000000
3E020000
3E7FE000
7FFFF800
7FE0FC00
7F807E00
FF003F00
FE003F00
FE001F00
FC001F80
FC001F80
F8001F80
F8001F80
F8001F80
F8001F80
F8001F80
F8003F00
F8003F00
F8003F00
78007E00
78007E00
7C00FC00
3C00F800
1E03F000
1F07E000
07FFC000
03FF0000
00200000
ENDCHAR
STARTCHAR 0037
ENCODING 55
SWIDTH 519 0
DWIDTH 27 0
BBX 28 43 3 -1
BITMAP
01800000
01800000
03FFFFF0
03FFFFF0
07FFFFE0
07FFFFC0
07FFFFC0
0F800180
0E000380
1C000700
1C000E00
18000E00
38001C00
00003C00
00003800
00007000
0000F000
0001E000
0001E000
0003C000
0007C000
00078000
000F0000
001F0000
001E0000
003E0000
007C0000
00FC0000
00F80000
01F80000
03F00000
03F00000
07E00000
0FC00000
1FC00000
1F800000
3F800000
7F000000
7F000000
FE000000
FC000000
78000000
20000000
ENDCHAR
STARTCHAR 0038
ENCODING 56
SWIDTH 634 0
DWIDTH 33 0
BBX 29 42 2 -1
BITMAP
00002000
0007FF00
001FFF80
003E07E0
00F803F0
00F001F0
01F000F8
03E000F8
03E000F8
03E000F8
03E000F8
03E000F8
03F001F0
03F001F0
03F803E0
01FC07C0
01FF0F80
00FFBF00
007FF800
003FF000
003FFC00
00FFFE00
03E1FF00
0FC0FF00
1F003F80
3F001F80
3E001FC0
7C000FC0
7C000FC0
FC0007C0
FC0007C0
FC0007C0
F80007C0
FC000FC0
7C000F80
7C000F80
7E001F00
3E007E00
1F81FC00
0FFFF000
03FFC000
00180000
ENDCHAR
STARTCHAR 0039
ENCODING 57
SWIDTH 634 0
DWIDTH 33 0
BBX 29 42 2 -1
BITMAP
00002000
0007FE00
001FFF00
003F0780
007C03C0
00F801E0
01F801F0
03F000F0
03E000F0
07E000F8
07E000F8
0FC000F8
0FC000F8
0FC000F8
0FC000F8
0FC000F8
0FC001F8
0FC001F8
0FC001F8
07E003F8
07E007F8
03E007F8
03F01FF0
01FFFFF0
007FFBF0
001FC3E0
000007E0
000007C0
00000FC0
00000FC0
00001F80
00001F00
00003F00
38003E00
7C007C00
FC00F800
7C01F000
7C07E000
7E1FC000
3FFF0000
0FFC0000
00800000
ENDCHAR
STARTCHAR 003A
ENCODING 58
SWIDTH 307 0
DWIDTH 16 0
BBX 11 24 1 -1
BITMAP
03C0
07E0
0FE0
0FE0
0FE0
07E0
03C0
0000
0000
0000
0000
0000
0000
0000
0000
0000
1000
7C00
FE00
FE00
FE00
FE00
7C00
1000
ENDCHAR
STARTCHAR 003B
ENCODING 59
SWIDTH 307 0
DWIDTH 16 0
BBX 13 32 -1 -9
BITMAP
00F0
01F8
03F8
03F8
03F8
01F8
00F0
0000
0000
0000
0000
0000
0000
0000
0000
0000
0E00
1F00
3F80
3F80
3F80
3F80
1F80
0700
0700
0600
0E00
1C00
3800
7000
E000
4000
ENDCHAR
STARTCHAR 003C
ENCODING 60
SWIDTH 615 0
DWIDTH 32 0
BBX 24 27 3 4
BITMAP
000003
00000F
00003F
0000FC
0003F0
000FC0
003F00
00FC00
01F000
07C000
1F0000
7C0000
F00000
C00000
F00000
7C0000
3F0000
0FC000
03F000
00FC00
003F00
000FC0
0003F0
0000FC
00003F
00000F
000003
ENDCHAR
STARTCHAR 003D
ENCODING 61
SWIDTH 634 0
DWIDTH 33 0
BBX 27 12 4 13
BITMAP
1FFFFFE0
1FFFFFC0
3FFFFFC0
00000000
00000000
00000000
00000000
00000000
00000000
FFFFFF00
FFFFFF00
FFFFFE00
ENDCHAR
STARTCHAR 003E
ENCODING 62
SWIDTH 615 0
DWIDTH 32 0
BBX 24 27 6 4
BITMAP
C00000
F00000
FC0000
3F0000
0FC000
03F000
00FC00
003F00
000FC0
0003F0
0000FC
00003E
00000F
000003
00000F
00003F
0000FC
0003F0
000FC0
003F00
00FC00
03F000
0FC000
3F0000
FC0000
F00000
C00000
ENDCHAR
STARTCHAR 003F
ENCODING 63
SWIDTH 461 0
DWIDTH 24 0
BBX 18 42 7 -1
BITMAP
004000
07FC00
1FFF00
3E0F80
780780
7003C0
F001C0
F001C0
FC01C0
FF01C0
FF03C0
7F07C0
3E0F80
001F80
003F00
00FE00
01FE00
07F800
0FF000
1FC000
3F8000
3E0000
7C0000
780000
F00000
E00000
E06000
60C000
7FC000
7F8000
1E0000
000000
000000
000000
100000
780000
FC0000
FC0000
FC0000
FC0000
7C0000
100000
ENDCHAR
STARTCHAR 0040
ENCODING 64
SWIDTH 1038 0
DWIDTH 54 0
BBX 48 49 3 -8
BITMAP
000000100000
00000FFFC000
00007FFFF800
0003FE00FE00
0007E0001F80
001F800007C0
003E000001E0
00FC000000F0
01F800000078
03F000000038
03E00000001C
07C00000001C
0F800000000E
0F8001F8000E
1F0007FC3E06
1E001FFE7C07
3E003F077C07
3E007C037C07
7C00F803F803
7C01F801F803
7C01F001F803
7C03F001F803
7803E001F007
7807E003F007
F807C003F006
F807C003E006
F807C003E00E
F807C007E00C
780FC007E01C
7807C00FC01C
7C07C01FC038
7C07C01FC030
7C07C037C070
3C03C077C0E0
3E03E1E3E3C0
1E01FFC3FF80
1F007F01FE00
0F8008002000
0F8000000000
07C000000000
03E000000000
01F000000020
00FC000000F0
007E000003C0
001FC0001F80
000FF800FE00
0001FFFFF000
00007FFF8000
000000E00000
ENDCHAR
STARTCHAR 0041
ENCODING 65
SWIDTH 769 0
DWIDTH 40 0
BBX 42 41 -6 0
BITMAP
0000000003C0
0000000007C0
000000000F80
000000001F80
000000003F80
000000007F80
00000000FF80
00000000FF00
00000001EF00
00000003DF00
000000079F00
0000000F1E00
0000001E3E00
0000001E3E00
0000003C3E00
000000783C00
000000F07C00
000001E07C00
000003C07C00
000003C07C00
00000780F800
00000F00F800
00001E00F800
00003FFFF800
00007FFFF000
0000FFFFF000
0000E001F000
0001C001F000
00038003F000
00078003E000
000F0003E000
001E0003E000
003C0003E000
00380007C000
00700007C000
00E00007C000
03E0000FC000
07E0000FC000
1FE0003FE000
7FFC01FFFE00
FFFC01FFFC00
ENDCHAR
STARTCHAR 0042
ENCODING 66
SWIDTH 730 0
DWIDTH 38 0
BBX 38 40 -2 0
BITMAP
003FFFFC00
003FFFFF80
0007FE3FC0
0003F803F0
0001F801F0
0001F001F8
0001F000F8
0003F000FC
0003F000FC
0003E000FC
0003E000FC
0007E000F8
0007E001F8
0007C001F0
0007C003F0
000FC007E0
000FC01F80
000FFFFE00
000FFFF000
001FFFF800
001F00FE00
001F001F80
001F000FC0
003F0007E0
003E0007E0
003E0003F0
007E0003F0
007C0003F0
007C0003F0
007C0003F0
00FC0007F0
00F80007F0
00F80007E0
01F8000FE0
01F8001FC0
01F8003F80
03FC00FF00
0FFFFFFC00
7FFFFFF000
FFFFFF8000
ENDCHAR
STARTCHAR 0043
ENCODING 67
SWIDTH 730 0
DWIDTH 38 0
BBX 35 42 4 -1
BITMAP
0000040000
0000FFE060
0003FFFCE0
000FE07FE0
003F001FC0
007E000FC0
00FC0007C0
01F00007C0
03F00003C0
07E00003C0
07C0000380
0F80000380
1F80000180
1F80000180
3F00000000
3F00000000
7E00000000
7E00000000
7E00000000
FE00000000
FC00000000
FC00000000
FC00000000
FC00000000
FC00000000
FC00000000
FC00000000
FC00000000
FC00000000
FC00000000
FE00000800
7E00000E00
7E00001C00
7F00003800
3F00007000
1F8000E000
1FC001E000
0FE007C000
07FFFF0000
01FFFE0000
007FF80000
0003000000
ENDCHAR
STARTCHAR 0044
ENCODING 68
SWIDTH 826 0
DWIDTH 43 0
BBX 43 40 -2 0
BITMAP
003FFFFC0000
003FFFFFC000
0003FFFFF000
0001F803F800
0001F800FC00
0001F0007E00
0001F0003F00
0003F0001F80
0003F0000F80
0003E0000FC0
0003E00007C0
0007E00007E0
0007C00007E0
0007C00007E0
0007C00007E0
000FC00007E0
000F800007E0
000F800007E0
001F800007E0
001F800007E0
001F000007E0
001F000007E0
003F000007E0
003F00000FC0
003E00000FC0
003E00000FC0
007E00001F80
007C00001F80
007C00003F00
007C00007F00
00FC00007E00
00F80000FC00
00F80001F800
01F80003F000
01F80007E000
01F8001FC000
03FC007F8000
7FFFFFFE0000
7FFFFFF80000
FFFFFF000000
ENDCHAR
STARTCHAR 0045
ENCODING 69
SWIDTH 730 0
DWIDTH 38 0
BBX 38 40 -1 0
BITMAP
007FFFFFFC
007FFFFFFC
007FFFFFFC
0007F001FC
0003F0007C
0003E0003C
0003E0003C
0003E0001C
0007E0001C
0007C0001C
0007C0000C
0007C00000
000FC03800
000F803000
000F807000
000F807000
001F00F000
001FFFE000
001FFFE000
003FFFE000
003E03E000
003E01E000
003E01C000
007E00C000
007C00C000
007C00C000
007C01C000
00FC000000
00F8000000
00F8000070
00F8000070
01F00000E0
01F00000E0
01F00001C0
03F00003C0
03F00007C0
07F8001F80
0FFE00FF80
FFFFFFFF80
FFFFFFFF00
ENDCHAR
STARTCHAR 0046
ENCODING 70
SWIDTH 653 0
DWIDTH 34 0
BBX 38 40 -1 0
BITMAP
007FFFFFFC
007FFFFFFC
007FFFFFFC
0007F001FC
0003F0007C
0003E0003C
0003E0003C
0003E0001C
0007E0001C
0007C0001C
0007C0000C
0007C00000
000FC01800
000F803800
000F803000
001F807000
001F00F000
001FFFF000
001FFFE000
003FFFE000
003E03E000
003E01E000
003E01E000
007E01C000
007C01C000
007C01C000
007C01C000
00FC018000
00F8000000
00F8000000
01F8000000
01F0000000
01F0000000
01F0000000
03F0000000
03F0000000
07F8000000
FFFFC00000
FFFFC00000
FFFFC00000
ENDCHAR
STARTCHAR 0047
ENCODING 71
SWIDTH 807 0
DWIDTH 42 0
BBX 37 42 4 -1
BITMAP
0000020000
00007FF818
0003FFFF38
000FF01FF8
001F8007F8
003E0001F0
00FC0000F0
01F80000F0
03F00000F0
07E0000070
07C0000070
0FC0000060
1F80000000
1F80000000
3F00000000
3F00000000
7E00000000
7E00000000
7E00000000
FE00000000
FC00000000
FC00000000
FC00000000
FC0003FFF8
FC0003FFF0
FC0003FFF0
FC00007F80
FC00003F00
FC00003F00
FC00003F00
FE00003E00
7E00003E00
7E00003E00
7E00003C00
3F00007C00
1F8000FC00
1F8001FC00
0FE003FC00
07F80FF800
01FFFFE000
007FFE0000
0003000000
ENDCHAR
STARTCHAR 0048
ENCODING 72
SWIDTH 903 0
DWIDTH 47 0
BBX 52 40 -1 0
BITMAP
007FFFC01FFFF0
007FFFC01FFFF0
007FFFC03FFFE0
0003FC0001FE00
0003F80001FC00
0003F00001F800
0003E00001F800
0003E00001F800
0007E00001F000
0007E00001F000
0007C00003F000
0007C00003E000
000FC00003E000
000F800003E000
000F800007E000
001F800007C000
001F800007C000
001F000007C000
001FFFFFFFC000
003FFFFFFF8000
003FFFFFFF8000
003E00001F8000
003E00001F0000
007E00001F0000
007C00001F0000
007C00003F0000
00FC00003E0000
00FC00003E0000
00F800007E0000
00F800007E0000
01F800007C0000
01F800007C0000
01F00000FC0000
03F00000FC0000
03F00000FC0000
07F00001FC0000
0FF80003FC0000
FFFF803FFFC000
FFFF807FFFC000
FFFF007FFFC000
ENDCHAR
STARTCHAR 0049
ENCODING 73
SWIDTH 423 0
DWIDTH 22 0
BBX 26 40 -1 0
BITMAP
007FFFC0
007FFFC0
007FFFC0
0003FC00
0003F800
0003F000
0003E000
0003E000
0007E000
0007C000
0007C000
0007C000
000FC000
000F8000
000F8000
001F8000
001F8000
001F0000
001F0000
003F0000
003E0000
003E0000
003E0000
007E0000
007C0000
007C0000
00FC0000
00FC0000
00F80000
00F80000
01F80000
01F80000
01F00000
03F00000
03F00000
07F00000
0FF80000
FFFF8000
FFFF8000
FFFF0000
ENDCHAR
STARTCHAR 004A
ENCODING 74
SWIDTH 538 0
DWIDTH 28 0
BBX 33 41 -1 -1
BITMAP
0000FFFF80
0000FFFF80
0000FFFF80
000007F800
000003F000
000003E000
000007E000
000007E000
000007C000
000007C000
00000FC000
00000FC000
00000F8000
00000F8000
00001F8000
00001F0000
00001F0000
00001F0000
00003F0000
00003E0000
00003E0000
00003E0000
00007E0000
00007C0000
00007C0000
0000FC0000
0000FC0000
0000F80000
1C00F80000
7E01F80000
7F01F00000
FF01F00000
FE03F00000
FC03E00000
F807E00000
F80FC00000
F81F800000
7E7F000000
3FFE000000
1FF8000000
0180000000
ENDCHAR
STARTCHAR 004B
ENCODING 75
SWIDTH 826 0
DWIDTH 43 0
BBX 45 40 -1 0
BITMAP
007FFFC3FFF8
007FFFC3FFF8
007FFFC3FFF0
0003FC007FC0
0003F8007F00
0003F0007C00
0003E000F800
0003E001F000
0007E007C000
0007C00F8000
0007C01E0000
000FC07C0000
000FC0F00000
000F81E00000
000F87C00000
001F8F000000
001FBE000000
001F7C000000
001FFE000000
003FFF000000
003FBF000000
003E3F800000
003E1FC00000
007E0FE00000
007C07E00000
007C07F00000
00FC03F80000
00FC01FC0000
00F800FE0000
00F800FE0000
01F8007F0000
01F0003F8000
01F0001FC000
03F0001FE000
03F0000FE000
03F0000FF000
07F8000FF800
7FFF807FFF80
FFFF80FFFF80
FFFF80FFFF00
ENDCHAR
STARTCHAR 004C
ENCODING 76
SWIDTH 711 0
DWIDTH 37 0
BBX 35 40 -1 0
BITMAP
007FFFC000
007FFFC000
007FFFC000
0007F80000
0003F00000
0003F00000
0003E00000
0007E00000
0007E00000
0007C00000
0007C00000
000FC00000
000FC00000
000F800000
000F800000
001F800000
001F800000
001F000000
001F000000
003F000000
003E000000
003E000000
003E000000
007E000000
007C000000
007C000000
007C000000
00FC000000
00F80000E0
00F80000C0
01F80001C0
01F00001C0
01F0000380
01F0000780
03F0000F80
03F0001F00
07F8007F00
FFFFFFFE00
FFFFFFFE00
FFFFFFFE00
ENDCHAR
STARTCHAR 004D
ENCODING 77
SWIDTH 1019 0
DWIDTH 53 0
BBX 56 40 -1 0
BITMAP
007FFC000007FF
007FFC00000FFF
007FFC00000FFF
0003FC00001FF0
0003FC00001FF0
0003FE00003FE0
0003FE00007FE0
0003FE000077C0
0007BE0000F7C0
00073E0001EFC0
00073E0001CF80
00073E0003CF80
000E3E00079F80
000E3F00071F80
000E3F000F1F00
000E3F000E1F00
001C1F001E3F00
001C1F003C3E00
001C1F00383E00
003C1F00783E00
00381F00F07E00
00381F80E07C00
00381F81E07C00
00781F83C0FC00
00700F8380FC00
00700F8780F800
00700F8700F800
00E00F8F01F800
00E00F9E01F000
00E00F9C01F000
01E00FFC01F000
01C00FF803F000
01C00FF003E000
03C007F003E000
03C007E007E000
07E007C007E000
0FE007C00FF000
FFFE0780FFFF00
FFFC0780FFFF00
FFFC0701FFFF00
ENDCHAR
STARTCHAR 004E
ENCODING 78
SWIDTH 846 0
DWIDTH 44 0
BBX 47 40 0 0
BITMAP
03FFE0003FFE
03FFE0003FFE
03FFF0007FFE
001FF0000FF0
000FF80007E0
0007F80007C0
0007F8000380
0007FC000380
0007FC000780
00077E000700
00077E000700
00073F000700
000E3F000F00
000E3F800E00
000E1F800E00
001E1F800E00
001C0FC01E00
001C0FC01C00
001C07E01C00
003C07E01C00
003803F03800
003803F03800
003803F03800
007001F83800
007001F87000
007000FC7000
00F000FC7000
00E0007E7000
00E0007EE000
00E0003EE000
01E0003FE000
01C0003FE000
01C0001FC000
03C0001FC000
03C0000FC000
07E0000F8000
0FE000078000
FFFE00078000
FFFE00078000
FFFE00030000
ENDCHAR
STARTCHAR 004F
ENCODING 79
SWIDTH 826 0
DWIDTH 43 0
BBX 37 42 4 -1
BITMAP
0000020000
0000FFF000
0003FFFC00
000FE07E00
003F001F00
007E000F80
00F80007C0
01F80007E0
03F00003E0
07E00003F0
0FC00003F0
0FC00003F0
1F800003F0
1F800003F8
3F000003F8
3F000003F8
7E000003F8
7E000003F8
7E000003F8
FE000003F8
FE000003F0
FC000003F0
FC000003F0
FC000003F0
FC000007F0
FC000007E0
FC000007E0
FC00000FC0
FC00000FC0
FC00000F80
FE00001F80
7E00001F00
7E00003E00
7E00007E00
3F0000FC00
1F0001F800
1F8003F000
0FC007C000
07F01F8000
01FFFE0000
007FF80000
0002000000
ENDCHAR
STARTCHAR 0050
ENCODING 80
SWIDTH 673 0
DWIDTH 35 0
BBX 38 40 -1 0
BITMAP
007FFFF800
007FFFFF00
007FFFFFC0
0007F807F0
0003F003F0
0003F001F8
0003E000F8
0003E000FC
0007E000FC
0007E000FC
0007C000FC
0007C000F8
000FC001F8
000F8001F8
000F8003F0
000F8007E0
001F800FC0
001F003F80
001F01FF00
003FFFFC00
003FFFE000
003FF00000
003E000000
007E000000
007C000000
007C000000
007C000000
00FC000000
00F8000000
00F8000000
01F8000000
01F8000000
01F0000000
01F0000000
03F0000000
07F0000000
07F8000000
3FFFC00000
FFFFC00000
FFFFC00000
ENDCHAR
STARTCHAR 0051
ENCODING 81
SWIDTH 826 0
DWIDTH 43 0
BBX 39 55 3 -14
BITMAP
0000010000
00007FF800
0001FFFF00
0007F01F80
000FC007C0
003F0003E0
007E0003F0
00FC0001F0
01F80001F8
03F00000F8
03E00000FC
07E00000FC
0FC00000FC
0FC00000FC
1F800000FC
1F800000FC
3F000000FE
3F000000FC
3F000000FC
7F000000FC
7F000000FC
7E000000FC
7E000001FC
7E000001FC
7E000001F8
7E000001F8
7E000003F8
7E000003F0
7E000003F0
7E000007E0
7F000007E0
3F00000FC0
3F00001F80
3F80003F00
1F80003E00
0FC000FC00
0FE001F800
07F007F000
03FFFFC000
00FFFF8000
003FFE0000
0003F80000
0007E00000
003F800000
00FE000008
07FFC0000C
1FFFF8001C
3FFFFE0018
7F07FF8078
FE01FFFFF0
FC00FFFFE0
78003FFFC0
30001FFF80
000007FE00
0000002000
ENDCHAR
STARTCHAR 0052
ENCODING 82
SWIDTH 769 0
DWIDTH 40 0
BBX 38 40 -1 0
BITMAP
007FFFF800
007FFFFF00
007FFFFFC0
0007F80FE0
0003F003F0
0003F003F0
0003E001F8
0003E001F8
0007E001F8
0007E001F8
0007C001F8
0007C001F8
000FC003F0
000F8003F0
000F8007E0
000F800FC0
001F803F80
001F01FF00
001FFFFC00
003FFFE000
003FFFC000
003E07C000
003E07E000
007E07E000
007C03F000
007C03F000
007C03F000
00FC01F800
00F801F800
00F800FC00
01F800FC00
01F000FE00
01F0007E00
03F0007F00
03F0003F00
07F0003F80
0FF8003FC0
7FFFC01FFC
FFFFC01FFC
FFFFC00FFC
ENDCHAR
STARTCHAR 0053
ENCODING 83
SWIDTH 596 0
DWIDTH 31 0
BBX 30 42 1 -1
BITMAP
00002000
0003FF04
000FFF88
003F03F8
007C01F8
007800F8
00F00078
01F00070
01F00070
01F00070
01F00030
01F00030
01F80000
01FC0000
01FE0000
00FF0000
00FF8000
007FC000
003FF000
001FF800
000FFC00
0007FE00
0001FF00
0000FF00
00007F80
00003F80
00001FC0
00000FC0
30000FC0
300007C0
300007C0
700007C0
70000780
78000780
78000700
7C000F00
7E001E00
FF003C00
CFC0F800
C3FFF000
C1FFC000
00080000
ENDCHAR
STARTCHAR 0054
ENCODING 84
SWIDTH 788 0
DWIDTH 41 0
BBX 40 40 4 0
BITMAP
07FFFFFFFF
0FFFFFFFFF
0FFFFFFFFF
1FC03FC03E
1F003F801E
1E003F000E
3C003F000E
38003F000E
70003E0006
60003E0006
E0007E0006
00007C0000
00007C0000
00007C0000
0000FC0000
0000F80000
0000F80000
0000F80000
0001F80000
0001F00000
0001F00000
0003F00000
0003E00000
0003E00000
0003E00000
0007E00000
0007C00000
0007C00000
0007C00000
000FC00000
000F800000
000F800000
001F800000
001F000000
001F000000
003F000000
007F800000
0FFFFC0000
0FFFFC0000
0FFFFC0000
ENDCHAR
STARTCHAR 0055
ENCODING 85
SWIDTH 807 0
DWIDTH 42 0
BBX 40 41 6 -1
BITMAP
7FFF803FFF
FFFF807FFE
FFFF807FFE
0FF00007E0
07F00003E0
07E00003C0
07E00003C0
07C00003C0
07C0000380
0FC0000380
0F80000380
0F80000380
1F80000780
1F80000700
1F00000700
1F00000700
3F00000700
3F00000E00
3E00000E00
3E00000E00
7E00000E00
7C00001E00
7C00001C00
7C00001C00
FC00001C00
F800003800
F800003800
F800003800
F800007000
F800007000
F80000E000
F80000E000
FC0001C000
7C0003C000
7C00078000
3E000F0000
3F001E0000
1FC07C0000
0FFFF80000
03FFE00000
000C000000
ENDCHAR
STARTCHAR 0056
ENCODING 86
SWIDTH 750 0
DWIDTH 39 0
BBX 41 41 6 -1
BITMAP
1FFFE01FFF80
1FFFC01FFF00
1FFFC01FFF00
01FC0003F800
00F80003E000
00F80003C000
01F800078000
01F0000F0000
01F0001E0000
01F0001C0000
01F000380000
03E000700000
03E000F00000
03E001E00000
03E003C00000
07E003800000
07C007000000
07C00E000000
07C01E000000
07C03C000000
0F8078000000
0F8070000000
0F80E0000000
0F81C0000000
1F83C0000000
1F0780000000
1F0F00000000
1F0E00000000
1F1C00000000
3E3C00000000
3E7800000000
3EF000000000
3FE000000000
7FC000000000
7F8000000000
7F8000000000
7F0000000000
FE0000000000
FC0000000000
F80000000000
F80000000000
ENDCHAR
STARTCHAR 0057
ENCODING 87
SWIDTH 1057 0
DWIDTH 55 0
BBX 57 41 6 -1
BITMAP
1FFFC7FFF01FFF80
1FFF87FFF01FFF80
1FFF87FFF01FFF00
01FC007F0003F800
01F8007E0003E000
01F8007E0007C000
01F0007C00078000
01F0007C000F0000
01F0007C001E0000
01F0007C001C0000
03F000F800380000
03E001F800700000
03E003F800F00000
03E003F801E00000
03E007F001C00000
07C00FF003800000
07C01FF007800000
07C01DF00F000000
07C03BF00E000000
0FC07BE01C000000
0F80F3E038000000
0F81E3E078000000
0F81C3E0F0000000
0F8387C0E0000000
1F0787C1C0000000
1F0F07C3C0000000
1F0E07C780000000
1F1C0FC700000000
3F3C0F8E00000000
3E780F9E00000000
3EF00FBC00000000
3EE00FF800000000
3FE01F7000000000
7FC01FF000000000
7F801FE000000000
7F001FC000000000
7E003F8000000000
FE003F0000000000
FC003F0000000000
F8003E0000000000
F0007C0000000000
ENDCHAR
STARTCHAR 0058
ENCODING 88
SWIDTH 788 0
DWIDTH 41 0
BBX 45 40 -2 0
BITMAP
00FFFF01FFF8
00FFFF01FFF0
00FFFF03FFF0
000FF8007F00
0007F0007E00
0007F0007C00
0003F000F800
0003F800F000
0001F801E000
0001FC03C000
0000FC078000
0000FC0F0000
00007E1E0000
00007E1C0000
00003F380000
00003F700000
00001FE00000
00001FC00000
00000FC00000
00000FC00000
00000FE00000
00001FE00000
00003FF00000
00007BF00000
0000F1F80000
0001E1F80000
0003C1FC0000
000780FC0000
000700FC0000
000E007E0000
001C007E0000
003C003F0000
0078003F0000
00F0003F8000
01F0001FC000
03E0001FC000
07F0003FF000
1FFE03FFFF00
FFFE03FFFE00
FFFE03FFFE00
ENDCHAR
STARTCHAR 0059
ENCODING 89
SWIDTH 692 0
DWIDTH 36 0
BBX 36 40 5 0
BITMAP
FFFE01FFF0
FFFE03FFE0
FFFC03FFE0
1FE0007F00
0FE0003E00
07E0003C00
07E0007800
03F0007000
03F000F000
01F001E000
01F801C000
00F8038000
00FC078000
00FC070000
007E0E0000
007E1E0000
003E1C0000
003F380000
001F700000
001FF00000
001FE00000
000FC00000
000FC00000
000F800000
000F800000
000F800000
001F800000
001F000000
001F000000
003F000000
003F000000
003E000000
003E000000
007E000000
007E000000
00FE000000
01FE000000
3FFFF00000
3FFFF00000
3FFFF00000
ENDCHAR
STARTCHAR 005A
ENCODING 90
SWIDTH 673 0
DWIDTH 35 0
BBX 36 40 0 0
BITMAP
001FFFFFF0
003FFFFFF0
003FFFFFE0
007E001FC0
0078003FC0
00F0003F80
00E0007F00
01C000FE00
018001FC00
030003FC00
000003F800
000007F000
00000FE000
00001FE000
00001FC000
00003F8000
00007F0000
0000FF0000
0001FE0000
0001FC0000
0003F80000
0007F00000
000FF00000
000FE00000
001FC00000
003F800000
007F800000
00FF000000
00FE000100
01FC000600
03FC000E00
07F8000E00
07F0001C00
0FE0003C00
1FE0007800
3FC001F800
3F8007F800
7FFFFFF000
FFFFFFF000
FFFFFFE000
ENDCHAR
STARTCHAR 005B
ENCODING 91
SWIDTH 365 0
DWIDTH 19 0
BBX 26 51 -1 -8
BITMAP
0003FFC0
0007FFC0
0007FFC0
00078000
000F8000
000F8000
000F8000
000F0000
001F0000
001F0000
001F0000
001E0000
003E0000
003E0000
003C0000
003C0000
007C0000
007C0000
00780000
00F80000
00F80000
00F80000
00F00000
01F00000
01F00000
01F00000
01E00000
03E00000
03E00000
03C00000
07C00000
07C00000
07C00000
07800000
0F800000
0F800000
0F800000
0F000000
1F000000
1F000000
1E000000
1E000000
3E000000
3E000000
3C000000
7C000000
7C000000
7C000000
7FF80000
FFF80000
FFF80000
ENDCHAR
STARTCHAR 005C
ENCODING 92
SWIDTH 461 0
DWIDTH 24 0
BBX 10 40 8 0
BITMAP
E000
E000
E000
E000
7000
7000
7000
7000
7000
7000
3800
3800
3800
3800
3800
1C00
1C00
1C00
1C00
1C00
1E00
0E00
0E00
0E00
0E00
0F00
0700
0700
0700
0700
0700
0780
0380
0380
0380
0380
03C0
03C0
01C0
01C0
ENDCHAR
STARTCHAR 005D
ENCODING 93
SWIDTH 365 0
DWIDTH 19 0
BBX 26 51 -5 -8
BITMAP
0007FFC0
0007FFC0
0007FF80
00000F80
00000F80
00000F80
00000F00
00001F00
00001F00
00001E00
00003E00
00003E00
00003E00
00003C00
00007C00
00007C00
00007C00
00007800
0000F800
0000F800
0000F000
0001F000
0001F000
0001F000
0001E000
0003E000
0003E000
0003E000
0003C000
0007C000
0007C000
00078000
000F8000
000F8000
000F8000
000F0000
001F0000
001F0000
001F0000
001E0000
003E0000
003E0000
003C0000
003C0000
007C0000
007C0000
00780000
00F80000
FFF80000
FFF80000
FFF00000
ENDCHAR
STARTCHAR 005E
ENCODING 94
SWIDTH 480 0
DWIDTH 25 0
BBX 17 10 3 12
BITMAP
007800
00FC00
01FC00
03FE00
079E00
0F1E00
1E0F00
3C0700
700380
E00380
ENDCHAR
STARTCHAR 005F
ENCODING 95
SWIDTH 730 0
DWIDTH 38 0
BBX 31 4 -2 -7
BITMAP
7FFFFFFE
FFFFFFFC
FFFFFFFC
FFFFFFF8
ENDCHAR
STARTCHAR 0060
ENCODING 96
SWIDTH 269 0
DWIDTH 14 0
BBX 10 8 2 34
BITMAP
F000
F800
FC00
FE00
7E00
1F00
0780
01C0
ENDCHAR
STARTCHAR 0061
ENCODING 97
SWIDTH 576 0
DWIDTH 30 0
BBX 27 29 1 -1
BITMAP
0007C3C0
001FE7C0
007FF780
00F83F80
01F03F00
03E03F00
07C03F00
0F803E00
0F803E00
1F003E00
1E003C00
3E007C00
3C007C00
7C007800
7C00F800
F800F800
F801F000
F801F000
F803F000
F007F040
F007E0E0
F80FE1C0
F81DE180
F839E380
FFF9FF00
FFF1FE00
7FC1FC00
3F81F000
04004000
ENDCHAR
STARTCHAR 0062
ENCODING 98
SWIDTH 538 0
DWIDTH 28 0
BBX 25 44 1 -1
BITMAP
03FF0000
03FF0000
007E0000
003E0000
003E0000
007C0000
007C0000
007C0000
00780000
00F80000
00F80000
00F00000
01F00000
01F00000
01E00000
03E1F800
03E7FE00
03CFFF00
07DC1F00
07F81F80
07F00F80
0FE00F80
0FE00F80
0FC00F80
0F800F80
1F801F80
1F001F00
1F001F00
3E003F00
3E003E00
3E003E00
7C007E00
7C007C00
7C00F800
7C00F800
7801F000
F803E000
F807C000
7C07C000
7C1F0000
7E3E0000
3FFC0000
1FF00000
01000000
ENDCHAR
STARTCHAR 0063
ENCODING 99
SWIDTH 442 0
DWIDTH 23 0
BBX 21 29 1 -1
BITMAP
0007C0
001FF0
007FF8
00F0F8
01E0F8
03C0F8
07C0F8
0F8070
0F0000
1F0000
3E0000
3E0000
7E0000
7C0000
7C0000
FC0000
FC0000
F80000
F80000
F80080
F800C0
F801C0
F80380
FC0700
7C0E00
7E1C00
3FF800
1FF000
010000
ENDCHAR
STARTCHAR 0064
ENCODING 100
SWIDTH 596 0
DWIDTH 31 0
BBX 30 44 1 -1
BITMAP
00000FFC
00000FFC
00001FF8
000000F8
000000F8
000000F8
000000F0
000001F0
000001F0
000001E0
000003E0
000003E0
000003E0
000007C0
000007C0
0007C7C0
001FF7C0
007FFF80
00F83F80
01F01F80
03E01F00
07C01F00
07801F00
0F801F00
1F003E00
1F003E00
3E003E00
7E003E00
7C007C00
7C007C00
FC00FC00
F800FC00
F800F800
F801F828
F803F830
F803F830
F807F870
F80FF860
F80EF8E0
FC3CF9C0
7FF8FF80
3FF07F00
1FC07E00
04001000
ENDCHAR
STARTCHAR 0065
ENCODING 101
SWIDTH 461 0
DWIDTH 24 0
BBX 22 29 1 -1
BITMAP
0007E0
001FF8
007FF8
00F87C
01E07C
03C07C
07C07C
0F80F8
0F00F8
1F01F0
3E03E0
3E07C0
7C0F00
7C3E00
7CF800
FFE000
FF0000
F80000
F80000
F80000
F80080
F800C0
F801C0
F80380
7C0700
7E1E00
3FFC00
1FF000
010000
ENDCHAR
STARTCHAR 0066
ENCODING 102
SWIDTH 326 0
DWIDTH 17 0
BBX 38 57 -10 -14
BITMAP
0000000FE0
0000003FF0
0000007FF8
000000F8FC
000000F07C
000001E07C
000003E038
000003C000
000007C000
0000078000
0000078000
00000F8000
00000F0000
00000F0000
00001F0000
00001F0000
00001E0000
0007FFF800
0007FFF000
0007FFF000
00003E0000
00007C0000
00007C0000
00007C0000
00007C0000
0000F80000
0000F80000
0000F80000
0000F80000
0001F00000
0001F00000
0001F00000
0001F00000
0003E00000
0003E00000
0003E00000
0003E00000
0007C00000
0007C00000
0007C00000
0007C00000
000F800000
000F800000
000F800000
000F000000
001F000000
001F000000
001E000000
001E000000
003C000000
703C000000
F038000000
F878000000
F8F0000000
FFE0000000
7F80000000
0800000000
ENDCHAR
STARTCHAR 0067
ENCODING 103
SWIDTH 557 0
DWIDTH 29 0
BBX 35 42 -4 -14
BITMAP
0000FC0780
0003FF0FC0
000FFF9FE0
001F87FFE0
003F03E3E0
007E03E1C0
007C03E000
00FC03E000
00F803E000
01F803E000
01F803E000
01F003E000
01F007E000
01F007C000
00F00FC000
00F00F8000
00781F0000
00783E0000
003FFC0000
003FF00000
00FF000000
03E0000000
07E0000000
07E0000000
07F8000000
07FFC00000
03FFFC0000
00FFFF0000
003FFF8000
0C03FFC000
3F001FC000
7C0007E000
F80003E000
F80003C000
F80001C000
F80003C000
7800078000
7C000F8000
3F003E0000
0FFFFC0000
03FFF00000
000C000000
ENDCHAR
STARTCHAR 0068
ENCODING 104
SWIDTH 576 0
DWIDTH 30 0
BBX 28 44 0 -1
BITMAP
03FF8000
03FF8000
03FF0000
003F0000
001F0000
001E0000
003E0000
003E0000
003E0000
003C0000
007C0000
007C0000
00780000
00F80000
00F80000
00F07C00
01F1FF00
01F3FF00
01F70F80
01EE0F80
03FC0F80
03F80F80
03F00F80
07F01F80
07E01F00
07E01F00
0FC01F00
0FC03E00
0F803E00
0F803E00
1F007C00
1F007C00
1F007C00
3E00F800
3E00F800
3E00F820
3C01F070
7C01F0E0
7C01F1C0
7801FF80
F801FF00
F801FE00
F001F800
00004000
ENDCHAR
STARTCHAR 0069
ENCODING 105
SWIDTH 346 0
DWIDTH 18 0
BBX 17 44 1 -1
BITMAP
000E00
001F00
003F80
003F80
003F80
001F00
000E00
000000
000000
000000
000000
000000
000000
000000
000000
00F000
03F800
07F800
0FF800
1DF800
39F800
71F000
61F000
C1F000
03E000
03E000
03E000
07C000
07C000
07C000
0F8000
0F8000
1F8000
1F0000
1F0400
3E0600
3E0C00
3E1800
3E3800
3FF000
3FE000
3FC000
3F0000
080000
ENDCHAR
STARTCHAR 006A
ENCODING 106
SWIDTH 307 0
DWIDTH 16 0
BBX 26 57 -10 -14
BITMAP
00000700
00000F80
00001FC0
00001FC0
00001FC0
00000F80
00000700
00000000
00000000
00000000
00000000
00000000
00000000
00000000
00000000
00001C00
00007E00
0001FE00
0003FE00
0007FE00
00067E00
000C7E00
00187E00
00187C00
00007C00
0000FC00
0000FC00
0000F800
0000F800
0001F800
0001F000
0001F000
0001F000
0003F000
0003E000
0003E000
0003E000
0003E000
0007C000
0007C000
0007C000
00078000
000F8000
000F8000
000F8000
000F0000
001F0000
001E0000
001E0000
001C0000
703C0000
F8380000
F8700000
FCE00000
7FC00000
3F800000
04000000
ENDCHAR
STARTCHAR 006B
ENCODING 107
SWIDTH 519 0
DWIDTH 27 0
BBX 24 44 0 -1
BITMAP
03FF00
07FF00
003F00
003E00
003E00
003E00
003E00
007C00
007C00
007C00
007800
00F800
00F800
00F800
00F000
01F0FC
01F3FE
01F7FF
01EFFF
03FE3F
03FC1F
03F81F
07F03E
07E03C
07C078
07C0F0
0F83E0
0F8F80
0FBE00
0FFC00
1FFC00
1F7C00
1F3E00
3E3E00
3E3F00
3E1F03
3E1F07
7C0F8E
7C0FFE
7C07FC
7807F8
F803F0
F803E0
000080
ENDCHAR
STARTCHAR 006C
ENCODING 108
SWIDTH 307 0
DWIDTH 16 0
BBX 15 44 1 -1
BITMAP
03FE
07FE
007E
007C
007C
007C
007C
00F8
00F8
00F8
00F0
01F0
01F0
01F0
03E0
03E0
03E0
03E0
07C0
07C0
07C0
0780
0F80
0F80
0F80
1F00
1F00
1F00
1E00
3E00
3E00
3E00
3C00
7C00
7C0C
7C18
7838
F870
F8E0
FFC0
FF80
FF00
7E00
1000
ENDCHAR
STARTCHAR 006D
ENCODING 109
SWIDTH 865 0
DWIDTH 45 0
BBX 43 29 1 -1
BITMAP
01E01F007C00
07F07F81FE00
0FF0FFC3FF00
1CF1C3C71F00
18F383CE1F00
30F303CC1F00
60F607D81F00
61FE07F81E00
41EC07B03E00
C1F807E03E00
C3F80FE07C00
03F00FC07C00
03E00F807C00
03E01F80FC00
07E01F00F800
07C01F00F800
07C03F01F800
0F803E01F000
0F803E01F040
0F807E03F060
1F007C03E0C0
1F007C03E180
1F00F803E380
3E00F807E700
3E00F807FE00
3C01F007FC00
7C01F003F800
7C01F003E000
000000008000
ENDCHAR
STARTCHAR 006E
ENCODING 110
SWIDTH 634 0
DWIDTH 33 0
BBX 30 29 1 -1
BITMAP
01E00F80
07F03FE0
0FF0FFE0
1CF1E3E0
18F383F0
30F303E0
60F703E0
61FE03E0
41EC03E0
C1F807C0
C3F807C0
03F007C0
03F00F80
03E00F80
07E01F80
07C01F00
07C01F00
0F803F00
0F803E00
0F803E08
1F007E1C
1F007C38
1F007C70
3E007CE0
3E007FC0
3C007F80
7C007F00
7C003E00
00001000
ENDCHAR
STARTCHAR 006F
ENCODING 111
SWIDTH 519 0
DWIDTH 27 0
BBX 24 29 1 -1
BITMAP
000FC0
003FF0
00FFF8
01F83C
03F03C
07E01E
0FC01E
0F801F
1F801F
3F001F
3F001F
7E003F
7E003F
7E003E
7E003E
FC007E
FC007C
FC007C
FC00FC
FC00F8
FC01F0
7C01F0
7C03E0
7C07C0
3C0F80
1E1F00
1FFE00
07F800
008000
ENDCHAR
STARTCHAR 0070
ENCODING 112
SWIDTH 557 0
DWIDTH 29 0
BBX 32 48 -5 -13
BITMAP
00003C00
00007800
00007800
00007800
0000F000
0000F000
0000F000
0000FFE0
0001FFF8
0003FFFC
000FE07E
003FE03E
007BC03F
00E3C01F
01C7C01F
0387C01F
0107801F
0007801F
000F801F
000F003F
000F003F
001F003E
001F007E
001E007C
001E00F8
003E01F8
003E03F0
003C07E0
007C0F80
007C1F00
00787C00
00FBF800
00FFC000
00FE0000
00F00000
01F00000
01F00000
01F00000
03E00000
03E00000
03E00000
07E00000
07C00000
07C00000
0FE00000
FFFE0000
FFFE0000
FFFE0000
ENDCHAR
STARTCHAR 0071
ENCODING 113
SWIDTH 538 0
DWIDTH 28 0
BBX 26 41 1 -13
BITMAP
000F83C0
003FE780
007FF780
01F87780
03F03F80
07E03F00
07C03F00
0F803F00
1F803E00
1F003E00
3F003E00
3E003E00
7E003C00
7C003C00
7C007C00
FC007800
FC007800
F800F800
F800F800
F801F000
F801F000
F803F000
F807F000
F807E000
FC0DE000
7E3FE000
3FF3C000
1FE3C000
0207C000
0007C000
00078000
000F8000
000F8000
000F8000
001F0000
001F0000
001F0000
003F0000
03FFF000
03FFF000
03FFF000
ENDCHAR
STARTCHAR 0072
ENCODING 114
SWIDTH 461 0
DWIDTH 24 0
BBX 25 28 1 0
BITMAP
00E01E00
03F07F00
07F0FF80
1FF1FF80
39F39F80
31F70F00
61FE0000
C1FC0000
41F80000
03F80000
03F00000
03F00000
03E00000
07E00000
07C00000
07C00000
0F800000
0F800000
0F800000
1F000000
1F000000
1F000000
3E000000
3E000000
3E000000
7C000000
7C000000
7C000000
ENDCHAR
STARTCHAR 0073
ENCODING 115
SWIDTH 384 0
DWIDTH 20 0
BBX 19 29 -1 -1
BITMAP
003F00
00FFC0
01FFE0
03E3E0
03C3E0
07C1E0
07C0E0
07C000
07C000
07E000
07F000
03F800
03F800
01FC00
00FE00
007E00
007F00
003F00
001F00
001F00
201F00
780F00
F80F00
F81E00
FC1E00
7C3C00
7FF800
1FE000
030000
ENDCHAR
STARTCHAR 0074
ENCODING 116
SWIDTH 365 0
DWIDTH 19 0
BBX 17 36 2 -1
BITMAP
007C00
007800
00F800
00F800
00F000
01F000
01F000
01F000
03E000
03E080
7FFF00
7FFF00
07C000
07C000
078000
0F8000
0F8000
0F8000
1F0000
1F0000
1F0000
1E0000
3E0000
3E0000
3C0000
7C0000
7C0C00
780C00
781800
F83000
F8F000
FFE000
FFC000
FF0000
7E0000
100000
ENDCHAR
STARTCHAR 0075
ENCODING 117
SWIDTH 596 0
DWIDTH 31 0
BBX 28 29 1 -1
BITMAP
00F003E0
03F803E0
07F807C0
0FF807C0
1DF807C0
39F00F80
71F00F80
61F01F80
C3E01F00
03E01F00
07E03F00
07C03E00
07C03E00
0FC07E00
0F807C00
1F80FC00
1F01FC00
1F01F800
3F03F800
3E03F830
3E07F860
3E0EF060
7E1CF0C0
7E3CF1C0
7E78F380
3FF0FF00
3FE0FE00
1F80FC00
04002000
ENDCHAR
STARTCHAR 0076
ENCODING 118
SWIDTH 576 0
DWIDTH 30 0
BBX 28 29 1 -1
BITMAP
0F81C1C0
3FC383E0
7FFF83E0
77FF03E0
F1FE03F0
F07C03E0
F83C01E0
F83801E0
787001E0
00F001E0
00F001E0
01E001E0
01E001C0
03E003C0
03C003C0
03C00380
07C00780
07C00700
07C00F00
07C01E00
0FC01C00
0FC03C00
07E07800
07E0F000
07FFE000
03FFC000
03FF8000
00FE0000
00100000
ENDCHAR
STARTCHAR 0077
ENCODING 119
SWIDTH 846 0
DWIDTH 44 0
BBX 41 29 1 -1
BITMAP
0F8180700700
1FC380F80F80
3FFF81F80F80
73FF03FC0F80
F1FE03BC0F80
F83C073C0F80
F83807380F80
FC380E380780
78700E380780
30F00E380780
00E00E700780
01E01E700780
01C01E600700
03C01EE00F00
03C01EC00F00
07801FC00E00
07801F800E00
07801F801E00
0F801F001C00
0F801F003800
0F803F007800
0F807F807000
0FC0FF80F000
0FC1FFC1E000
07FFE7FFC000
07FFC7FF8000
03FF03FF0000
01FE01FC0000
002000200000
ENDCHAR
STARTCHAR 0078
ENCODING 120
SWIDTH 576 0
DWIDTH 30 0
BBX 33 29 -3 -1
BITMAP
0003C03C00
000FE0FF00
003FF1FF00
0070F31F00
00E0F60F80
01C0FE0F00
0180FC0700
0300FC0000
0700F80000
0200F80000
0000F80000
0001F00000
0001F00000
0001F00000
0003F00000
0003E00000
0003E00000
0003E00000
0007E00000
0007E00000
000FE00600
100FE00C00
781FE01C00
FC1FE03800
FC39E07000
FE71F1E000
7FE0FFC000
3F807F0000
0800180000
ENDCHAR
STARTCHAR 0079
ENCODING 121
SWIDTH 519 0
DWIDTH 27 0
BBX 32 42 -6 -14
BITMAP
001E000E
003E001F
007F001F
007F001F
00FF801F
01FF801F
018F801F
0187C01E
0307C01E
0303C01E
0303C01C
0303E01C
0003E03C
0003E038
0001E038
0001E070
0001F070
0001F060
0001F0E0
0000F1C0
0000F9C0
0000FB80
0000FF80
0000FF00
00007E00
00007E00
00007C00
00007800
00007800
00007000
0000E000
0001C000
0001C000
00038000
00070000
700E0000
F81C0000
F8380000
FCF00000
7FE00000
3F800000
08000000
ENDCHAR
STARTCHAR 007A
ENCODING 122
SWIDTH 519 0
DWIDTH 27 0
BBX 25 29 0 -1
BITMAP
00FC0100
03FF0380
07FF8380
0E7FC780
1C1FFF00
1C07FE00
1E03FC00
1F00F800
1F807000
1F80E000
0F01C000
00078000
000F0000
001E0000
003C0000
00780000
00F00000
01E00000
03C00000
07800100
0FC00380
1FF80300
3FFE0700
7FFFDE00
F0FFFC00
F07FFC00
E03FF800
E00FE000
00010000
ENDCHAR
STARTCHAR 007B
ENCODING 123
SWIDTH 326 0
DWIDTH 17 0
BBX 21 51 1 -8
BITMAP
000078
0003F0
0007C0
000F80
000F00
001F00
001E00
001E00
003E00
003E00
003C00
007C00
007C00
007C00
007800
00F800
00F800
00F000
01F000
01F000
01E000
03E000
03C000
078000
3F0000
780000
3F0000
1F0000
0F8000
0F8000
0F8000
0F8000
0F0000
1F0000
1F0000
1F0000
1E0000
3E0000
3E0000
3E0000
3C0000
7C0000
7C0000
780000
780000
F80000
F80000
F80000
7C0000
7E0000
1F0000
ENDCHAR
STARTCHAR 007C
ENCODING 124
SWIDTH 346 0
DWIDTH 18 0
BBX 4 56 7 -13
BITMAP
F0
F0
F0
F0
F0
F0
F0
F0
F0
F0
F0
F0
F0
F0
F0
F0
F0
F0
F0
F0
F0
F0
F0
F0
F0
F0
F0
F0
F0
F0
F0
F0
F0
F0
F0
F0
F0
F0
F0
F0
F0
F0
F0
F0
F0
F0
F0
F0
F0
F0
F0
F0
F0
F0
F0
F0
ENDCHAR
STARTCHAR 007D
ENCODING 125
SWIDTH 326 0
DWIDTH 17 0
BBX 21 51 -4 -8
BITMAP
0007C0
0003F0
0001F0
0000F8
0000F8
0000F8
0000F8
0000F0
0001F0
0001F0
0001F0
0001E0
0003E0
0003E0
0003E0
0003C0
0007C0
0007C0
000780
000780
000F80
000F80
000780
0007C0
0003E0
0000F0
0007C0
000F80
001F00
003E00
003E00
007C00
007C00
007800
00F800
00F800
00F800
00F000
01F000
01F000
01F000
01E000
03E000
03E000
03C000
07C000
07C000
0F8000
1F0000
7E0000
F80000
ENDCHAR
STARTCHAR 007E
ENCODING 126
SWIDTH 538 0
DWIDTH 28 0
BBX 20 6 4 13
BITMAP
1F8030
3FF860
7FFFE0
FFFFC0
C1FFC0
801F80
ENDCHAR
STARTCHAR 00A0
ENCODING 160
SWIDTH 269 0
DWIDTH 14 0
BBX 0 0 0 0
BITMAP
ENDCHAR
STARTCHAR 00A1
ENCODING 161
SWIDTH 326 0
DWIDTH 17 0
BBX 13 42 3 -1
BITMAP
0040
01F0
03F0
03F8
03F8
03F0
01F0
0040
0000
0000
0000
0000
0180
0180
0180
0300
0300
0300
0300
0700
0700
0700
0F00
0F00
0E00
1E00
1E00
1E00
3E00
3E00
7E00
7E00
7E00
FE00
FC00
FC00
FC00
FC00
FC00
F800
F800
2000
ENDCHAR
STARTCHAR 00A2
ENCODING 162
SWIDTH 461 0
DWIDTH 24 0
BBX 22 44 1 -8
BITMAP
000070
000060
0000E0
0000E0
0000C0
0001C0
0001C0
000180
0003C0
001FF0
003FF8
00F878
01F0FC
03E0FC
03C078
07C078
0F8000
1F0000
1F0000
3E0000
3E0000
7E0000
7C0000
7C0000
7C0000
FC0000
FC0000
FC0040
FC00E0
FC00C0
FC0180
7C0380
7E0700
3F1E00
3FFC00
1FF000
070000
070000
060000
0E0000
0E0000
0C0000
1C0000
1C0000
ENDCHAR
STARTCHAR 00A3
ENCODING 163
SWIDTH 673 0
DWIDTH 35 0
BBX 36 42 -1 -1
BITMAP
0000001000
000003FF80
00000FFFC0
00001F07E0
00007C03F0
00007801F0
0000F001F0
0001F001F0
0001F003E0
0003E003E0
0003E00380
0007E00000
0007E00000
0007E00000
0007E00000
0007E00000
0007E00000
0007E00000
01FFFFFC00
03FFFFFC00
03FFFFFC00
0007E00000
0007E00000
0007E00000
0007E00000
0007E00000
0007C00000
0007C00000
0007C00000
0007800000
0007800000
0007800000
0207000000
1FEF000100
7FFE000300
78FF000E00
F03FFFFE00
F03FFFFC00
F0F7FFF800
FFE1FFF000
7F807FE000
0800060000
ENDCHAR
STARTCHAR 00A4
ENCODING 164
SWIDTH 692 0
DWIDTH 36 0
BBX 25 25 5 1
BITMAP
40000100
E0080300
F0FF8780
7BFFEF00
3FC1FE00
1F007C00
1C003C00
38001C00
38000E00
30000E00
70000700
70000700
70000700
70000700
70000700
70000600
38000E00
38000E00
1C001C00
1E003C00
1F00FC00
3FFFFE00
71FFCF00
E07F0780
40000300
ENDCHAR
STARTCHAR 00A5
ENCODING 165
SWIDTH 769 0
DWIDTH 40 0
BBX 36 40 7 0
BITMAP
7FFE01FFF0
FFFE01FFF0
FFFE01FFE0
0FE0003F00
07E0003E00
07E0003C00
03F0003C00
03F0007800
01F8007000
01F800E000
00F801E000
00FC01C000
007C038000
007E078000
007E0F0000
003F0E0000
003F1C0000
001F3C0000
001FB80000
000FF00000
07FFFFF000
0FFFFFF000
0FFFFFF000
0007C00000
000FC00000
000FC00000
000F800000
1FFFFFC000
3FFFFFC000
3FFFFFC000
001F000000
001F000000
003F000000
003E000000
007E000000
007E000000
00FF000000
1FFFF80000
1FFFF00000
3FFFF00000
ENDCHAR
STARTCHAR 00A6
ENCODING 166
SWIDTH 346 0
DWIDTH 18 0
BBX 5 48 6 -9
BITMAP
F8
F8
F8
F8
F8
F8
F8
F8
F8
F8
F8
F8
F8
F8
F8
F8
F8
F8
F8
F8
00
00
00
00
00
00
00
00
F8
F8
F8
F8
F8
F8
F8
F8
F8
F8
F8
F8
F8
F8
F8
F8
F8
F8
F8
F8
ENDCHAR
STARTCHAR 00A7
ENCODING 167
SWIDTH 615 0
DWIDTH 32 0
BBX 32 53 0 -10
BITMAP
00001FC0
0000FFF8
0003FFFC
000FF83E
001F703E
003EF03F
007CF03F
0078F03F
00F8F03F
00F8F03E
00F0F01C
01F0F000
01F0F000
01F0F800
01F0F800
01F0F800
01F0F800
01F8FC00
01F87C00
01F87C00
01F87E00
00F87E00
00FC3E00
00FC3E00
00FC3F00
00FC3F00
007E1F00
007E1F80
007E1F80
003E1F80
003E0F80
003F0FC0
003F0FC0
001F0FC0
001F0FC0
001F87C0
001F87C0
000F87C0
000F87C0
000F87C0
000F87C0
000F87C0
780F8F80
FC0F8F80
FC0F8F00
FC0F9F00
FC0F1E00
FC0F3C00
7E1E7800
7E3DF000
3FFFC000
0FFF0000
00400000
ENDCHAR
STARTCHAR 00A8
ENCODING 168
SWIDTH 326 0
DWIDTH 17 0
BBX 15 6 1 34
BITMAP
381C
7C7E
FC7E
FC7E
F87C
7078
ENDCHAR
STARTCHAR 00A9
ENCODING 169
SWIDTH 923 0
DWIDTH 48 0
BBX 40 42 5 -1
BITMAP
0000100000
0003FFC000
001FFFF000
007F00FC00
00F8001F00
01E0000780
03800003C0
07000001E0
0E00000070
1C007E0078
1C03FF9038
3807FFF01C
300F80F01C
701E00700E
603E00300E
E03C001806
E07C001807
E078000007
C078000007
C078000007
C078000007
C078000007
C078000007
C078000007
E078000007
E07C001806
E07C001806
603E00300E
703E00700E
301F80E01C
380FFFC01C
1803FF8038
1C00FE0078
0E000000F0
07000001E0
03800003C0
01E0000780
00F8001F00
007F00FC00
001FFFF800
0007FFC000
0000180000
ENDCHAR
STARTCHAR 00AA
ENCODING 170
SWIDTH 384 0
DWIDTH 20 0
BBX 14 16 7 25
BITMAP
0080
07DC
0F78
1C78
3878
3870
7070
7070
E0E0
E0E0
E1E4
E3E4
E2C8
FEF0
7CE0
2040
ENDCHAR
STARTCHAR 00AB
ENCODING 171
SWIDTH 480 0
DWIDTH 25 0
BBX 20 17 2 5
BITMAP
002010
006030
01C0E0
0381C0
070380
1E0F00
3C1E00
783C00
F0F800
F87C00
783C00
3C1E00
1C0E00
0E0600
0E0700
060300
020100
ENDCHAR
STARTCHAR 00AC
ENCODING 172
SWIDTH 673 0
DWIDTH 35 0
BBX 24 14 5 5
BITMAP
FFFFFF
FFFFFF
FFFFFF
000007
000007
000007
000007
000007
000007
000007
000007
000007
000007
000007
ENDCHAR
STARTCHAR 00AD
ENCODING 173
SWIDTH 480 0
DWIDTH 25 0
BBX 16 4 4 13
BITMAP
FFFF
FFFF
FFFF
FFFF
ENDCHAR
STARTCHAR 00AE
ENCODING 174
SWIDTH 923 0
DWIDTH 48 0
BBX 40 42 5 -1
BITMAP
0000100000
0003FFC000
001FFFF000
007F00FC00
00F8001F00
01E0000780
03800003C0
07000001E0
0E00000070
1C3FFE0078
1C1F078038
380F03C01C
300F01E01C
700F01E00E
600F01F00E
E00F01E006
E00F01E007
E00F03E007
C00F07C007
C00FFF8007
C00FFC0007
C00F3E0007
C00F1F0007
C00F0F8007
E00F078007
E00F03C006
E00F03E006
600F01F00E
700F00F80E
300F807C1C
387FF03F1C
1800000038
1C00000078
0E000000F0
07000001E0
03800003C0
01E0000780
00F8001F00
007F00FC00
001FFFF800
0007FFC000
0000180000
ENDCHAR
STARTCHAR 00AF
ENCODING 175
SWIDTH 307 0
DWIDTH 16 0
BBX 14 3 1 36
BITMAP
FFFC
FFFC
FFFC
ENDCHAR
STARTCHAR 00B0
ENCODING 176
SWIDTH 346 0
DWIDTH 18 0
BBX 13 13 7 28
BITMAP
0200
1FC0
3DE0
6030
4030
C018
C018
C018
C010
6030
7060
3FE0
0F80
ENDCHAR
STARTCHAR 00B1
ENCODING 177
SWIDTH 653 0
DWIDTH 34 0
BBX 24 31 5 5
BITMAP
001800
001800
001800
001800
001800
001800
001800
001800
001800
001800
FFFFFF
FFFFFF
FFFFFF
001800
001800
001800
001800
001800
001800
001800
001800
001800
001800
001800
000000
000000
000000
000000
FFFFFF
FFFFFF
FFFFFF
ENDCHAR
STARTCHAR 00B2
ENCODING 178
SWIDTH 288 0
DWIDTH 15 0
BBX 12 17 5 24
BITMAP
0100
0FE0
1870
3030
3030
3870
1C70
0060
00C0
01C0
0300
0600
0C00
1820
3FC0
7FC0
FFC0
ENDCHAR
STARTCHAR 00B3
ENCODING 179
SWIDTH 288 0
DWIDTH 15 0
BBX 12 16 5 25
BITMAP
0100
0FE0
1870
1870
1870
1C60
00E0
0780
0F80
00C0
20E0
70E0
E0E0
C0E0
E1C0
7F00
ENDCHAR
STARTCHAR 00B4
ENCODING 180
SWIDTH 269 0
DWIDTH 14 0
BBX 12 8 1 34
BITMAP
00F0
01F0
03F0
07E0
0FC0
1F00
3C00
F000
ENDCHAR
STARTCHAR 00B5
ENCODING 181
SWIDTH 692 0
DWIDTH 36 0
BBX 31 42 0 -14
BITMAP
001C003C
007E007C
00FE007C
03FE00F8
07FE00F8
073E00F8
0C7E01F0
1C7C01F0
187C01F0
007C03E0
007803E0
00F807E0
00F807C0
00F007C0
01F00FC0
01F00F80
01E01F80
03E03F80
03E03F84
03E07F06
07C07F06
07C0FF0C
07C1DF1C
0FC3DF38
0FFF9FF0
0FFF1FE0
0FFE1FC0
1F7C0F80
1F100400
1E000000
3E000000
3E000000
3E000000
7E000000
7E000000
7C000000
7C000000
FC000000
FC000000
FC000000
78000000
20000000
ENDCHAR
STARTCHAR 00B6
ENCODING 182
SWIDTH 557 0
DWIDTH 29 0
BBX 31 54 0 -14
BITMAP
00003FFE
0003FFFE
000FFFFE
001FFFF0
007FFFE0
00FFFFC0
00FFFFC0
01FFFFC0
03FFFFC0
03FFFF80
03FFFF80
03FFFF80
07FFFF80
07FFFF00
07FFFF00
07FFFF00
07FFFE00
03FFFE00
03FFFE00
01FFFE00
00FFFC00
007FFC00
003FFC00
00007C00
00007800
0000F800
0000F800
0000F800
0000F000
0001F000
0001F000
0001F000
0001E000
0003E000
0003E000
0003E000
0007C000
0007C000
0007C000
0007C000
000F8000
000F8000
000F8000
000F0000
001F0000
001E0000
001E0000
301E0000
783C0000
F8380000
FC780000
7FF00000
3FC00000
04000000
ENDCHAR
STARTCHAR 00B7
ENCODING 183
SWIDTH 269 0
DWIDTH 14 0
BBX 7 7 3 11
BITMAP
38
7C
FE
FE
FE
7C
38
ENDCHAR
STARTCHAR 00B8
ENCODING 184
SWIDTH 230 0
DWIDTH 12 0
BBX 13 15 -1 -14
BITMAP
00E0
01C0
01C0
0380
0700
07F0
0FF8
00F8
0078
7078
F078
F1F0
7FE0
3FC0
0400
ENDCHAR
STARTCHAR 00B9
ENCODING 185
SWIDTH 269 0
DWIDTH 14 0
BBX 9 16 6 24
BITMAP
0080
0380
0700
3F00
0700
0700
0600
0600
0E00
0E00
0C00
0C00
1C00
1C00
3C00
FF00
ENDCHAR
STARTCHAR 00BA
ENCODING 186
SWIDTH 346 0
DWIDTH 18 0
BBX 13 15 7 26
BITMAP
0100
07E0
1C70
3870
3878
7078
F078
F070
F070
E0F0
E0E0
E1C0
73C0
7F00
1C00
ENDCHAR
STARTCHAR 00BB
ENCODING 187
SWIDTH 480 0
DWIDTH 25 0
BBX 21 17 1 5
BITMAP
040200
0E0600
060300
070380
0383C0
03C1E0
03E1E0
01E0F0
01F0F8
03E1E0
0783C0
0F0780
1C0E00
381C00
703800
C06000
804000
ENDCHAR
STARTCHAR 00BC
ENCODING 188
SWIDTH 634 0
DWIDTH 33 0
BBX 36 41 -1 0
BITMAP
0001000000
00030000F0
000E0001E0
007E0001C0
000E000380
000E000700
000C000E00
000C001E00
001C001C00
001C003800
0018007000
001800E000
003801E000
003801C000
0038038000
0078070000
01FE0E0000
00001E0000
00001C0000
0000380000
0000700000
0000E00000
0001E00000
0003C00000
0003800000
0007000800
000E003800
001E007800
003C00F000
003801B000
0070037000
00E0067000
01E00C6000
03C0186000
03803FF800
070000E000
0E0000C000
1E0000C000
3C0001C000
3800018000
F000018000
ENDCHAR
STARTCHAR 00BD
ENCODING 189
SWIDTH 653 0
DWIDTH 34 0
BBX 36 41 -1 0
BITMAP
0001000000
00030000F0
000E0000E0
007E0001C0
000E000380
000E000700
000C000E00
000C001E00
001C001C00
001C003800
0018007000
001800E000
001801E000
003801C000
0038038000
0078070000
01FE0E0000
00001E0000
00001C0000
0000380000
0000700000
0000E00000
0001E00000
0001C00000
0003800000
000700F800
000E039C00
001E070E00
003C060E00
0038060E00
0070070E00
00E0039C00
01E0001800
03C0003000
0380006000
070000C000
0E00018000
1E00020C00
3C0007F800
38001FF800
F0001FF800
ENDCHAR
STARTCHAR 00BE
ENCODING 190
SWIDTH 653 0
DWIDTH 34 0
BBX 35 41 1 0
BITMAP
0008000000
007E0000E0
00C70001C0
0183000380
01C3000700
00E3000F00
0006000E00
001C001C00
00F8003800
000E007000
000E00F000
038600E000
070701C000
0606038000
060E070000
071C0F0000
03F00E0000
00001C0000
0000380000
0000700000
0000F00000
0001E00000
0001C00000
0003800000
0007000000
000F001800
001E003000
001C007000
003800F000
0070016000
00F0026000
01E00C6000
01C018E000
038030C000
07003FF800
0F0041C000
1E0001C000
3C00018000
3800018000
7000038000
F000030000
ENDCHAR
STARTCHAR 00BF
ENCODING 191
SWIDTH 461 0
DWIDTH 24 0
BBX 18 42 1 -1
BITMAP
000100
0007C0
000FC0
000FC0
000FC0
000FC0
000780
000100
000000
000000
000000
001F00
007F80
007FC0
00C1C0
0081C0
0001C0
0001C0
0003C0
000F80
001F80
003F00
00FE00
03FC00
07F800
0FF000
1FC000
3F8000
7E0000
7C1F00
F81F80
F01FC0
F01FC0
E007C0
E003C0
F003C0
7003C0
780780
3C0F00
1FFE00
0FFC00
008000
ENDCHAR
STARTCHAR 00C0
ENCODING 192
SWIDTH 769 0
DWIDTH 40 0
BBX 43 50 -6 0
BITMAP
00000001E000
00000003F000
00000003FC00
00000001FE00
000000003F00
0000000007C0
000000000020
000000000000
000000000000
0000000003C0
0000000007C0
000000000F80
000000001F80
000000003F80
000000007F80
00000000FF80
00000000FF00
00000001EF00
00000003DF00
000000079F00
0000000F1E00
0000001E3E00
0000001E3E00
0000003C3E00
000000783C00
000000F07C00
000001E07C00
000003C07C00
000003C07C00
00000780F800
00000F00F800
00001E00F800
00003FFFF800
00007FFFF000
0000FFFFF000
0000E001F000
0001C001F000
00038003F000
00078003E000
000F0003E000
001E0003E000
003C0003E000
00380007C000
00700007C000
00E00007C000
03E0000FC000
07E0000FC000
1FE0003FE000
7FFC01FFFE00
FFFC01FFFC00
ENDCHAR
STARTCHAR 00C1
ENCODING 193
SWIDTH 769 0
DWIDTH 40 0
BBX 53 50 -6 0
BITMAP
00000000000078
000000000001F8
000000000007F0
00000000001FE0
00000000007F00
0000000001F000
00000000020000
00000000000000
00000000000000
0000000003C000
0000000007C000
000000000F8000
000000001F8000
000000003F8000
000000007F8000
00000000FF8000
00000000FF0000
00000001EF0000
00000003DF0000
000000079F0000
0000000F1E0000
0000001E3E0000
0000001E3E0000
0000003C3E0000
000000783C0000
000000F07C0000
000001E07C0000
000003C07C0000
000003C07C0000
00000780F80000
00000F00F80000
00001E00F80000
00003FFFF80000
00007FFFF00000
0000FFFFF00000
0000E001F00000
0001C001F00000
00038003F00000
00078003E00000
000F0003E00000
001E0003E00000
003C0003E00000
00380007C00000
00700007C00000
00E00007C00000
03E0000FC00000
07E0000FC00000
1FE0003FE00000
7FFC01FFFE0000
FFFC01FFFC0000
ENDCHAR
STARTCHAR 00C2
ENCODING 194
SWIDTH 769 0
DWIDTH 40 0
BBX 50 50 -6 0
BITMAP
0000000001FC00
0000000003FC00
0000000007FE00
000000001FBF00
000000003C0F00
00000000F003C0
00000000000000
00000000000000
00000000000000
0000000003C000
0000000007C000
000000000F8000
000000001F8000
000000003F8000
000000007F8000
00000000FF8000
00000000FF0000
00000001EF0000
00000003DF0000
000000079F0000
0000000F1E0000
0000001E3E0000
0000001E3E0000
0000003C3E0000
000000783C0000
000000F07C0000
000001E07C0000
000003C07C0000
000003C07C0000
00000780F80000
00000F00F80000
00001E00F80000
00003FFFF80000
00007FFFF00000
0000FFFFF00000
0000E001F00000
0001C001F00000
00038003F00000
00078003E00000
000F0003E00000
001E0003E00000
003C0003E00000
00380007C00000
00700007C00000
00E00007C00000
03E0000FC00000
07E0000FC00000
1FE0003FE00000
7FFC01FFFE0000
FFFC01FFFC0000
ENDCHAR
STARTCHAR 00C3
ENCODING 195
SWIDTH 769 0
DWIDTH 40 0
BBX 50 50 -6 0
BITMAP
000000000F8040
000000001FE0C0
000000003FF0C0
000000003FFF80
0000000061FF80
00000000607F00
00000000401E00
00000000000000
00000000000000
00000000000000
0000000007C000
000000000FC000
000000001F8000
000000003F8000
000000003F8000
000000007F8000
00000000FF0000
00000001EF0000
00000003DF0000
000000079F0000
000000071E0000
0000000E3E0000
0000001E3E0000
0000003C3E0000
000000783E0000
000000F07C0000
000001E07C0000
000001C07C0000
000003C07C0000
00000780F80000
00000F00F80000
00001E00F80000
00003FFFF80000
00007FFFF00000
00007FFFF00000
0000E001F00000
0001C001F00000
00038003F00000
00078003E00000
000F0003E00000
001E0003E00000
001C0003E00000
00380007C00000
00700007C00000
00E00007C00000
03E0000FC00000
07E0000FC00000
1FE0003FE00000
7FFC01FFFE0000
FFFC01FFFC0000
ENDCHAR
STARTCHAR 00C4
ENCODING 196
SWIDTH 769 0
DWIDTH 40 0
BBX 49 50 -6 0
BITMAP
000000000E0380
000000001F0780
000000001F0F80
000000001E0F80
000000001C0700
00000000000000
00000000000000
00000000000000
00000000000000
0000000007C000
000000000FC000
000000000F8000
000000001F8000
000000003F8000
000000007F8000
00000000FF0000
00000001EF0000
00000001DF0000
00000003DF0000
000000079F0000
0000000F1E0000
0000001E3E0000
0000003C3E0000
0000003C3E0000
000000783C0000
000000F07C0000
000001E07C0000
000003C07C0000
000007807C0000
00000780F80000
00000F00F80000
00001E00F80000
00003FFFF80000
00007FFFF00000
0000FFFFF00000
0000E001F00000
0001C001F00000
00038003F00000
00078003E00000
000F0003E00000
001E0003E00000
003C0003E00000
00380007C00000
00700007C00000
00E00007C00000
03E0000FC00000
07E0000FC00000
1FE0003FE00000
7FFC01FFFE0000
FFFC01FFFC0000
ENDCHAR
STARTCHAR 00C5
ENCODING 197
SWIDTH 769 0
DWIDTH 40 0
BBX 45 50 -6 0
BITMAP
000000000070
0000000001F8
000000000198
000000000318
000000000318
0000000003F0
0000000001E0
000000000000
000000000000
000000000000
0000000007C0
000000000F80
000000001F80
000000003F80
000000007F80
000000007F80
00000000FF00
00000001FF00
00000003DF00
000000079F00
0000000F1E00
0000001E3E00
0000001C3E00
0000003C3E00
000000783E00
000000F07C00
000001E07C00
000003C07C00
000003807C00
00000780F800
00000F00F800
00001E00F800
00003FFFF800
00007FFFF000
00007FFFF000
0000E001F000
0001C001F000
00038003F000
00078003E000
000F0003E000
001E0003E000
003C0003E000
00380007C000
00700007C000
00E00007C000
03E0000FC000
07E0000FC000
1FE0003FE000
7FFC01FFFE00
FFFC01FFFC00
ENDCHAR
STARTCHAR 00C6
ENCODING 198
SWIDTH 1076 0
DWIDTH 56 0
BBX 58 40 -4 0
BITMAP
0000000FFFFFFFC0
0000000FFFFFFFC0
0000001FFFFFFFC0
000000007F000FC0
000000007F0007C0
00000000FF0003C0
00000001FF0003C0
00000003DE0001C0
00000007BE0001C0
000000073E0000C0
0000000E3E0000C0
0000001E3C000000
0000003C7C018000
000000787C038000
000000F07C030000
000001E078070000
000001C0F80F0000
000003C0FFFF0000
00000780FFFF0000
00000F00FFFE0000
00001E01F03E0000
00003C01F01E0000
00007FFFF00E0000
00007FFFF00C0000
0000FFFFE00C0000
0001E003E00C0000
0003C003E00C0000
00078003E0000000
000F0007E0000000
000E0007C0000300
001C0007C0000700
00380007C0000600
00700007C0000E00
00E0000F80001E00
01C0000F80003C00
03C0000F80007C00
0FC0001F8000FC00
3FE0003FE00FF800
FFFC01FFFFFFF800
FFF803FFFFFFF000
ENDCHAR
STARTCHAR 00C7
ENCODING 199
SWIDTH 730 0
DWIDTH 38 0
BBX 35 55 4 -14
BITMAP
0000040000
0000FFE060
0003FFFCE0
000FE07FE0
003F001FC0
007E000FC0
00FC0007C0
01F00007C0
03F00003C0
07E00003C0
07C0000380
0F80000380
1F80000180
1F80000180
3F00000000
3F00000000
7E00000000
7E00000000
7E00000000
FE00000000
FC00000000
FC00000000
FC00000000
FC00000000
FC00000000
FC00000000
FC00000000
FC00000000
FC00000000
FC00000000
FE00000800
7E00000E00
7E00001C00
7F00003800
3F00007000
3F8000E000
1FC001C000
0FE0078000
07FFFF0000
01FFFE0000
007FF00000
0003800000
0003000000
0007000000
000E000000
000FE00000
001FF00000
0001F80000
0000F80000
00E0F00000
00E0F00000
01E1E00000
00FFC00000
007F800000
0008000000
ENDCHAR
STARTCHAR 00C8
ENCODING 200
SWIDTH 730 0
DWIDTH 38 0
BBX 38 50 -1 0
BITMAP
00000F0000
00001F8000
00001FE000
00000FF000
000003F800
0000003E00
0000000000
0000000000
0000000000
0000000000
007FFFFFFC
007FFFFFFC
007FFFFFFC
0007F001FC
0003F0007C
0003E0003C
0003E0003C
0003E0001C
0007E0001C
0007C0001C
0007C0000C
0007C00000
000FC03800
000F803000
000F807000
000F807000
001F00F000
001FFFE000
001FFFE000
003FFFE000
003E03E000
003E01E000
003E01C000
007E00C000
007C00C000
007C00C000
007C01C000
00FC000000
00F8000000
00F8000070
00F8000070
01F00000E0
01F00000E0
01F00001C0
03F00003C0
03F00007C0
07F8001F80
0FFE00FF80
FFFFFFFF80
FFFFFFFF00
ENDCHAR
STARTCHAR 00C9
ENCODING 201
SWIDTH 730 0
DWIDTH 38 0
BBX 38 50 -1 0
BITMAP
00000001E0
00000007E0
0000001FE0
0000007F80
000001FC00
000007C000
0000000000
0000000000
0000000000
0000000000
007FFFFFFC
007FFFFFFC
007FFFFFFC
0007F001FC
0003F0007C
0003E0003C
0003E0003C
0003E0001C
0007E0001C
0007C0001C
0007C0000C
0007C00000
000FC03800
000F803000
000F807000
000F807000
001F00F000
001FFFE000
001FFFE000
003FFFE000
003E03E000
003E01E000
003E01C000
007E00C000
007C00C000
007C00C000
007C01C000
00FC000000
00F8000000
00F8000070
00F8000070
01F00000E0
01F00000E0
01F00001C0
03F00003C0
03F00007C0
07F8001F80
0FFE00FF80
FFFFFFFF80
FFFFFFFF00
ENDCHAR
STARTCHAR 00CA
ENCODING 202
SWIDTH 730 0
DWIDTH 38 0
BBX 38 50 -1 0
BITMAP
000000FE00
000001FE00
000007FF00
00000FDF80
00001E0780
00007801C0
0000000000
0000000000
0000000000
0000000000
007FFFFFFC
007FFFFFFC
007FFFFFFC
0007F001FC
0003F0007C
0003E0003C
0003E0003C
0003E0001C
0007E0001C
0007C0001C
0007C0000C
0007C00000
000FC03800
000F803000
000F807000
000F807000
001F00F000
001FFFE000
001FFFE000
003FFFE000
003E03E000
003E01E000
003E01C000
007E00C000
007C00C000
007C00C000
007C01C000
00FC000000
00F8000000
00F8000070
00F8000070
01F00000E0
01F00000E0
01F00001C0
03F00003C0
03F00007C0
07F8001F80
0FFE00FF80
FFFFFFFF80
FFFFFFFF00
ENDCHAR
STARTCHAR 00CB
ENCODING 203
SWIDTH 730 0
DWIDTH 38 0
BBX 38 50 -1 0
BITMAP
0000070380
00000F87C0
00001F87C0
00001F07C0
00000E0700
0000000000
0000000000
0000000000
0000000000
0000000000
007FFFFFFC
007FFFFFFC
007FFFFFFC
0007F001FC
0003F0007C
0003E0003C
0003E0003C
0003E0001C
0007E0001C
0007C0001C
0007C0000C
0007C00000
000FC03800
000F803000
000F807000
000F807000
001F00F000
001FFFE000
001FFFE000
003FFFE000
003E03E000
003E01E000
003E01C000
007E00C000
007C00C000
007C00C000
007C01C000
00FC000000
00F8000000
00F8000070
00F8000070
01F00000E0
01F00000E0
01F00001C0
03F00003C0
03F00007C0
07F8001F80
0FFE00FF80
FFFFFFFF80
FFFFFFFF00
ENDCHAR
STARTCHAR 00CC
ENCODING 204
SWIDTH 423 0
DWIDTH 22 0
BBX 26 50 -1 0
BITMAP
00070000
000FC000
000FE000
0007F800
0001FC00
00001F00
00000000
00000000
00000000
00000000
007FFFC0
007FFFC0
007FFFC0
0003FC00
0003F800
0003F000
0003E000
0003E000
0007E000
0007E000
0007C000
0007C000
000FC000
000F8000
000F8000
000F8000
001F8000
001F0000
001F0000
003F0000
003F0000
003E0000
003E0000
007E0000
007C0000
007C0000
007C0000
00FC0000
00F80000
00F80000
01F80000
01F80000
01F00000
01F00000
03F00000
03F00000
07F00000
1FFC0000
FFFF8000
FFFF0000
ENDCHAR
STARTCHAR 00CD
ENCODING 205
SWIDTH 423 0
DWIDTH 22 0
BBX 28 50 -1 0
BITMAP
000000E0
000003F0
00000FE0
00003FC0
0000FE00
0007E000
00000000
00000000
00000000
00000000
007FFFC0
007FFFC0
007FFFC0
0003FC00
0003F800
0003F000
0003E000
0003E000
0007E000
0007C000
0007C000
0007C000
000FC000
000F8000
000F8000
001F8000
001F8000
001F0000
001F0000
003F0000
003E0000
003E0000
003E0000
007E0000
007C0000
007C0000
00FC0000
00FC0000
00F80000
00F80000
01F80000
01F80000
01F00000
03F00000
03F00000
07F00000
0FF80000
FFFF8000
FFFF8000
FFFF0000
ENDCHAR
STARTCHAR 00CE
ENCODING 206
SWIDTH 423 0
DWIDTH 22 0
BBX 27 50 -1 0
BITMAP
00007F00
0000FF00
0001FF80
0007EFC0
000F03C0
003C00E0
00000000
00000000
00000000
00000000
007FFFC0
007FFFC0
007FFFC0
0003FC00
0003F800
0003F000
0003E000
0003E000
0007E000
0007C000
0007C000
0007C000
000FC000
000F8000
000F8000
001F8000
001F8000
001F0000
001F0000
003F0000
003E0000
003E0000
003E0000
007E0000
007C0000
007C0000
00FC0000
00FC0000
00F80000
00F80000
01F80000
01F80000
01F00000
03F00000
03F00000
07F00000
0FF80000
FFFF8000
FFFF8000
FFFF0000
ENDCHAR
STARTCHAR 00CF
ENCODING 207
SWIDTH 423 0
DWIDTH 22 0
BBX 28 50 -1 0
BITMAP
0003C0E0
0007C1F0
0007C3E0
0007C3E0
000701C0
00000000
00000000
00000000
00000000
00000000
007FFFC0
007FFFC0
007FFFC0
0003FC00
0003F800
0003F000
0003E000
0003E000
0007E000
0007C000
0007C000
0007C000
000FC000
000F8000
000F8000
001F8000
001F8000
001F0000
001F0000
003F0000
003E0000
003E0000
003E0000
007E0000
007C0000
007C0000
00FC0000
00FC0000
00F80000
00F80000
01F80000
01F80000
01F00000
03F00000
03F00000
07F00000
0FF80000
FFFF8000
FFFF8000
FFFF0000
ENDCHAR
STARTCHAR 00D0
ENCODING 208
SWIDTH 846 0
DWIDTH 44 0
BBX 43 40 -1 0
BITMAP
003FFFF80000
007FFFFF8000
0007FFFFE000
0003F007F000
0003F001FC00
0003F000FE00
0003E0007E00
0003E0003F00
0007E0001F80
0007C0001F80
0007C0000F80
0007C0000FC0
000FC0000FC0
000F80000FC0
000F80000FC0
001F800007E0
001F800007E0
001F000007E0
03FFFC000FE0
03FFFC000FC0
07FFF8000FC0
003E00000FC0
003E00000FC0
007E00001FC0
007C00001F80
007C00001F80
007C00003F00
00FC00003F00
00F800007E00
00F800007E00
00F80000FC00
01F80001F800
01F00003F800
01F00007F000
03F0000FE000
03F8003F8000
07F800FF0000
FFFFFFFC0000
FFFFFFF00000
FFFFFF000000
ENDCHAR
STARTCHAR 00D1
ENCODING 209
SWIDTH 846 0
DWIDTH 44 0
BBX 47 50 0 0
BITMAP
000000F00C00
000003FC0C00
000007FF1800
000007FFF800
0000063FF000
00000C0FF000
00000C03C000
000000000000
000000000000
000000000000
03FFE0003FFE
03FFE0003FFE
03FFF0007FFE
001FF0000FF0
000FF80007E0
0007F80007C0
0007F8000380
0007FC000380
0007FC000780
00077E000700
00077E000700
00073F000700
000E3F000F00
000E3F800E00
000E1F800E00
001E1F800E00
001C0FC01E00
001C0FC01C00
001C07E01C00
003C07E01C00
003803F03800
003803F03800
003803F03800
007001F83800
007001F87000
007000FC7000
00F000FC7000
00E0007E7000
00E0007EE000
00E0003EE000
01E0003FE000
01C0003FE000
01C0001FC000
03C0001FC000
03C0000FC000
07E0000F8000
0FE000078000
FFFE00078000
FFFE00078000
FFFE00030000
ENDCHAR
STARTCHAR 00D2
ENCODING 210
SWIDTH 826 0
DWIDTH 43 0
BBX 37 51 4 -1
BITMAP
0000780000
0000FC0000
0000FF0000
00007F8000
00000FC000
000001F000
0000000800
0000000000
0000000000
0000020000
0000FFF000
0003FFFC00
000FE07E00
003F001F00
007E000F80
00F80007C0
01F80007E0
03F00003E0
07E00003F0
0FC00003F0
0FC00003F0
1F800003F0
1F800003F8
3F000003F8
3F000003F8
7E000003F8
7E000003F8
7E000003F8
FE000003F8
FE000003F0
FC000003F0
FC000003F0
FC000003F0
FC000007F0
FC000007E0
FC000007E0
FC00000FC0
FC00000FC0
FC00000F80
FE00001F80
7E00001F00
7E00003E00
7E00007E00
3F0000FC00
1F0001F800
1F8003F000
0FC007C000
07F01F8000
01FFFE0000
007FF80000
0002000000
ENDCHAR
STARTCHAR 00D3
ENCODING 211
SWIDTH 826 0
DWIDTH 43 0
BBX 37 51 4 -1
BITMAP
0000000F00
0000003F00
000000FF00
000003FC00
000007E000
00003E0000
0000000000
0000000000
0000000000
0000020000
0000FFF000
0003FFFC00
000FE07E00
003F001F00
007E000F80
00F80007C0
01F80007E0
03F00003E0
07E00003F0
0FC00003F0
0FC00003F0
1F800003F0
1F800003F8
3F000003F8
3F000003F8
7E000003F8
7E000003F8
7E000003F8
FE000003F8
FE000003F0
FC000003F0
FC000003F0
FC000003F0
FC000007F0
FC000007E0
FC000007E0
FC00000FC0
FC00000FC0
FC00000F80
FE00001F80
7E00001F00
7E00003E00
7E00007E00
3F0000FC00
1F0001F800
1F8003F000
0FC007C000
07F01F8000
01FFFE0000
007FF80000
0002000000
ENDCHAR
STARTCHAR 00D4
ENCODING 212
SWIDTH 826 0
DWIDTH 43 0
BBX 37 51 4 -1
BITMAP
000003F800
000007F800
00001FFC00
00003F7E00
0000781E00
0001E00700
0000000000
0000000000
0000000000
0000020000
0000FFF000
0003FFFC00
000FE07E00
003F001F00
007E000F80
00F80007C0
01F80007E0
03F00003E0
07E00003F0
0FC00003F0
0FC00003F0
1F800003F0
1F800003F8
3F000003F8
3F000003F8
7E000003F8
7E000003F8
7E000003F8
FE000003F8
FE000003F0
FC000003F0
FC000003F0
FC000003F0
FC000007F0
FC000007E0
FC000007E0
FC00000FC0
FC00000FC0
FC00000F80
FE00001F80
7E00001F00
7E00003E00
7E00007E00
3F0000FC00
1F0001F800
1F8003F000
0FC007C000
07F01F8000
01FFFE0000
007FF80000
0002000000
ENDCHAR
STARTCHAR 00D5
ENCODING 213
SWIDTH 826 0
DWIDTH 43 0
BBX 37 51 4 -1
BITMAP
00001F00C0
00003FC180
00007FF180
00007FFF80
0000E3FF00
0000C0FE00
0000C03C00
0000000000
0000000000
0000020000
0000FFF000
0003FFFC00
000FE07E00
003F001F00
007E000F80
00F80007C0
01F80007E0
03F00003E0
07E00003F0
0FC00003F0
0FC00003F0
1F800003F0
1F800003F8
3F000003F8
3F000003F8
7E000003F8
7E000003F8
7E000003F8
FE000003F8
FE000003F0
FC000003F0
FC000003F0
FC000003F0
FC000007F0
FC000007E0
FC000007E0
FC00000FC0
FC00000FC0
FC00000F80
FE00001F80
7E00001F00
7E00003E00
7E00007E00
3F0000FC00
1F0001F800
1F8003F000
0FC007C000
07F01F8000
01FFFE0000
007FF80000
0002000000
ENDCHAR
STARTCHAR 00D6
ENCODING 214
SWIDTH 826 0
DWIDTH 43 0
BBX 37 51 4 -1
BITMAP
00001C0700
00003E0F80
00003E1F00
00003C1F00
0000380E00
0000000000
0000000000
0000000000
0000000000
0000020000
0000FFF000
0003FFFC00
000FE07E00
003F001F00
007E000F80
00F80007C0
01F80007E0
03F00003E0
07E00003F0
0FC00003F0
0FC00003F0
1F800003F0
1F800003F8
3F000003F8
3F000003F8
7E000003F8
7E000003F8
7E000003F8
FE000003F8
FE000003F0
FC000003F0
FC000003F0
FC000003F0
FC000007F0
FC000007E0
FC000007E0
FC00000FC0
FC00000FC0
FC00000F80
FE00001F80
7E00001F00
7E00003E00
7E00007E00
3F0000FC00
1F0001F800
1F8003F000
0FC007C000
07F01F8000
01FFFE0000
007FF80000
0002000000
ENDCHAR
STARTCHAR 00D7
ENCODING 215
SWIDTH 538 0
DWIDTH 28 0
BBX 20 20 4 8
BITMAP
000020
600060
F000F0
7801E0
3C03C0
1E0780
0F0F00
079E00
03FC00
01F800
00F000
01F800
03FC00
079E00
0F0F00
1E0780
3C03C0
7801E0
F000F0
600060
ENDCHAR
STARTCHAR 00D8
ENCODING 216
SWIDTH 826 0
DWIDTH 43 0
BBX 41 46 2 -3
BITMAP
000000000780
000000000E00
000000801E00
00003FFC3C00
0000FFFF7800
0003F81FF000
000FC007F000
001F8003E000
003F0003F000
007C0003F000
00FC0007F800
01F8000FF800
01F0001EFC00
03F0001CFC00
07E00038FC00
07E00078FE00
0FC000F0FE00
0FC001E0FE00
1F8001C0FE00
1F800380FE00
1F800780FE00
1F800F00FE00
3F801E00FE00
3F001C00FC00
3F003800FC00
3F007800FC00
3F00F001FC00
3F01E001F800
3F01C001F800
3F038003F000
3F078003F000
3F0F0003E000
3F8E0007E000
1F9C0007C000
1FB8000F8000
1FF8001F8000
0FF0003F0000
0FE0003E0000
07E000FC0000
03F001F00000
07FC07E00000
0FFFFF800000
1E3FFE000000
1C0080000000
380000000000
F00000000000
ENDCHAR
STARTCHAR 00D9
ENCODING 217
SWIDTH 807 0
DWIDTH 42 0
BBX 40 51 6 -1
BITMAP
0000E00000
0001F80000
0001FC0000
0001FF0000
00003F8000
000003E000
0000000000
0000000000
0000000000
0000000000
7FFF803FFF
FFFF807FFE
FFFF807FFE
0FF00007E0
07F00003E0
07E00003C0
07E00003C0
07C00003C0
07C0000380
0FC0000380
0F80000380
0F80000380
1F80000780
1F80000700
1F00000700
1F00000700
3F00000700
3F00000E00
3E00000E00
3E00000E00
7E00000E00
7C00001E00
7C00001C00
7C00001C00
FC00001C00
F800003800
F800003800
F800003800
F800007000
F800007000
F80000E000
F80000E000
FC0001C000
7C0003C000
7C00078000
3E000F0000
3F001E0000
1FC07C0000
0FFFF80000
03FFE00000
000C000000
ENDCHAR
STARTCHAR 00DA
ENCODING 218
SWIDTH 807 0
DWIDTH 42 0
BBX 40 51 6 -1
BITMAP
0000001C00
0000007E00
000001FC00
000007F800
00001FC000
0000FC0000
0000000000
0000000000
0000000000
0000000000
7FFF803FFF
FFFF807FFE
FFFF807FFE
0FF00007E0
07F00003E0
07E00003C0
07E00003C0
07C00003C0
07C0000380
0FC0000380
0F80000380
0F80000380
1F80000780
1F80000700
1F00000700
1F00000700
3F00000700
3F00000E00
3E00000E00
3E00000E00
7E00000E00
7C00001E00
7C00001C00
7C00001C00
FC00001C00
F800003800
F800003800
F800003800
F800007000
F800007000
F80000E000
F80000E000
FC0001C000
7C0003C000
7C00078000
3E000F0000
3F001E0000
1FC07C0000
0FFFF80000
03FFE00000
000C000000
ENDCHAR
STARTCHAR 00DB
ENCODING 219
SWIDTH 807 0
DWIDTH 42 0
BBX 40 51 6 -1
BITMAP
00001FC000
00003FE000
00007FF000
0000F9F000
0001E07800
0007001C00
0000000000
0000000000
0000000000
0000000000
7FFF803FFF
FFFF807FFE
FFFF807FFE
0FF00007E0
07F00003E0
07E00003C0
07E00003C0
07C00003C0
07C0000380
0FC0000380
0F80000380
0F80000380
1F80000780
1F80000700
1F00000700
1F00000700
3F00000700
3F00000E00
3E00000E00
3E00000E00
7E00000E00
7C00001E00
7C00001C00
7C00001C00
FC00001C00
F800003800
F800003800
F800003800
F800007000
F800007000
F80000E000
F80000E000
FC0001C000
7C0003C000
7C00078000
3E000F0000
3F001E0000
1FC07C0000
0FFFF80000
03FFE00000
000C000000
ENDCHAR
STARTCHAR 00DC
ENCODING 220
SWIDTH 807 0
DWIDTH 42 0
BBX 40 51 6 -1
BITMAP
0000F03800
0001F07C00
0001F0FC00
0001F0F800
0001E07000
0000000000
0000000000
0000000000
0000000000
0000000000
7FFF803FFF
FFFF807FFE
FFFF807FFE
0FF00007E0
07F00003E0
07E00003C0
07E00003C0
07C00003C0
07C0000380
0FC0000380
0F80000380
0F80000380
1F80000780
1F80000700
1F00000700
1F00000700
3F00000700
3F00000E00
3E00000E00
3E00000E00
7E00000E00
7C00001E00
7C00001C00
7C00001C00
FC00001C00
F800003800
F800003800
F800003800
F800007000
F800007000
F80000E000
F80000E000
FC0001C000
7C0003C000
7C00078000
3E000F0000
3F001E0000
1FC07C0000
0FFFF80000
03FFE00000
000C000000
ENDCHAR
STARTCHAR 00DD
ENCODING 221
SWIDTH 692 0
DWIDTH 36 0
BBX 36 50 5 0
BITMAP
000000F000
000003F000
00000FF000
00001FE000
00007F0000
0003E00000
0000000000
0000000000
0000000000
0000000000
FFFE01FFF0
FFFE03FFE0
FFFC03FFE0
1FE0007F00
0FE0003E00
07E0003C00
07E0007800
03F0007000
03F000F000
01F001E000
01F801C000
00F8038000
00FC078000
00FC070000
007E0E0000
007E1E0000
003E1C0000
003F380000
001F700000
001FF00000
001FE00000
000FC00000
000FC00000
000F800000
000F800000
000F800000
001F800000
001F000000
001F000000
003F000000
003F000000
003E000000
003E000000
007E000000
007E000000
00FE000000
01FE000000
3FFFF00000
3FFFF00000
3FFFF00000
ENDCHAR
STARTCHAR 00DE
ENCODING 222
SWIDTH 711 0
DWIDTH 37 0
BBX 38 40 -2 0
BITMAP
001FFFF800
003FFFF800
003FFFF800
0001FC0000
0001F80000
0001F80000
0001F00000
0001F00000
0003F00000
0003FFFC00
0003FFFF80
0007FFFFE0
0007E007F0
0007C003F8
0007C001F8
000FC001F8
000FC001FC
000F8001FC
000F8001FC
001F8001FC
001F8001FC
001F0003F8
003F0003F8
003F0007F0
003E0007F0
003E001FE0
007E003FC0
007E00FF00
007FFFFE00
007FFFF000
00FFFF8000
00FC000000
00F8000000
01F8000000
01F8000000
03F8000000
07F8000000
7FFFE00000
FFFFE00000
FFFFE00000
ENDCHAR
STARTCHAR 00DF
ENCODING 223
SWIDTH 576 0
DWIDTH 30 0
BBX 41 57 -12 -14
BITMAP
00000007F000
0000001FFC00
0000003FFF00
000000701F00
000000F00F80
000001E00F80
000003E00F80
000003C00F80
000007C00F80
000007800F80
00000F800F80
00000F801F80
00000F801F00
00000F001F00
00001F003E00
00001F007C00
00001F00F800
00001E03E000
00003E3F8000
00003E3FC000
00003E3FF000
00003E01F800
00007C00FC00
00007C007C00
00007C007E00
00007C003E00
0000F8003E00
0000F8003E00
0000F8003E00
0000F8003E00
0001F0003E00
0001F0003E00
0001F0007E00
0001F0007C00
0003E0007C00
0003E0007800
0003E000F800
0003E380F000
0007C781E000
0007C783C000
0007C7878000
0007C7FF0000
000F83FC0000
000F80400000
000F80000000
000F00000000
001F00000000
001F00000000
001E00000000
001E00000000
703C00000000
F83C00000000
F87800000000
FCF000000000
7FE000000000
3FC000000000
040000000000
ENDCHAR
STARTCHAR 00E0
ENCODING 224
SWIDTH 576 0
DWIDTH 30 0
BBX 27 43 1 -1
BITMAP
00020000
000F8000
000FC000
000FC000
0007E000
0001F000
00007800
00001C00
00000000
00000000
00000000
00000000
00000000
00000000
0007C3C0
001FE7C0
007FF780
00F83F80
01F03F00
03E03F00
07C03F00
0F803E00
0F803E00
1F003E00
1E003C00
3E007C00
3C007C00
7C007800
7C00F800
F800F800
F801F000
F801F000
F803F000
F007F040
F007E0E0
F80FE1C0
F81DE180
F839E380
FFF9FF00
FFF1FE00
7FC1FC00
3F81F000
04004000
ENDCHAR
STARTCHAR 00E1
ENCODING 225
SWIDTH 576 0
DWIDTH 30 0
BBX 27 43 1 -1
BITMAP
00000100
000007C0
00000FC0
00001F80
00003F00
0000FC00
0001E000
00038000
00000000
00000000
00000000
00000000
00000000
00000000
0007C3C0
001FE7C0
007FF780
00F83F80
01F03F00
03E03F00
07C03F00
0F803E00
0F803E00
1F003E00
1E003C00
3E007C00
3C007C00
7C007800
7C00F800
F800F800
F801F000
F801F000
F803F000
F007F040
F007E0E0
F80FE1C0
F81DE180
F839E380
FFF9FF00
FFF1FE00
7FC1FC00
3F81F000
04004000
ENDCHAR
STARTCHAR 00E2
ENCODING 226
SWIDTH 576 0
DWIDTH 30 0
BBX 27 42 1 -1
BITMAP
00007800
0000FC00
0003FE00
0007FE00
000F0F00
001C0780
007001C0
00000000
00000000
00000000
00000000
00000000
00000000
0007C3C0
001FE7C0
007FF780
00F83F80
01F03F00
03E03F00
07C03F00
0F803E00
0F803E00
1F003E00
1E003C00
3E007C00
3C007C00
7C007800
7C00F800
F800F800
F801F000
F801F000
F803F000
F007F040
F007E0E0
F80FE1C0
F81DE180
F839E380
FFF9FF00
FFF1FE00
7FC1FC00
3F81F000
04004000
ENDCHAR
STARTCHAR 00E3
ENCODING 227
SWIDTH 576 0
DWIDTH 30 0
BBX 27 41 1 -1
BITMAP
0007C060
001FF860
001FFFC0
003FFFC0
0030FF80
00601F00
00000000
00000000
00000000
00000000
00000000
00000000
0007C3C0
001FE7C0
007FF780
00F83F80
01F03F00
03E03F00
07C03F00
0F803E00
0F803E00
1F003E00
1E003C00
3E007C00
3C007C00
7C007800
7C00F800
F800F800
F801F000
F801F000
F803F000
F007F040
F007E0E0
F80FE1C0
F81DE180
F839E380
FFF9FF00
FFF1FE00
7FC1FC00
3F81F000
04004000
ENDCHAR
STARTCHAR 00E4
ENCODING 228
SWIDTH 576 0
DWIDTH 30 0
BBX 27 41 1 -1
BITMAP
00070380
000F8FC0
001F8FC0
001F9F80
001F0F80
000E0F00
00000000
00000000
00000000
00000000
00000000
00000000
0007C3C0
001FE7C0
007FF780
00F83F80
01F03F00
03E03F00
07C03F00
0F803E00
0F803E00
1F003E00
1E003C00
3E007C00
3C007C00
7C007800
7C00F800
F800F800
F801F000
F801F000
F803F000
F007F040
F007E0E0
F80FE1C0
F81DE180
F839E380
FFF9FF00
FFF1FE00
7FC1FC00
3F81F000
04004000
ENDCHAR
STARTCHAR 00E5
ENCODING 229
SWIDTH 576 0
DWIDTH 30 0
BBX 27 44 1 -1
BITMAP
00007C00
0000FE00
0001FE00
00030600
00030600
00030C00
0003FC00
0003F800
0001E000
00000000
00000000
00000000
00000000
00000000
00000000
0007C3C0
001FE7C0
007FF780
00F83F80
01F03F00
03E03F00
07C03F00
0F803E00
0F803E00
1F003E00
1E003C00
3E007C00
3C007C00
7C007800
7C00F800
F800F800
F801F000
F801F000
F803F000
F007F040
F007E0E0
F80FE1C0
F81DE180
F839E380
FFF9FF00
FFF1FE00
7FC1FC00
3F81F000
04004000
ENDCHAR
STARTCHAR 00E6
ENCODING 230
SWIDTH 750 0
DWIDTH 39 0
BBX 38 30 1 -1
BITMAP
000003C000
0007C3C7E0
001FE79FF0
007FF7BFF8
00F83FF07C
01F03FE07C
03E03FC07C
07C03F80F8
0F803F00F8
0F803F01F0
1F003E03E0
1E003E07C0
3E007C0F80
3C007C1F00
7C007C7C00
7C00FBF000
F800FFC000
F800FE0000
F801F80000
F803F00000
F003F00000
F007F00080
F80FF801C0
F81EF80380
F83CF80700
FFF8FC0E00
FFF07F7C00
7FE03FF800
3F801FE000
0C00020000
ENDCHAR
STARTCHAR 00E7
ENCODING 231
SWIDTH 442 0
DWIDTH 23 0
BBX 21 42 1 -14
BITMAP
0007C0
001FF0
007FF8
00F0F8
01E0F8
03C0F8
07C0F8
0F8030
0F0000
1F0000
3E0000
3E0000
7E0000
7C0000
7C0000
FC0000
FC0000
F80000
F80000
F800C0
F801C0
F80180
F80380
FC0700
7C0E00
7FFC00
3FF800
1FF000
03C000
038000
070000
070000
0FE000
1FF000
00F800
00F800
E0F800
E0F000
F1E000
FFE000
7F8000
080000
ENDCHAR
STARTCHAR 00E8
ENCODING 232
SWIDTH 461 0
DWIDTH 24 0
BBX 22 43 1 -1
BITMAP
000400
000F00
001F80
001FC0
0007E0
0001F0
0000F8
00003C
000000
000000
000000
000000
000000
000000
0007E0
001FF8
007FF8
00F87C
01E07C
03C07C
07C07C
0F80F8
0F00F8
1F01F0
3E03E0
3E07C0
7C0F00
7C3E00
7CF800
FFE000
FF0000
F80000
F80000
F80000
F80080
F800C0
F801C0
F80380
7C0700
7E1E00
3FFC00
1FF000
010000
ENDCHAR
STARTCHAR 00E9
ENCODING 233
SWIDTH 461 0
DWIDTH 24 0
BBX 25 43 1 -1
BITMAP
00000100
00000780
00001F80
00003F80
00007E00
0000F800
0001E000
00078000
00000000
00000000
00000000
00000000
00000000
00000000
0007E000
001FF800
007FF800
00F87C00
01E07C00
03C07C00
07C07C00
0F80F800
0F00F800
1F01F000
3E03E000
3E07C000
7C0F0000
7C3E0000
7CF80000
FFE00000
FF000000
F8000000
F8000000
F8000000
F8008000
F800C000
F801C000
F8038000
7C070000
7E1E0000
3FFC0000
1FF00000
01000000
ENDCHAR
STARTCHAR 00EA
ENCODING 234
SWIDTH 461 0
DWIDTH 24 0
BBX 25 42 1 -1
BITMAP
0000F800
0001FC00
0003FC00
0007FE00
001F1F00
003C0700
00F00380
00000000
00000000
00000000
00000000
00000000
00000000
0007E000
001FF800
007FF800
00F87C00
01E07C00
03C07C00
07C07C00
0F80F800
0F00F800
1F01F000
3E03E000
3E07C000
7C0F0000
7C3E0000
7CF80000
FFE00000
FF000000
F8000000
F8000000
F8000000
F8008000
F800C000
F801C000
F8038000
7C070000
7E1E0000
3FFC0000
1FF00000
01000000
ENDCHAR
STARTCHAR 00EB
ENCODING 235
SWIDTH 461 0
DWIDTH 24 0
BBX 25 41 1 -1
BITMAP
000F0700
001F0F80
001F9F80
003F1F80
003F1F00
001C0E00
00000000
00000000
00000000
00000000
00000000
00000000
0007E000
001FF800
007FF800
00F87C00
01E07C00
03C07C00
07C07C00
0F80F800
0F00F800
1F01F000
3E03E000
3E07C000
7C0F0000
7C3E0000
7CF80000
FFE00000
FF000000
F8000000
F8000000
F8000000
F8008000
F800C000
F801C000
F8038000
7C070000
7E1E0000
3FFC0000
1FF00000
01000000
ENDCHAR
STARTCHAR 00EC
ENCODING 236
SWIDTH 346 0
DWIDTH 18 0
BBX 17 43 1 -1
BITMAP
008000
01E000
03F000
03F800
00FC00
003E00
001F00
000780
000000
000000
000000
000000
000000
000000
00F000
03F800
07F800
0FF800
1DF800
39F800
71F000
61F000
C1F000
03E000
03E000
03E000
07C000
07C000
07C000
0F8000
0F8000
1F8000
1F0000
1F0400
3E0600
3E0C00
3E1800
3E3800
3FF000
3FE000
3FC000
3F0000
080000
ENDCHAR
STARTCHAR 00ED
ENCODING 237
SWIDTH 346 0
DWIDTH 18 0
BBX 20 43 1 -1
BITMAP
000020
0000F0
0003F0
0007F0
000FC0
001F00
003C00
00F000
000000
000000
000000
000000
000000
000000
00F000
03F800
07F800
0FF800
1DF800
39F800
71F000
61F000
C1F000
03E000
03E000
03E000
07C000
07C000
07C000
0F8000
0F8000
1F8000
1F0000
1F0400
3E0600
3E0C00
3E1800
3E3800
3FF000
3FE000
3FC000
3F0000
080000
ENDCHAR
STARTCHAR 00EE
ENCODING 238
SWIDTH 346 0
DWIDTH 18 0
BBX 20 42 1 -1
BITMAP
001F00
003F80
007F80
00FFC0
03E3E0
0780E0
1E0070
000000
000000
000000
000000
000000
000000
00F000
03F800
07F800
0FF800
1DF800
39F800
71F000
61F000
C1F000
03E000
03E000
03E000
07C000
07C000
07C000
0F8000
0F8000
1F8000
1F0000
1F0400
3E0600
3E0C00
3E1800
3E3800
3FF000
3FE000
3FC000
3F0000
080000
ENDCHAR
STARTCHAR 00EF
ENCODING 239
SWIDTH 346 0
DWIDTH 18 0
BBX 20 41 1 -1
BITMAP
01E0E0
03E1F0
03F3F0
07E3F0
07E3E0
0381C0
000000
000000
000000
000000
000000
000000
00F000
03F800
07F800
0FF800
1DF800
39F800
71F000
61F000
C1F000
03E000
03E000
03E000
07C000
07C000
07C000
0F8000
0F8000
1F8000
1F0000
1F0400
3E0600
3E0C00
3E1800
3E3800
3FF000
3FE000
3FC000
3F0000
080000
ENDCHAR
STARTCHAR 00F0
ENCODING 240
SWIDTH 576 0
DWIDTH 30 0
BBX 29 42 1 -1
BITMAP
00080010
001E0078
000FC1F0
0003F7C0
0000FF00
00007C00
0001FE00
0007DF00
001F1F80
003C0F80
00300FC0
000007C0
000007C0
000007E0
000007E0
000FC3E0
007FF3E0
01FFFBE0
03F03BE0
07E01FE0
0FC01FE0
1F800FE0
1F800FE0
3F000FE0
3F000FE0
7F000FE0
7E001FC0
7E001FC0
FE001FC0
FE001F80
FC001F80
FC003F00
FC003F00
FC007E00
FC007C00
7E00F800
7E01F000
3E03E000
3F07C000
1FFF8000
07FE0000
00400000
ENDCHAR
STARTCHAR 00F1
ENCODING 241
SWIDTH 634 0
DWIDTH 33 0
BBX 30 41 1 -1
BITMAP
0007C030
000FF860
001FFFE0
001FFFE0
00387FC0
00300F80
00000000
00000000
00000000
00000000
00000000
00000000
01E00F80
07F03FE0
0FF0FFE0
1CF1E3E0
18F383F0
30F303E0
60F703E0
61FE03E0
41EC03E0
C1F807C0
C3F807C0
03F007C0
03F00F80
03E00F80
07E01F80
07C01F00
07C01F00
0F803F00
0F803E00
0F803E08
1F007E1C
1F007C38
1F007C70
3E007CE0
3E007FC0
3C007F80
7C007F00
7C003E00
00001000
ENDCHAR
STARTCHAR 00F2
ENCODING 242
SWIDTH 519 0
DWIDTH 27 0
BBX 24 43 1 -1
BITMAP
000400
001F00
001F80
001F80
000FC0
0003E0
0000F0
000038
000000
000000
000000
000000
000000
000000
000FC0
003FF0
00FFF8
01F83C
03F03C
07E01E
0FC01E
0F801F
1F801F
3F001F
3F001F
7E003F
7E003F
7E003E
7E003E
FC007E
FC007C
FC007C
FC00FC
FC00F8
FC01F0
7C01F0
7C03E0
7C07C0
3C0F80
1E1F00
1FFE00
07F800
008000
ENDCHAR
STARTCHAR 00F3
ENCODING 243
SWIDTH 519 0
DWIDTH 27 0
BBX 25 43 1 -1
BITMAP
00000200
00000F80
00001F80
00003F00
00007E00
0001F800
0003C000
00070000
00000000
00000000
00000000
00000000
00000000
00000000
000FC000
003FF000
00FFF800
01F83C00
03F03C00
07E01E00
0FC01E00
0F801F00
1F801F00
3F001F00
3F001F00
7E003F00
7E003F00
7E003E00
7E003E00
FC007E00
FC007C00
FC007C00
FC00FC00
FC00F800
FC01F000
7C01F000
7C03E000
7C07C000
3C0F8000
1E1F0000
1FFE0000
07F80000
00800000
ENDCHAR
STARTCHAR 00F4
ENCODING 244
SWIDTH 519 0
DWIDTH 27 0
BBX 26 42 1 -1
BITMAP
00007C00
0000FE00
0001FE00
0003FF00
000F8F80
001E0380
007801C0
00000000
00000000
00000000
00000000
00000000
00000000
000FC000
003FF000
00FFF800
01F83C00
03F03C00
07E01E00
0FC01E00
0F801F00
1F801F00
3F001F00
3F001F00
7E003F00
7E003F00
7E003E00
7E003E00
FC007E00
FC007C00
FC007C00
FC00FC00
FC00F800
FC01F000
7C01F000
7C03E000
7C07C000
3C0F8000
1E1F0000
1FFE0000
07F80000
00800000
ENDCHAR
STARTCHAR 00F5
ENCODING 245
SWIDTH 519 0
DWIDTH 27 0
BBX 26 41 1 -1
BITMAP
000F80C0
003FF0C0
003FFF80
007FFF80
0061FF00
00C03E00
00000000
00000000
00000000
00000000
00000000
00000000
000FC000
003FF000
00FFF800
01F83C00
03F03C00
07E01E00
0FC01E00
0F801F00
1F801F00
3F001F00
3F001F00
7E003F00
7E003F00
7E003E00
7E003E00
FC007E00
FC007C00
FC007C00
FC00FC00
FC00F800
FC01F000
7C01F000
7C03E000
7C07C000
3C0F8000
1E1F0000
1FFE0000
07F80000
00800000
ENDCHAR
STARTCHAR 00F6
ENCODING 246
SWIDTH 519 0
DWIDTH 27 0
BBX 26 41 1 -1
BITMAP
00078380
000F87C0
001F8FC0
001F8FC0
001F8F80
000E0700
00000000
00000000
00000000
00000000
00000000
00000000
000FC000
003FF000
00FFF800
01F83C00
03F03C00
07E01E00
0FC01E00
0F801F00
1F801F00
3F001F00
3F001F00
7E003F00
7E003F00
7E003E00
7E003E00
FC007E00
FC007C00
FC007C00
FC00FC00
FC00F800
FC01F000
7C01F000
7C03E000
7C07C000
3C0F8000
1E1F0000
1FFE0000
07F80000
00800000
ENDCHAR
STARTCHAR 00F7
ENCODING 247
SWIDTH 596 0
DWIDTH 31 0
BBX 24 25 4 5
BITMAP
003C00
007E00
007E00
007E00
007E00
007E00
003C00
000000
000000
000000
000000
FFFFFF
FFFFFF
FFFFFF
000000
000000
000000
000000
003C00
007E00
007E00
007E00
007E00
007E00
003C00
ENDCHAR
STARTCHAR 00F8
ENCODING 248
SWIDTH 519 0
DWIDTH 27 0
BBX 30 34 -2 -3
BITMAP
0000001C
00000038
00000078
0001F8F0
0007FFE0
001FFFC0
003F0780
007E0780
00FC0FC0
01F81FC0
01F01FE0
03F03BE0
07E07BE0
07E0F3E0
07C1E7E0
0FC1C7E0
0FC387C0
0FC787C0
1F8F0FC0
1F9E0F80
1F9C0F80
1FB81F80
1FF81F00
1FF03E00
0FE03E00
0FC07C00
0F80F800
07C1F000
0FC3E000
1FFFC000
1CFF0000
38100000
78000000
F0000000
ENDCHAR
STARTCHAR 00F9
ENCODING 249
SWIDTH 596 0
DWIDTH 31 0
BBX 28 43 1 -1
BITMAP
00020000
000F8000
000FC000
000FE000
0007E000
0001F000
00007800
00001C00
00000000
00000000
00000000
00000000
00000000
00000000
00F003E0
03F803E0
07F807C0
0FF807C0
1DF807C0
39F00F80
71F00F80
61F01F80
C3E01F00
03E01F00
07E03F00
07C03E00
07C03E00
0FC07E00
0F807C00
1F80FC00
1F01FC00
1F01F800
3F03F800
3E03F830
3E07F860
3E0EF060
7E1CF0C0
7E3CF1C0
7E78F380
3FF0FF00
3FE0FE00
1F80FC00
04002000
ENDCHAR
STARTCHAR 00FA
ENCODING 250
SWIDTH 596 0
DWIDTH 31 0
BBX 28 43 1 -1
BITMAP
00000100
000007C0
00000FC0
00001F80
00003F00
00007C00
0001E000
00038000
00000000
00000000
00000000
00000000
00000000
00000000
00F003E0
03F803E0
07F807C0
0FF807C0
1DF807C0
39F00F80
71F00F80
61F01F80
C3E01F00
03E01F00
07E03F00
07C03E00
07C03E00
0FC07E00
0F807C00
1F80FC00
1F01FC00
1F01F800
3F03F800
3E03F830
3E07F860
3E0EF060
7E1CF0C0
7E3CF1C0
7E78F380
3FF0FF00
3FE0FE00
1F80FC00
04002000
ENDCHAR
STARTCHAR 00FB
ENCODING 251
SWIDTH 596 0
DWIDTH 31 0
BBX 28 42 1 -1
BITMAP
00007C00
0000FC00
0003FE00
0007FF00
000F8F00
001E0780
007803C0
00000000
00000000
00000000
00000000
00000000
00000000
00F003E0
03F803E0
07F807C0
0FF807C0
1DF807C0
39F00F80
71F00F80
61F01F80
C3E01F00
03E01F00
07E03F00
07C03E00
07C03E00
0FC07E00
0F807C00
1F80FC00
1F01FC00
1F01F800
3F03F800
3E03F830
3E07F860
3E0EF060
7E1CF0C0
7E3CF1C0
7E78F380
3FF0FF00
3FE0FE00
1F80FC00
04002000
ENDCHAR
STARTCHAR 00FC
ENCODING 252
SWIDTH 596 0
DWIDTH 31 0
BBX 28 41 1 -1
BITMAP
00070380
000F8FC0
001F8FC0
001F8FC0
001F0F80
000E0F00
00000000
00000000
00000000
00000000
00000000
00000000
00F003E0
03F803E0
07F807C0
0FF807C0
1DF807C0
39F00F80
71F00F80
61F01F80
C3E01F00
03E01F00
07E03F00
07C03E00
07C03E00
0FC07E00
0F807C00
1F80FC00
1F01FC00
1F01F800
3F03F800
3E03F830
3E07F860
3E0EF060
7E1CF0C0
7E3CF1C0
7E78F380
3FF0FF00
3FE0FE00
1F80FC00
04002000
ENDCHAR
STARTCHAR 00FD
ENCODING 253
SWIDTH 519 0
DWIDTH 27 0
BBX 32 56 -6 -14
BITMAP
00000010
0000007C
000000FC
000001F8
000003F0
000007C0
00001F00
00003800
00000000
00000000
00000000
00000000
00000000
00000000
001E000E
003E001F
007F001F
007F001F
00FF801F
01FF801F
018F801F
0187C01E
0307C01E
0303C01E
0303C01C
0303E01C
0003E03C
0003E038
0001E038
0001E070
0001F070
0001F060
0001F0E0
0000F1C0
0000F9C0
0000FB80
0000FF80
0000FF00
00007E00
00007E00
00007C00
00007800
00007800
00007000
0000E000
0001C000
0001C000
00038000
00070000
700E0000
F81C0000
F8380000
FCF00000
7FE00000
3F800000
08000000
ENDCHAR
STARTCHAR 00FE
ENCODING 254
SWIDTH 538 0
DWIDTH 28 0
BBX 34 56 -8 -13
BITMAP
0001FFC000
0001FF8000
00003F8000
00001F0000
00001F0000
00001F0000
00003E0000
00003E0000
00003E0000
00003C0000
00007C0000
00007C0000
0000780000
0000F80000
0000F80000
0000F07C00
0001F3FF00
0001F7FF80
0001EF0FC0
0003FC07C0
0003F807C0
0003F807C0
0003F007C0
0007E007C0
0007E007C0
0007C007C0
000F800FC0
000F800F80
000F800F80
001F001F80
001F001F00
001F001F00
001E003E00
003E003E00
003E007C00
003E00F800
007E00F800
007E01F000
007E03E000
00FE07C000
00FF1F8000
00FFFE0000
00F7F80000
01F0800000
01F0000000
01F0000000
03E0000000
03E0000000
03E0000000
07E0000000
07C0000000
07C0000000
0FE0000000
FFFE000000
FFFE000000
FFFE000000
ENDCHAR
STARTCHAR 00FF
ENCODING 255
SWIDTH 519 0
DWIDTH 27 0
BBX 32 54 -6 -14
BITMAP
00007838
0000F87C
0001F8FC
0001F8FC
0001F8F8
0000E070
00000000
00000000
00000000
00000000
00000000
00000000
001E000E
003E001F
007F001F
007F001F
00FF801F
01FF801F
018F801F
0187C01E
0307C01E
0303C01E
0303C01C
0303E01C
0003E03C
0003E038
0001E038
0001E070
0001F070
0001F060
0001F0E0
0000F1C0
0000F9C0
0000FB80
0000FF80
0000FF00
00007E00
00007E00
00007C00
00007800
00007800
00007000
0000E000
0001C000
0001C000
00038000
00070000
700E0000
F81C0000
F8380000
FCF00000
7FE00000
3F800000
08000000
ENDCHAR
STARTCHAR 0100
ENCODING 256
SWIDTH 769 0
DWIDTH 40 0
BBX 49 48 -6 0
BITMAP
000000001FFF80
000000003FFF00
000000003FFF00
00000000000000
00000000000000
00000000000000
00000000000000
00000000000000
0000000007C000
000000000F8000
000000001F8000
000000003F8000
000000007F8000
000000007F8000
00000000FF0000
00000001FF0000
00000003DF0000
000000079F0000
0000000F1E0000
0000000E3E0000
0000001E3E0000
0000003C3E0000
000000783E0000
000000F07C0000
000001E07C0000
000003C07C0000
000003C07C0000
00000780F80000
00000F00F80000
00001E00F80000
00003FFFF80000
00007FFFF00000
00007FFFF00000
0000E001F00000
0001C001F00000
00038003F00000
00078003E00000
000F0003E00000
001E0003E00000
003C0003E00000
00380007C00000
00700007C00000
00E00007C00000
03E0000FC00000
07E0000FC00000
1FE0003FE00000
7FFC01FFFE0000
FFFC01FFFC0000
ENDCHAR
STARTCHAR 0101
ENCODING 257
SWIDTH 576 0
DWIDTH 30 0
BBX 27 40 1 -1
BITMAP
001FFFC0
001FFF80
001FFF80
00000000
00000000
00000000
00000000
00000000
00000000
00000000
00000000
0007C3C0
001FE7C0
007FF780
00F83F80
01F03F00
03E03F00
07C03F00
0F803E00
0F803E00
1F003E00
1E003C00
3E007C00
3C007C00
7C007800
7C00F800
F800F800
F801F000
F801F000
F803F000
F007F040
F007E0E0
F80FE1C0
F81DE180
F839E380
FFF9FF00
FFF1FE00
7FC1FC00
3F81F000
04004000
ENDCHAR
STARTCHAR 0102
ENCODING 258
SWIDTH 769 0
DWIDTH 40 0
BBX 50 50 -6 0
BITMAP
000000001C01C0
000000001E0780
000000000FFF80
000000000FFF00
0000000007FC00
0000000003F000
00000000000000
00000000000000
00000000000000
0000000007C000
0000000007C000
000000000F8000
000000001F8000
000000003F8000
000000007F8000
00000000FF8000
00000000EF0000
00000001FF0000
00000003DF0000
000000079F0000
0000000F1E0000
0000001E3E0000
0000001C3E0000
0000003C3E0000
000000783C0000
000000F07C0000
000001E07C0000
000003C07C0000
000007807C0000
00000780F80000
00000F00F80000
00001E00F80000
00003FFFF80000
00007FFFF00000
0000FFFFF00000
0000E001F00000
0001C001F00000
00038003F00000
00078003E00000
000F0003E00000
001E0003E00000
003C0003E00000
00380007C00000
00700007C00000
00E00007C00000
03E0000FC00000
07E0000FC00000
1FE0003FE00000
7FFC01FFFE0000
FFFC01FFFC0000
ENDCHAR
STARTCHAR 0103
ENCODING 259
SWIDTH 576 0
DWIDTH 30 0
BBX 27 41 1 -1
BITMAP
000C00C0
000C01C0
000F0780
000FFF00
000FFE00
0007FC00
0001F000
00000000
00000000
00000000
00000000
00000000
0007C3C0
001FE7C0
007FF780
00F83F80
01F03F00
03E03F00
07C03F00
0F803E00
0F803E00
1F003E00
1E003C00
3E007C00
3C007C00
7C007800
7C00F800
F800F800
F801F000
F801F000
F803F000
F007F040
F007E0E0
F80FE1C0
F81DE180
F839E380
FFF9FF00
FFF1FE00
7FC1FC00
3F81F000
04004000
ENDCHAR
STARTCHAR 0104
ENCODING 260
SWIDTH 769 0
DWIDTH 40 0
BBX 42 53 -6 -12
BITMAP
0000000003C0
0000000007C0
000000000F80
000000001F80
000000003F80
000000007F80
00000000FF80
00000000FF00
00000001EF00
00000003DF00
000000079F00
0000000F1E00
0000001E3E00
0000001E3E00
0000003C3E00
000000783C00
000000F07C00
000001E07C00
000003C07C00
000003C07C00
00000780F800
00000F00F800
00001E00F800
00003FFFF800
00007FFFF000
0000FFFFF000
0000E001F000
0001C001F000
00038003F000
00078003E000
000F0003E000
001E0003E000
003C0003E000
00380007C000
00700007C000
00E00007C000
03E0000FC000
07E0000FC000
1FE0003FE000
7FFC01FFFE00
FFFC01FFFC00
0000001E0000
000000780000
000000F00000
000001E00000
000003C00000
000003C00000
000003C00000
000007C0C000
000003C1E000
000003FFC000
000003FF0000
000000FC0000
ENDCHAR
STARTCHAR 0105
ENCODING 261
SWIDTH 576 0
DWIDTH 30 0
BBX 27 40 1 -12
BITMAP
0007C3C0
001FE7C0
007FF780
00F83F80
01F03F00
03E03F00
07C03F00
0F803E00
0F803E00
1F003E00
1E003C00
3E007C00
3C007C00
7C007800
7C00F800
F800F800
F801F000
F801F000
F803F000
F007F040
F007E0E0
F80FE0C0
F81DE180
F839E380
FFF9FF00
FFF1FE00
7FC1FC00
3F81F800
0403C000
000F0000
001E0000
003C0000
00780000
00780000
00780000
00781800
00783C00
007FF800
003FE000
001F8000
ENDCHAR
STARTCHAR 0106
ENCODING 262
SWIDTH 730 0
DWIDTH 38 0
BBX 35 51 4 -1
BITMAP
0000000E00
0000007F00
000000FE00
000003FC00
00000FC000
00007C0000
0000000000
0000000000
0000000000
0000040000
0000FFE060
0003FFFCE0
000FE07FE0
003F001FC0
007E000FC0
00FC0007C0
01F00007C0
03F00003C0
07E00003C0
07C0000380
0F80000380
1F80000180
1F80000180
3F00000000
3F00000000
7E00000000
7E00000000
7E00000000
FE00000000
FC00000000
FC00000000
FC00000000
FC00000000
FC00000000
FC00000000
FC00000000
FC00000000
FC00000000
FC00000000
FE00000800
7E00000E00
7E00001C00
7F00003800
3F00007000
1F8000E000
1FC001E000
0FE007C000
07FFFF0000
01FFFE0000
007FF80000
0003000000
ENDCHAR
STARTCHAR 0107
ENCODING 263
SWIDTH 442 0
DWIDTH 23 0
BBX 25 43 1 -1
BITMAP
00000200
00000F00
00001F80
00003F00
0000FE00
0001F000
0003C000
000F0000
00000000
00000000
00000000
00000000
00000000
00000000
0007C000
001FF000
007FF800
00F0F800
01E0F800
03C0F800
07C0F800
0F807000
0F000000
1F000000
3E000000
3E000000
7E000000
7C000000
7C000000
FC000000
FC000000
F8000000
F8000000
F8008000
F800C000
F801C000
F8038000
FC070000
7C0E0000
7E1C0000
3FF80000
1FF00000
01000000
ENDCHAR
STARTCHAR 0108
ENCODING 264
SWIDTH 730 0
DWIDTH 38 0
BBX 35 51 4 -1
BITMAP
000007F000
00000FF800
00001FFC00
00003E7C00
0000781E00
0001C00700
0000000000
0000000000
0000000000
0000040000
0000FFE060
0003FFFCE0
000FE07FE0
003F001FC0
007E000FC0
00FC0007C0
01F00007C0
03F00003C0
07E00003C0
07C0000380
0F80000380
1F80000180
1F80000180
3F00000000
3F00000000
7E00000000
7E00000000
7E00000000
FE00000000
FC00000000
FC00000000
FC00000000
FC00000000
FC00000000
FC00000000
FC00000000
FC00000000
FC00000000
FC00000000
FE00000800
7E00000E00
7E00001C00
7F00003800
3F00007000
1F8000E000
1FC001E000
0FE007C000
07FFFF0000
01FFFE0000
007FF80000
0003000000
ENDCHAR
STARTCHAR 0109
ENCODING 265
SWIDTH 442 0
DWIDTH 23 0
BBX 25 42 1 -1
BITMAP
0000F000
0003F800
0007FC00
000FFC00
001E3E00
00780F00
00E00380
00000000
00000000
00000000
00000000
00000000
00000000
0007C000
001FF000
007FF800
00F0F800
01E0F800
03C0F800
07C0F800
0F807000
0F000000
1F000000
3E000000
3E000000
7E000000
7C000000
7C000000
FC000000
FC000000
F8000000
F8000000
F8008000
F800C000
F801C000
F8038000
FC070000
7C0E0000
7E1C0000
3FF80000
1FF00000
01000000
ENDCHAR
STARTCHAR 010A
ENCODING 266
SWIDTH 730 0
DWIDTH 38 0
BBX 35 51 4 -1
BITMAP
000001C000
000003E000
000003F000
000003F000
000003E000
000001C000
0000000000
0000000000
0000000000
0000040000
0000FFE060
0003FFFCE0
000FE07FE0
003F001FC0
007E000FC0
00FC0007C0
01F00007C0
03F00003C0
07E00003C0
07C0000380
0F80000380
1F80000180
1F80000180
3F00000000
3F00000000
7E00000000
7E00000000
7E00000000
FE00000000
FC00000000
FC00000000
FC00000000
FC00000000
FC00000000
FC00000000
FC00000000
FC00000000
FC00000000
FC00000000
FE00000800
7E00000E00
7E00001C00
7F00003800
3F00007000
1F8000E000
1FC001E000
0FE007C000
07FFFF0000
01FFFE0000
007FF80000
0003000000
ENDCHAR
STARTCHAR 010B
ENCODING 267
SWIDTH 442 0
DWIDTH 23 0
BBX 21 43 1 -1
BITMAP
0001E0
0003F0
0003F0
0003F0
0003F0
0001E0
000000
000000
000000
000000
000000
000000
000000
000000
0007C0
001FF0
007FF8
00F0F8
01E0F8
03C0F8
07C0F8
0F8070
0F0000
1F0000
3E0000
3E0000
7E0000
7C0000
7C0000
FC0000
FC0000
F80000
F80000
F80080
F800C0
F801C0
F80380
FC0700
7C0E00
7E1C00
3FF800
1FF000
010000
ENDCHAR
STARTCHAR 010C
ENCODING 268
SWIDTH 730 0
DWIDTH 38 0
BBX 35 51 4 -1
BITMAP
0000E00380
0000781E00
00003E7C00
00001FF800
00001FF000
00000FC000
0000000000
0000000000
0000000000
0000040000
0000FFE060
0003FFFCE0
000FE07FE0
003F001FC0
007E000FC0
00FC0007C0
01F00007C0
03F00003C0
07E00003C0
07C0000380
0F80000380
1F80000180
1F80000180
3F00000000
3F00000000
7E00000000
7E00000000
7E00000000
FE00000000
FC00000000
FC00000000
FC00000000
FC00000000
FC00000000
FC00000000
FC00000000
FC00000000
FC00000000
FC00000000
FE00000800
7E00000E00
7E00001C00
7F00003800
3F00007000
1F8000E000
1FC001E000
0FE007C000
07FFFF0000
01FFFE0000
007FF80000
0003000000
ENDCHAR
STARTCHAR 010D
ENCODING 269
SWIDTH 442 0
DWIDTH 23 0
BBX 26 42 1 -1
BITMAP
007000C0
00380380
001E0F00
001F3E00
000FFC00
0007F000
0007E000
00000000
00000000
00000000
00000000
00000000
00000000
0007C000
001FF000
007FF800
00F0F800
01E0F800
03C0F800
07C0F800
0F807000
0F000000
1F000000
3E000000
3E000000
7E000000
7C000000
7C000000
FC000000
FC000000
F8000000
F8000000
F8008000
F800C000
F801C000
F8038000
FC070000
7C0E0000
7E1C0000
3FF80000
1FF00000
01000000
ENDCHAR
STARTCHAR 010E
ENCODING 270
SWIDTH 826 0
DWIDTH 43 0
BBX 43 50 -2 0
BITMAP
00000F003800
00000780F000
000003E7C000
000001FF8000
000001FF0000
000000FE0000
000000000000
000000000000
000000000000
000000000000
003FFFFC0000
003FFFFFC000
0003FFFFF000
0001F803F800
0001F800FC00
0001F0007E00
0001F0003F00
0003F0001F80
0003F0000F80
0003E0000FC0
0003E00007C0
0007E00007E0
0007E00007E0
0007C00007E0
0007C00007E0
000FC00007E0
000F800007E0
000F800007E0
000F800007E0
001F800007E0
001F000007E0
001F000007E0
003F000007E0
003F00000FC0
003E00000FC0
003E00000FC0
007E00001F80
007E00001F80
007C00003F00
007C00003F00
00FC00007E00
00F80000FC00
00F80001F800
00F80003F000
01F80007E000
01F8000FC000
03FC003F8000
07FF03FE0000
7FFFFFF80000
FFFFFF000000
ENDCHAR
STARTCHAR 010F
ENCODING 271
SWIDTH 596 0
DWIDTH 31 0
BBX 38 44 1 -1
BITMAP
00000FFC00
00000FFC00
00001FF810
000000F87C
000000F8FC
000000F8FC
000000F0FC
000001F05C
000001F038
000001E070
000003E0E0
000003E1C0
000003E100
000007C000
000007C000
0007C7C000
001FF7C000
007FFF8000
00F83F8000
01F01F8000
03E01F0000
07C01F0000
07801F0000
0F801F0000
1F003E0000
1F003E0000
3E003E0000
7E003E0000
7C007C0000
7C007C0000
FC00FC0000
F800FC0000
F800F80000
F801F82800
F803F83000
F803F83000
F807F87000
F80FF86000
F80EF8E000
FC3CF9C000
7FF8FF8000
3FF07F0000
1FC07E0000
0400100000
ENDCHAR
STARTCHAR 0110
ENCODING 272
SWIDTH 846 0
DWIDTH 44 0
BBX 43 40 -1 0
BITMAP
003FFFF80000
007FFFFF8000
0007FFFFE000
0003F007F000
0003F001FC00
0003F000FE00
0003E0007E00
0003E0003F00
0007E0001F80
0007C0001F80
0007C0000F80
0007C0000FC0
000FC0000FC0
000F80000FC0
000F80000FC0
001F800007E0
001F800007E0
001F000007E0
03FFFC000FE0
03FFFC000FC0
07FFF8000FC0
003E00000FC0
003E00000FC0
007E00001FC0
007C00001F80
007C00001F80
007C00003F00
00FC00003F00
00F800007E00
00F800007E00
00F80000FC00
01F80001F800
01F00003F800
01F00007F000
03F0000FE000
03F8003F8000
07F800FF0000
FFFFFFFC0000
FFFFFFF00000
FFFFFF000000
ENDCHAR
STARTCHAR 0111
ENCODING 273
SWIDTH 596 0
DWIDTH 31 0
BBX 32 44 1 -1
BITMAP
00000FFC
00000FFC
00001FF8
000000F8
000000F8
000000F0
000001F0
00007FFF
00007FFF
00007FFE
000003E0
000003E0
000003C0
000007C0
000007C0
0007C7C0
001FF780
007FFF80
00F83F80
01F01F80
03E01F00
07C01F00
07801F00
0F801F00
1F003E00
1F003E00
3E003E00
7E003E00
7C007C00
7C007C00
FC00FC00
F800FC00
F800F800
F801F828
F803F830
F803F830
F807F870
F80FF860
F80EF0E0
FC3CF9C0
7FF8FF80
3FF07F00
1FC07E00
04001000
ENDCHAR
STARTCHAR 0112
ENCODING 274
SWIDTH 730 0
DWIDTH 38 0
BBX 38 48 -1 0
BITMAP
00000FFFC0
00000FFFC0
00001FFF80
0000000000
0000000000
0000000000
0000000000
0000000000
007FFFFFFC
007FFFFFFC
007FFFFFFC
0007F001FC
0003F0007C
0003E0003C
0003E0003C
0003E0001C
0007E0001C
0007C0001C
0007C0000C
0007C00000
000FC03800
000F803000
000F807000
000F807000
001F00F000
001FFFE000
001FFFE000
003FFFE000
003E03E000
003E01E000
003E01C000
007E00C000
007C00C000
007C00C000
007C01C000
00FC000000
00F8000000
00F8000070
00F8000070
01F00000E0
01F00000E0
01F00001C0
03F00003C0
03F00007C0
07F8001F80
0FFE00FF80
FFFFFFFF80
FFFFFFFF00
ENDCHAR
STARTCHAR 0113
ENCODING 275
SWIDTH 461 0
DWIDTH 24 0
BBX 25 40 1 -1
BITMAP
001FFF80
001FFF80
003FFF00
00000000
00000000
00000000
00000000
00000000
00000000
00000000
00000000
0007E000
001FF800
007FF800
00F87C00
01E07C00
03C07C00
07C07C00
0F80F800
0F00F800
1F01F000
3E03E000
3E07C000
7C0F0000
7C3E0000
7CF80000
FFE00000
FF000000
F8000000
F8000000
F8000000
F8008000
F800C000
F801C000
F8038000
7C070000
7E1E0000
3FFC0000
1FF00000
01000000
ENDCHAR
STARTCHAR 0114
ENCODING 276
SWIDTH 730 0
DWIDTH 38 0
BBX 38 50 -1 0
BITMAP
0000060060
00000F01C0
000007FFC0
000007FF80
000003FE00
000001F800
0000000000
0000000000
0000000000
0000000000
007FFFFFFC
007FFFFFFC
007FFFFFFC
0007F001FC
0003F0007C
0003E0003C
0003E0003C
0003E0001C
0007E0001C
0007C0001C
0007C0000C
0007C00000
000FC03800
000F803000
000F807000
000F807000
001F00F000
001FFFE000
001FFFE000
003FFFE000
003E03E000
003E01E000
003E01C000
007E00C000
007C00C000
007C00C000
007C01C000
00FC000000
00F8000000
00F8000070
00F8000070
01F00000E0
01F00000E0
01F00001C0
03F00003C0
03F00007C0
07F8001F80
0FFE00FF80
FFFFFFFF80
FFFFFFFF00
ENDCHAR
STARTCHAR 0115
ENCODING 277
SWIDTH 461 0
DWIDTH 24 0
BBX 26 41 1 -1
BITMAP
001801C0
001C0380
001E0780
001FFF00
000FFE00
0007FC00
0003F000
00000000
00000000
00000000
00000000
00000000
0007E000
001FF800
007FFC00
00F87C00
01E07C00
03C07C00
07C07C00
0F80F800
0F00F000
1F01F000
3E03E000
3E07C000
7C1F0000
7C3E0000
7DF80000
FFC00000
FE000000
F8000000
F8000000
F8000000
F8008000
F800C000
F8018000
F8038000
7C0F0000
7F3E0000
3FF80000
1FF00000
01000000
ENDCHAR
STARTCHAR 0116
ENCODING 278
SWIDTH 730 0
DWIDTH 38 0
BBX 38 50 -1 0
BITMAP
0000003800
0000007C00
0000007C00
0000007C00
0000007C00
0000003800
0000000000
0000000000
0000000000
0000000000
007FFFFFFC
007FFFFFFC
007FFFFFFC
0007F001FC
0003F0007C
0003E0003C
0003E0003C
0003E0001C
0007E0001C
0007C0001C
0007C0000C
0007C00000
000FC03800
000F803000
000F807000
000F807000
001F00F000
001FFFE000
001FFFE000
003FFFE000
003E03E000
003E01E000
003E01C000
007E00C000
007C00C000
007C00C000
007C01C000
00FC000000
00F8000000
00F8000070
00F8000070
01F00000E0
01F00000E0
01F00001C0
03F00003C0
03F00007C0
07F8001F80
0FFE00FF80
FFFFFFFF80
FFFFFFFF00
ENDCHAR
STARTCHAR 0117
ENCODING 279
SWIDTH 461 0
DWIDTH 24 0
BBX 22 43 1 -1
BITMAP
0000F0
0001F8
0001F8
0003F8
0001F8
0000F0
000000
000000
000000
000000
000000
000000
000000
000000
0007E0
001FF8
007FF8
00F87C
01E07C
03C07C
07C07C
0F80F8
0F00F8
1F01F0
3E03E0
3E07C0
7C0F00
7C3E00
7CF800
FFE000
FF0000
F80000
F80000
F80000
F80080
F800C0
F801C0
F80380
7C0700
7E1E00
3FFC00
1FF000
010000
ENDCHAR
STARTCHAR 0118
ENCODING 280
SWIDTH 730 0
DWIDTH 38 0
BBX 38 52 -1 -12
BITMAP
007FFFFFFC
007FFFFFFC
007FFFFFFC
0007F001FC
0003F0007C
0003E0003C
0003E0003C
0003E0001C
0007E0001C
0007C0001C
0007C0000C
0007C00000
000FC03800
000F803000
000F807000
000F807000
001F00F000
001FFFE000
001FFFE000
003FFFE000
003E03E000
003E01E000
003E01C000
007E00C000
007C00C000
007C00C000
007C01C000
00FC000000
00F8000000
00F8000070
00F8000070
01F00000E0
01F00000E0
01F00001C0
03F00003C0
03F00007C0
07F8001F80
0FFE00FF80
FFFFFFFF80
FFFFFFFF00
0003800000
000F000000
001E000000
003C000000
0078000000
00F0000000
00F0000000
00F0180000
00F8380000
00FFF00000
007FE00000
003F000000
ENDCHAR
STARTCHAR 0119
ENCODING 281
SWIDTH 461 0
DWIDTH 24 0
BBX 24 40 -1 -12
BITMAP
0001F8
0007FE
001FFE
003E1F
00781F
00F01F
01F01F
03E03E
03C03E
07C07C
0F80F8
0F81F0
1F03C0
1F0F80
1F3E00
3FF800
3FC000
3E0000
3E0000
3E0000
3E0020
3E0030
3E0070
3E00E0
3F01C0
1F8780
0FFF00
07FC00
03C000
0F0000
1E0000
3C0000
780000
780000
F00000
F01800
F83800
7FF000
7FE000
1F8000
ENDCHAR
STARTCHAR 011A
ENCODING 282
SWIDTH 730 0
DWIDTH 38 0
BBX 38 50 -1 0
BITMAP
00001C00F0
00000F03C0
000007CF80
000007FF00
000003FE00
000001F800
0000000000
0000000000
0000000000
0000000000
007FFFFFFC
007FFFFFFC
007FFFFFFC
0007F001FC
0003F0007C
0003E0003C
0003E0003C
0003E0001C
0007E0001C
0007C0001C
0007C0000C
0007C00000
000FC03800
000F803000
000F807000
000F807000
001F00F000
001FFFE000
001FFFE000
003FFFE000
003E03E000
003E01E000
003E01C000
007E00C000
007C00C000
007C00C000
007C01C000
00FC000000
00F8000000
00F8000070
00F8000070
01F00000E0
01F00000E0
01F00001C0
03F00003C0
03F00007C0
07F8001F80
0FFE00FF80
FFFFFFFF80
FFFFFFFF00
ENDCHAR
STARTCHAR 011B
ENCODING 283
SWIDTH 461 0
DWIDTH 24 0
BBX 27 42 1 -1
BITMAP
00300060
001C01C0
001F0780
000F9E00
0007FC00
0007F800
0003F000
00000000
00000000
00000000
00000000
00000000
00000000
0007E000
001FF800
007FFC00
00F87C00
01E07C00
03C07C00
07C07C00
0F80F800
0F00F000
1F01F000
3E03E000
3E07C000
7C1F0000
7C3E0000
7DF80000
FFC00000
FE000000
F8000000
F8000000
F8000000
F8008000
F800C000
F8018000
F8038000
7C0F0000
7F3E0000
3FF80000
1FF00000
01000000
ENDCHAR
STARTCHAR 011C
ENCODING 284
SWIDTH 807 0
DWIDTH 42 0
BBX 37 51 4 -1
BITMAP
000003F800
000007FC00
00000FFC00
00001F3E00
00007C0F00
0000E00780
0000000000
0000000000
0000000000
0000020000
00007FF818
0003FFFF38
000FF01FF8
001F8007F8
003E0001F0
00FC0000F0
01F80000F0
03F00000F0
07E0000070
07C0000070
0FC0000060
1F80000000
1F80000000
3F00000000
3F00000000
7E00000000
7E00000000
7E00000000
FE00000000
FC00000000
FC00000000
FC00000000
FC0003FFF8
FC0003FFF0
FC0003FFF0
FC00007F80
FC00003F00
FC00003F00
FC00003F00
FE00003E00
7E00003E00
7E00003E00
7E00003C00
3F00007C00
1F8000FC00
1F8001FC00
0FE003FC00
07F80FF800
01FFFFE000
007FFE0000
0003000000
ENDCHAR
STARTCHAR 011D
ENCODING 285
SWIDTH 557 0
DWIDTH 29 0
BBX 35 55 -4 -14
BITMAP
00000F8000
00001FC000
00003FC000
00007FE000
0001F1F000
0003C07000
000F003800
0000000000
0000000000
0000000000
0000000000
0000000000
0000000000
0000FC0780
0003FF0FC0
000FFF9FE0
001F87FFE0
003F03E3E0
007E03E1C0
007C03E000
00FC03E000
00F803E000
01F803E000
01F803E000
01F003E000
01F007E000
01F007C000
00F00FC000
00F00F8000
00781F0000
00783E0000
003FFC0000
003FF00000
00FF000000
03E0000000
07E0000000
07E0000000
07F8000000
07FFC00000
03FFFC0000
00FFFF0000
003FFF8000
0C03FFC000
3F001FC000
7C0007E000
F80003E000
F80003C000
F80001C000
F80003C000
7800078000
7C000F8000
3F003E0000
0FFFFC0000
03FFF00000
000C000000
ENDCHAR
STARTCHAR 011E
ENCODING 286
SWIDTH 807 0
DWIDTH 42 0
BBX 37 51 4 -1
BITMAP
0000180180
00001C0700
00001FFF00
00001FFE00
00000FF800
000003E000
0000000000
0000000000
0000000000
0000020000
00007FF818
0003FFFF38
000FF01FF8
001F8007F8
003E0001F0
00FC0000F0
01F80000F0
03F00000F0
07E0000070
07C0000070
0FC0000060
1F80000000
1F80000000
3F00000000
3F00000000
7E00000000
7E00000000
7E00000000
FE00000000
FC00000000
FC00000000
FC00000000
FC0003FFF8
FC0003FFF0
FC0003FFF0
FC00007F80
FC00003F00
FC00003F00
FC00003F00
FE00003E00
7E00003E00
7E00003E00
7E00003C00
3F00007C00
1F8000FC00
1F8001FC00
0FE003FC00
07F80FF800
01FFFFE000
007FFE0000
0003000000
ENDCHAR
STARTCHAR 011F
ENCODING 287
SWIDTH 557 0
DWIDTH 29 0
BBX 35 54 -4 -14
BITMAP
0001C00C00
0001C01800
0001E07800
0000FFF000
0000FFE000
00007FC000
00003F0000
0000000000
0000000000
0000000000
0000000000
0000000000
0000FC0780
0003FF0FC0
000FFF9FE0
001F87FFE0
003F03E3E0
007E03E1C0
007C03E000
00FC03E000
00F803E000
01F803E000
01F803E000
01F003E000
01F007E000
01F007C000
00F00FC000
00F00F8000
00781F0000
00783E0000
003FFC0000
003FF00000
00FF000000
03E0000000
07E0000000
07E0000000
07F8000000
07FFC00000
03FFFC0000
00FFFF0000
003FFF8000
0C03FFC000
3F001FC000
7C0007E000
F80003E000
F80003C000
F80001C000
F80003C000
7800078000
7C000F8000
3F003E0000
0FFFFC0000
03FFF00000
000C000000
ENDCHAR
STARTCHAR 0120
ENCODING 288
SWIDTH 807 0
DWIDTH 42 0
BBX 37 51 4 -1
BITMAP
000000E000
000001F000
000001F000
000001F000
000001F000
000000E000
0000000000
0000000000
0000000000
0000020000
00007FF818
0003FFFF38
000FF01FF8
001F8007F8
003E0001F0
00FC0000F0
01F80000F0
03F00000F0
07E0000070
07C0000070
0FC0000060
1F80000000
1F80000000
3F00000000
3F00000000
7E00000000
7E00000000
7E00000000
FE00000000
FC00000000
FC00000000
FC00000000
FC0003FFF8
FC0003FFF0
FC0003FFF0
FC00007F80
FC00003F00
FC00003F00
FC00003F00
FE00003E00
7E00003E00
7E00003E00
7E00003C00
3F00007C00
1F8000FC00
1F8001FC00
0FE003FC00
07F80FF800
01FFFFE000
007FFE0000
0003000000
ENDCHAR
STARTCHAR 0121
ENCODING 289
SWIDTH 557 0
DWIDTH 29 0
BBX 35 56 -4 -14
BITMAP
00000F0000
00001F8000
00001F8000
00001F8000
00001F8000
00000F0000
0000000000
0000000000
0000000000
0000000000
0000000000
0000000000
0000000000
0000000000
0000FC0780
0003FF0FC0
000FFF9FE0
001F87FFE0
003F03E3E0
007E03E1C0
007C03E000
00FC03E000
00F803E000
01F803E000
01F803E000
01F003E000
01F007E000
01F007C000
00F00FC000
00F00F8000
00781F0000
00783E0000
003FFC0000
003FF00000
00FF000000
03E0000000
07E0000000
07E0000000
07F8000000
07FFC00000
03FFFC0000
00FFFF0000
003FFF8000
0C03FFC000
3F001FC000
7C0007E000
F80003E000
F80003C000
F80001C000
F80003C000
7800078000
7C000F8000
3F003E0000
0FFFFC0000
03FFF00000
000C000000
ENDCHAR
STARTCHAR 0122
ENCODING 290
SWIDTH 807 0
DWIDTH 42 0
BBX 37 54 4 -13
BITMAP
0000020000
00007FF818
0003FFFF38
000FF01FF8
001F8007F8
003E0001F0
00FC0000F0
01F80000F0
03F00000F0
07E0000070
07C0000070
0FC0000060
1F80000000
1F80000000
3F00000000
3F00000000
7E00000000
7E00000000
7E00000000
FE00000000
FC00000000
FC00000000
FC00000000
FC0003FFF8
FC0003FFF0
FC0003FFF0
FC00007F80
FC00003F00
FC00003F00
FC00003F00
FE00003E00
7E00003E00
7E00003E00
7E00003C00
3F00007C00
1F8000FC00
1F8001FC00
0FE003FC00
07F80FF800
01FFFFE000
007FFE0000
0003000000
0000000000
0000000000
000F000000
001F000000
001F800000
001F800000
001F800000
0003800000
0003000000
0007000000
001C000000
0008000000
ENDCHAR
STARTCHAR 0123
ENCODING 291
SWIDTH 557 0
DWIDTH 29 0
BBX 35 58 -4 -14
BITMAP
0000010000
0000078000
00000E0000
00001C0000
00001C0000
00001F0000
00001F8000
00001F8000
00001F8000
00000F0000
0000000000
0000000000
0000000000
0000000000
0000000000
0000000000
0000FC0780
0003FF0FC0
000FFF9FE0
001F87FFE0
003F03E3E0
007E03E1C0
007C03E000
00FC03E000
00F803E000
01F803E000
01F803E000
01F003E000
01F007E000
01F007C000
00F00FC000
00F00F8000
00781F0000
00783E0000
003FFC0000
003FF00000
00FF000000
03E0000000
07E0000000
07E0000000
07F8000000
07FFC00000
03FFFC0000
00FFFF0000
003FFF8000
0C03FFC000
3F001FC000
7C0007E000
F80003E000
F80003C000
F80001C000
F80003C000
7800078000
7C000F8000
3F003E0000
0FFFFC0000
03FFF00000
000C000000
ENDCHAR
STARTCHAR 0124
ENCODING 292
SWIDTH 903 0
DWIDTH 47 0
BBX 52 50 -1 0
BITMAP
00000003F80000
00000007F80000
0000000FFC0000
0000003F3E0000
000000781F0000
000000E0078000
00000000000000
00000000000000
00000000000000
00000000000000
007FFFC01FFFF0
007FFFC01FFFF0
007FFFC03FFFE0
0003FC0001FE00
0003F80001FC00
0003F00001F800
0003E00001F800
0003E00001F800
0007E00001F000
0007E00001F000
0007C00003F000
0007C00003E000
000FC00003E000
000F800003E000
000F800007E000
001F800007C000
001F800007C000
001F000007C000
001FFFFFFFC000
003FFFFFFF8000
003FFFFFFF8000
003E00001F8000
003E00001F0000
007E00001F0000
007C00001F0000
007C00003F0000
00FC00003E0000
00FC00003E0000
00F800007E0000
00F800007E0000
01F800007C0000
01F800007C0000
01F00000FC0000
03F00000FC0000
03F00000FC0000
07F00001FC0000
0FF80003FC0000
FFFF803FFFC000
FFFF807FFFC000
FFFF007FFFC000
ENDCHAR
STARTCHAR 0125
ENCODING 293
SWIDTH 576 0
DWIDTH 30 0
BBX 31 44 0 -1
BITMAP
03FF8000
03FF8000
03FF0000
003F03F0
001F07F0
001E0FF8
003E1E78
003E3C3C
003E701C
003C8002
007C0000
007C0000
00780000
00F80000
00F80000
00F07C00
01F1FF00
01F3FF00
01F70F80
01EE0F80
03FC0F80
03F80F80
03F00F80
07F01F80
07E01F00
07E01F00
0FC01F00
0FC03E00
0F803E00
0F803E00
1F007C00
1F007C00
1F007C00
3E00F800
3E00F800
3E00F820
3C01F070
7C01F0E0
7C01F1C0
7801FF80
F801FF00
F801FE00
F001F800
00004000
ENDCHAR
STARTCHAR 0126
ENCODING 294
SWIDTH 903 0
DWIDTH 47 0
BBX 52 40 -1 0
BITMAP
007FFFC01FFFF0
007FFFC01FFFF0
007FFFC03FFFE0
0003FC0001FE00
0003F80000FC00
0003F00000FC00
0003F00001F800
0003E00001F800
0007E00001F000
00FFFFFFFFFFC0
01FFFFFFFFFFC0
01FFFFFFFFFF80
000FC00003E000
000F800003E000
000F800007E000
000F800007C000
001F800007C000
001F000007C000
001FFFFFFFC000
003FFFFFFF8000
003FFFFFFF8000
003E00001F8000
003E00001F8000
007E00001F0000
007E00001F0000
007C00003F0000
007C00003E0000
00FC00003E0000
00F800003E0000
00F800007E0000
01F800007C0000
01F800007C0000
01F00000FC0000
01F00000FC0000
03F00000FC0000
03F00001FC0000
07F80003FC0000
FFFF803FFFC000
FFFF803FFFC000
FFFF007FFFC000
ENDCHAR
STARTCHAR 0127
ENCODING 295
SWIDTH 576 0
DWIDTH 30 0
BBX 28 44 0 -1
BITMAP
03FF8000
03FF8000
03FF0000
003F0000
001F0000
001E0000
003E0000
003E0000
07FFF800
07FFF800
07FFF000
007C0000
00780000
00F80000
00F80000
00F07C00
01F1FF00
01F3FF00
01F70F80
01EE0F80
03FC0F80
03F80F80
03F00F80
07F01F80
07E01F00
07E01F00
0FC01F00
0FC03E00
0F803E00
0F803E00
1F007C00
1F007C00
1F007C00
3E00F800
3E00F800
3E00F820
3C01F070
7C01F0E0
7C01F1C0
7801FF80
F801FF00
F801FE00
F001F800
00004000
ENDCHAR
STARTCHAR 0128
ENCODING 296
SWIDTH 423 0
DWIDTH 22 0
BBX 29 50 -1 0
BITMAP
0003E018
0007F830
000FFE30
000FFFF0
00187FE0
00181FC0
00180780
00000000
00000000
00000000
007FFFC0
007FFFC0
007FFFC0
0003FC00
0003F800
0003F000
0003E000
0003E000
0007E000
0007C000
0007C000
0007C000
000FC000
000F8000
000F8000
001F8000
001F8000
001F0000
001F0000
003F0000
003E0000
003E0000
003E0000
007E0000
007C0000
007C0000
00FC0000
00FC0000
00F80000
00F80000
01F80000
01F80000
01F00000
03F00000
03F00000
07F00000
0FF80000
FFFF8000
FFFF8000
FFFF0000
ENDCHAR
STARTCHAR 0129
ENCODING 297
SWIDTH 346 0
DWIDTH 18 0
BBX 22 41 1 -1
BITMAP
01F00C
03FE18
07FFF8
0FFFF0
0C3FF0
0C03C0
000000
000000
000000
000000
000000
000000
00F000
03F800
07F800
0FF800
1DF800
39F800
71F000
61F000
C1F000
03E000
03E000
03E000
07C000
07C000
07C000
0F8000
0F8000
1F8000
1F0000
1F0400
3E0600
3E0C00
3E1800
3E3800
3FF000
3FE000
3FC000
3F0000
080000
ENDCHAR
STARTCHAR 012A
ENCODING 298
SWIDTH 423 0
DWIDTH 22 0
BBX 27 48 -1 0
BITMAP
0007FFE0
0007FFE0
000FFFC0
00000000
00000000
00000000
00000000
00000000
007FFFC0
007FFFC0
007FFFC0
0003FC00
0003F800
0003F000
0003E000
0003E000
0007E000
0007C000
0007C000
0007C000
000FC000
000F8000
000F8000
001F8000
001F8000
001F0000
001F0000
003F0000
003E0000
003E0000
003E0000
007E0000
007C0000
007C0000
00FC0000
00FC0000
00F80000
00F80000
01F80000
01F80000
01F00000
03F00000
03F00000
07F00000
0FF80000
FFFF8000
FFFF8000
FFFF0000
ENDCHAR
STARTCHAR 012B
ENCODING 299
SWIDTH 346 0
DWIDTH 18 0
BBX 20 40 1 -1
BITMAP
03FFF0
03FFF0
07FFE0
000000
000000
000000
000000
000000
000000
000000
000000
00F000
03F800
07F800
0FF800
1DF800
39F800
71F000
61F000
C1F000
03E000
03E000
03E000
07C000
07C000
07C000
0F8000
0F8000
1F8000
1F0000
1F0400
3E0600
3E0C00
3E1800
3E3800
3FF000
3FE000
3FC000
3F0000
080000
ENDCHAR
STARTCHAR 012C
ENCODING 300
SWIDTH 423 0
DWIDTH 22 0
BBX 28 50 -1 0
BITMAP
00030030
000380E0
0003FFE0
0003FFC0
0001FF00
0000FC00
00000000
00000000
00000000
00000000
007FFFC0
007FFFC0
007FFFC0
0003FC00
0003F800
0003F000
0003E000
0003E000
0007E000
0007E000
0007C000
0007C000
000FC000
000F8000
000F8000
000F8000
001F8000
001F0000
001F0000
003F0000
003F0000
003E0000
003E0000
007E0000
007C0000
007C0000
007C0000
00FC0000
00F80000
00F80000
01F80000
01F80000
01F00000
01F00000
03F00000
03F00000
07F00000
1FFC0000
FFFF8000
FFFF0000
ENDCHAR
STARTCHAR 012D
ENCODING 301
SWIDTH 346 0
DWIDTH 18 0
BBX 21 41 1 -1
BITMAP
030038
038070
03C0F0
03FFE0
01FFC0
00FF80
007E00
000000
000000
000000
000000
000000
00F000
01F800
07F800
0FF800
1FF800
39F800
31F800
61F000
C1F000
03E000
03E000
03E000
07C000
07C000
07C000
0F8000
0F8000
0F8000
1F0000
1F0400
3E0600
3E0C00
3E1C00
3E3800
3FF000
3FE000
3FC000
3F0000
080000
ENDCHAR
STARTCHAR 012E
ENCODING 302
SWIDTH 423 0
DWIDTH 22 0
BBX 27 52 -2 -12
BITMAP
003FFFE0
003FFFE0
003FFFE0
0001FE00
0001FC00
0001F800
0001F000
0001F000
0003F000
0003E000
0003E000
0003E000
0007E000
0007C000
0007C000
000FC000
000FC000
000F8000
000F8000
001F8000
001F0000
001F0000
001F0000
003F0000
003E0000
003E0000
007E0000
007E0000
007C0000
007C0000
00FC0000
00FC0000
00F80000
01F80000
01F80000
03F80000
07FC0000
7FFFC000
7FFFC000
7FFF8000
07800000
0E000000
3C000000
78000000
78000000
F0000000
F0000000
F0100000
F8780000
FFF00000
7FC00000
3F000000
ENDCHAR
STARTCHAR 012F
ENCODING 303
SWIDTH 346 0
DWIDTH 18 0
BBX 21 55 -3 -12
BITMAP
0000E0
0001F0
0003F8
0003F8
0003F8
0001F0
0000E0
000000
000000
000000
000000
000000
000000
000000
000000
000F00
003F80
007F80
00FF80
01FF80
039F80
071F00
0E1F00
041F00
003E00
003E00
003E00
007C00
007C00
007C00
00F800
00F800
01F800
01F000
01F040
03E060
03E0C0
03E180
03E380
03FF00
03FE00
03FC00
03F000
078000
0F0000
1C0000
380000
780000
F00000
F00000
F01000
F87800
FFF000
7FC000
3F0000
ENDCHAR
STARTCHAR 0130
ENCODING 304
SWIDTH 423 0
DWIDTH 22 0
BBX 26 50 -1 0
BITMAP
00001C00
00003E00
00007E00
00007E00
00003E00
00001C00
00000000
00000000
00000000
00000000
007FFFC0
007FFFC0
007FFFC0
0003FC00
0003F800
0003F000
0003E000
0003E000
0007E000
0007C000
0007C000
0007C000
000FC000
000F8000
000F8000
001F8000
001F8000
001F0000
001F0000
003F0000
003E0000
003E0000
003E0000
007E0000
007C0000
007C0000
00FC0000
00FC0000
00F80000
00F80000
01F80000
01F80000
01F00000
03F00000
03F00000
07F00000
0FF80000
FFFF8000
FFFF8000
FFFF0000
ENDCHAR
STARTCHAR 0131
ENCODING 305
SWIDTH 346 0
DWIDTH 18 0
BBX 15 29 1 -1
BITMAP
00F0
03F8
07F8
0FF8
1DF8
39F8
71F0
61F0
C1F0
03E0
03E0
03E0
07C0
07C0
07C0
0F80
0F80
1F80
1F00
1F04
3E06
3E0C
3E18
3E38
3FF0
3FE0
3FC0
3F00
0800
ENDCHAR
STARTCHAR 0132
ENCODING 306
SWIDTH 961 0
DWIDTH 50 0
BBX 55 41 -1 -1
BITMAP
007FFFC003FFFE
007FFFC003FFFE
007FFFC003FFFE
0003FC00001FE0
0003F800001FC0
0003F000001F80
0003E000001F80
0003E000001F80
0007E000001F00
0007E000001F00
0007C000003F00
0007C000003E00
000FC000003E00
000F8000003E00
000F8000007E00
000F8000007C00
001F8000007C00
001F000000FC00
001F000000FC00
003F000000F800
003F000000F800
003E000001F800
003E000001F000
007E000001F000
007C000001F000
007C000003F000
007C000003E000
00FC000003E000
00F800F003E000
00F801F807E000
01F803F807C000
01F803F807C000
01F003F80FC000
01F003F00F8000
03F003E01F8000
03F003E03F0000
07F003E07E0000
1FFC01F0FC0000
FFFF81FFF80000
FFFF007FE00000
00000004000000
ENDCHAR
STARTCHAR 0133
ENCODING 307
SWIDTH 634 0
DWIDTH 33 0
BBX 33 57 1 -14
BITMAP
000E000E00
001F001F00
003F803F00
003F803F80
003F803F00
001F003F00
000E001E00
0000000000
0000000000
0000000000
0000000000
0000000000
0000000000
0000000000
0000000000
00F0007800
03F800FC00
07F803FC00
0FF807FC00
1DF80EFC00
39F81CFC00
71F018FC00
61F030F800
C1F020F800
03E000F800
03E001F800
03E001F000
07C001F000
07C001F000
07C003F000
0F8003E000
0F8003E000
1F8003E000
1F0007E000
1F0407C000
3E0607C000
3E0C07C000
3E180F8000
3E380F8000
3FF00F8000
3FE00F8000
3FC01F0000
3F001F0000
08001F0000
00001E0000
00003E0000
00003E0000
00003C0000
00003C0000
0000780000
00E0780000
01F0700000
01F0E00000
01F9C00000
01FF800000
00FF000000
0010000000
ENDCHAR
STARTCHAR 0134
ENCODING 308
SWIDTH 538 0
DWIDTH 28 0
BBX 35 51 -1 -1
BITMAP
000000FE00
000001FE00
000003FF00
00000FDF80
00001E07C0
00007801E0
0000000000
0000000000
0000000000
0000000000
0000FFFF80
0000FFFF80
0000FFFF80
000007F800
000003F000
000003E000
000007E000
000007E000
000007C000
000007C000
00000FC000
00000FC000
00000F8000
00000F8000
00001F8000
00001F0000
00001F0000
00001F0000
00003F0000
00003E0000
00003E0000
00003E0000
00007E0000
00007C0000
00007C0000
0000FC0000
0000FC0000
0000F80000
1C00F80000
7E01F80000
7F01F00000
FF01F00000
FE03F00000
FC03E00000
F807E00000
F80FC00000
F81F800000
7E7F000000
3FFE000000
1FF8000000
0180000000
ENDCHAR
STARTCHAR 0135
ENCODING 309
SWIDTH 307 0
DWIDTH 16 0
BBX 31 55 -10 -14
BITMAP
000003E0
000007E0
00001FF0
00003FF8
00007878
0000E03C
0003800E
00000000
00000000
00000000
00000000
00000000
00000000
00001C00
00007E00
0001FE00
0003FE00
0007FE00
00067E00
000C7E00
00187E00
00187C00
00007C00
0000FC00
0000FC00
0000F800
0000F800
0001F800
0001F000
0001F000
0001F000
0003F000
0003E000
0003E000
0003E000
0003E000
0007C000
0007C000
0007C000
00078000
000F8000
000F8000
000F8000
000F0000
001F0000
001E0000
001E0000
001C0000
703C0000
F8380000
F8700000
FCE00000
7FC00000
3F800000
04000000
ENDCHAR
STARTCHAR 0136
ENCODING 310
SWIDTH 826 0
DWIDTH 43 0
BBX 45 53 -1 -13
BITMAP
007FFFC3FFF8
007FFFC3FFF8
007FFFC3FFF0
0003FC007FC0
0003F8007F00
0003F0007C00
0003E000F800
0003E001F000
0007E007C000
0007C00F8000
0007C01E0000
000FC07C0000
000FC0F00000
000F81E00000
000F87C00000
001F8F000000
001FBE000000
001F7C000000
001FFE000000
003FFF000000
003FBF000000
003E3F800000
003E1FC00000
007E0FE00000
007C07E00000
007C07F00000
00FC03F80000
00FC01FC0000
00F800FE0000
00F800FE0000
01F8007F0000
01F0003F8000
01F0001FC000
03F0001FE000
03F0000FE000
03F0000FF000
07F8000FF800
7FFF807FFF80
FFFF80FFFF80
FFFF80FFFF00
000000000000
000000000000
000000000000
000038000000
00007C000000
00007E000000
00007E000000
00007E000000
00000E000000
00001C000000
000038000000
000070000000
000020000000
ENDCHAR
STARTCHAR 0137
ENCODING 311
SWIDTH 519 0
DWIDTH 27 0
BBX 24 56 0 -13
BITMAP
03FF00
03FF00
003F00
003E00
003E00
003E00
003E00
007C00
007C00
007C00
007800
00F800
00F800
00F800
00F000
01F0FC
01F3FE
01F7FF
01EFFF
03FE3F
03FC1F
03F81F
07F03E
07E03C
07C078
07C0F0
0F83E0
0F8F80
0FBE00
0FFC00
1FFC00
1F7C00
1F3E00
3E3E00
3E3F00
3E1F03
3E1F07
7C0F8E
7C0FFE
7C07FC
7807F8
F803F0
F803E0
000080
000000
000000
01C000
03E000
07F000
07F000
03F000
006000
00E000
01C000
038000
030000
ENDCHAR
STARTCHAR 0138
ENCODING 312
SWIDTH 538 0
DWIDTH 28 0
BBX 25 29 1 -1
BITMAP
3FF87C00
3FF1FE00
03F3FF00
01F7FF00
01FE1F80
03FC1F00
03F81F00
03F01E00
03F03E00
07E07C00
07C0F800
07C1E000
07C7C000
0F9F0000
0FFC0000
0FFE0000
0FBE0000
1F3E0000
1F1F0000
1F1F0000
3E1F8180
3E0F8300
3E0FC700
3E07FE00
7C07FC00
7C03FC00
7C03F800
F801F000
00008000
ENDCHAR
STARTCHAR 0139
ENCODING 313
SWIDTH 711 0
DWIDTH 37 0
BBX 35 50 -1 0
BITMAP
000001E000
000007E000
00001FE000
00007F8000
0001FC0000
0007C00000
0000000000
0000000000
0000000000
0000000000
007FFFC000
007FFFC000
007FFFC000
0007F80000
0003F00000
0003F00000
0003E00000
0007E00000
0007E00000
0007C00000
0007C00000
000FC00000
000FC00000
000F800000
000F800000
001F800000
001F800000
001F000000
001F000000
003F000000
003E000000
003E000000
003E000000
007E000000
007C000000
007C000000
007C000000
00FC000000
00F80000E0
00F80000C0
01F80001C0
01F00001C0
01F0000380
01F0000780
03F0000F80
03F0001F00
07F8007F00
FFFFFFFE00
FFFFFFFE00
FFFFFFFE00
ENDCHAR
STARTCHAR 013A
ENCODING 314
SWIDTH 307 0
DWIDTH 16 0
BBX 22 51 1 -1
BITMAP
00003C
0000FC
0003FC
000FF0
001F80
00F800
000000
03FE00
07FE00
007E00
007C00
007C00
007C00
007C00
00F800
00F800
00F800
00F000
01F000
01F000
01F000
03E000
03E000
03E000
03E000
07C000
07C000
07C000
078000
0F8000
0F8000
0F8000
1F0000
1F0000
1F0000
1E0000
3E0000
3E0000
3E0000
3C0000
7C0000
7C0C00
7C1800
783800
F87000
F8E000
FFC000
FF8000
FF0000
7E0000
100000
ENDCHAR
STARTCHAR 013B
ENCODING 315
SWIDTH 711 0
DWIDTH 37 0
BBX 35 53 -1 -13
BITMAP
007FFFC000
007FFFC000
007FFFC000
0007F80000
0003F00000
0003F00000
0003E00000
0007E00000
0007E00000
0007C00000
0007C00000
000FC00000
000FC00000
000F800000
000F800000
001F800000
001F800000
001F000000
001F000000
003F000000
003E000000
003E000000
003E000000
007E000000
007C000000
007C000000
007C000000
00FC000000
00F80000E0
00F80000C0
01F80001C0
01F00001C0
01F0000380
01F0000780
03F0000F80
03F0001F00
07F8007F00
FFFFFFFE00
FFFFFFFE00
FFFFFFFE00
0000000000
0000000000
0000000000
0003800000
0007C00000
000FE00000
0007E00000
0007E00000
0000C00000
0001C00000
0003800000
0007000000
0006000000
ENDCHAR
STARTCHAR 013C
ENCODING 316
SWIDTH 307 0
DWIDTH 16 0
BBX 16 56 0 -13
BITMAP
01FF
03FF
003F
003E
003E
003E
003E
007C
007C
007C
0078
00F8
00F8
00F8
01F0
01F0
01F0
01F0
03E0
03E0
03E0
03C0
07C0
07C0
07C0
0F80
0F80
0F80
0F00
1F00
1F00
1F00
1E00
3E00
3E06
3E0C
3C1C
7C38
7C70
7FE0
7FC0
7F80
3F00
0800
0000
0000
7800
FC00
FC00
FC00
7C00
1C00
1800
3800
F000
4000
ENDCHAR
STARTCHAR 013D
ENCODING 317
SWIDTH 711 0
DWIDTH 37 0
BBX 35 50 -1 0
BITMAP
001C00F000
000F03C000
0007CF8000
0007FF0000
0003FE0000
0001F80000
0000000000
0000000000
0000000000
0000000000
007FFFC000
007FFFC000
007FFFC000
0007F80000
0003F00000
0003F00000
0003E00000
0007E00000
0007E00000
0007C00000
0007C00000
000FC00000
000FC00000
000F800000
000F800000
001F800000
001F800000
001F000000
001F000000
003F000000
003E000000
003E000000
003E000000
007E000000
007C000000
007C000000
007C000000
00FC000000
00F80000E0
00F80000C0
01F80001C0
01F00001C0
01F0000380
01F0000780
03F0000F80
03F0001F00
07F8007F00
FFFFFFFE00
FFFFFFFE00
FFFFFFFE00
ENDCHAR
STARTCHAR 013E
ENCODING 318
SWIDTH 307 0
DWIDTH 16 0
BBX 24 44 1 -1
BITMAP
03FE00
07FE00
007E04
007C1E
007C3F
007C7F
007C7E
00F81E
00F80E
00F81C
00F038
01F0E0
01F040
01F000
03E000
03E000
03E000
03E000
07C000
07C000
07C000
078000
0F8000
0F8000
0F8000
1F0000
1F0000
1F0000
1E0000
3E0000
3E0000
3E0000
3C0000
7C0000
7C0C00
7C1800
783800
F87000
F8E000
FFC000
FF8000
FF0000
7E0000
100000
ENDCHAR
STARTCHAR 013F
ENCODING 319
SWIDTH 711 0
DWIDTH 37 0
BBX 35 40 -1 0
BITMAP
007FFFC000
007FFFC000
007FFFC000
0007F80000
0003F00000
0003F00000
0003E00000
0007E00000
0007E00000
0007C00000
0007C00000
000FC00000
000FC00000
000F800000
000F800000
001F800000
001F80F000
001F01F800
001F01F800
003F01F800
003E01F800
003E00F000
003E000000
007E000000
007C000000
007C000000
007C000000
00FC000000
00F80000E0
00F80000C0
01F80001C0
01F00001C0
01F0000380
01F0000780
03F0000F80
03F0001F00
07F8007F00
FFFFFFFE00
FFFFFFFE00
FFFFFFFE00
ENDCHAR
STARTCHAR 0140
ENCODING 320
SWIDTH 365 0
DWIDTH 19 0
BBX 20 44 1 -1
BITMAP
03FE00
07FE00
007E00
007C00
007C00
007C00
007C00
00F800
00F800
00F800
00F000
01F000
01F000
01F000
03E000
03E000
03E000
03E000
07C1E0
07C3F0
07C3F0
0783F0
0F83F0
0F81E0
0F8000
1F0000
1F0000
1F0000
1F0000
3E0000
3E0000
3E0000
3C0000
7C0000
7C0C00
7C1800
783800
F87000
F8E000
FFE000
FF8000
FF0000
7E0000
100000
ENDCHAR
STARTCHAR 0141
ENCODING 321
SWIDTH 711 0
DWIDTH 37 0
BBX 35 40 -1 0
BITMAP
007FFFC000
007FFFC000
007FFFC000
0003FC0000
0003F80000
0003F00000
0003E00000
0003E00000
0007E00000
0007C00000
0007C00000
0007C00000
000FC00000
000F840000
000F9C0000
000FFC0000
001FF80000
001FE00000
001F800000
007F000000
01FF000000
03FE000000
03BE000000
027E000000
047C000000
007C000000
007C000000
00FC000000
00F80000E0
00F80000E0
00F80001C0
01F80001C0
01F0000380
01F0000780
03F0000F80
03F8001F00
07F8007F00
FFFFFFFF00
FFFFFFFE00
FFFFFFFE00
ENDCHAR
STARTCHAR 0142
ENCODING 322
SWIDTH 326 0
DWIDTH 17 0
BBX 17 44 1 -1
BITMAP
03FF00
03FF00
007E00
003E00
003E00
003E00
007C00
007C00
007C00
007800
00F800
00F800
00F800
00F080
01F300
01FF00
01FF00
03FC00
03F000
07E000
1FC000
7FC000
7FC000
67C000
878000
0F8000
0F8000
0F8000
1F0000
1F0000
1F0000
1E0000
3E0000
3E0000
3E0600
3C0C00
7C1C00
7C3800
7C7000
7FE000
7FC000
7F8000
3F0000
080000
ENDCHAR
STARTCHAR 0143
ENCODING 323
SWIDTH 846 0
DWIDTH 44 0
BBX 47 50 0 0
BITMAP
000000007800
00000001F800
00000007F800
0000000FF000
0000003F8000
000001F00000
000000000000
000000000000
000000000000
000000000000
03FFE0003FFE
03FFE0003FFE
03FFF0007FFE
001FF0000FF0
000FF80007E0
0007F80007C0
0007F8000380
0007FC000380
0007FC000780
00077E000700
00077E000700
00073F000700
000E3F000F00
000E3F800E00
000E1F800E00
001E1F800E00
001C0FC01E00
001C0FC01C00
001C07E01C00
003C07E01C00
003803F03800
003803F03800
003803F03800
007001F83800
007001F87000
007000FC7000
00F000FC7000
00E0007E7000
00E0007EE000
00E0003EE000
01E0003FE000
01C0003FE000
01C0001FC000
03C0001FC000
03C0000FC000
07E0000F8000
0FE000078000
FFFE00078000
FFFE00078000
FFFE00030000
ENDCHAR
STARTCHAR 0144
ENCODING 324
SWIDTH 634 0
DWIDTH 33 0
BBX 30 43 1 -1
BITMAP
00000080
000003C0
000007C0
00001FC0
00003F00
00007C00
0000F000
0003C000
00000000
00000000
00000000
00000000
00000000
00000000
01E00F80
07F03FE0
0FF0FFE0
1CF1E3E0
18F383F0
30F303E0
60F703E0
61FE03E0
41EC03E0
C1F807C0
C3F807C0
03F007C0
03F00F80
03E00F80
07E01F80
07C01F00
07C01F00
0F803F00
0F803E00
0F803E08
1F007E1C
1F007C38
1F007C70
3E007CE0
3E007FC0
3C007F80
7C007F00
7C003E00
00001000
ENDCHAR
STARTCHAR 0145
ENCODING 325
SWIDTH 846 0
DWIDTH 44 0
BBX 47 53 0 -13
BITMAP
03FFE0003FFE
03FFE0003FFE
03FFF0007FFE
001FF0000FF0
000FF80007E0
0007F80007C0
0007F8000380
0007FC000380
0007FC000780
00077E000700
00077E000700
00073F000700
000E3F000F00
000E3F800E00
000E1F800E00
001E1F800E00
001C0FC01E00
001C0FC01C00
001C07E01C00
003C07E01C00
003803F03800
003803F03800
003803F03800
007001F83800
007001F87000
007000FC7000
00F000FC7000
00E0007E7000
00E0007EE000
00E0003EE000
01E0003FE000
01C0003FE000
01C0001FC000
03C0001FC000
03C0000FC000
07E0000F8000
0FE000078000
FFFE00078000
FFFE00078000
FFFE00030000
000000000000
000000000000
000000000000
00003C000000
00007E000000
00007E000000
00007E000000
00003E000000
00000E000000
00000E000000
00001C000000
000078000000
000020000000
ENDCHAR
STARTCHAR 0146
ENCODING 326
SWIDTH 634 0
DWIDTH 33 0
BBX 30 41 1 -13
BITMAP
01E00F80
07F03FE0
0FF0FFE0
1CF1E3E0
18F383F0
30F303E0
60F703E0
61FE03E0
41EC03E0
C1F807C0
C3F807C0
03F007C0
03F00F80
03E00F80
07E01F80
07C01F00
07C01F00
0F803F00
0F803E00
0F803E08
1F007E1C
1F007C38
1F007C70
3E007CE0
3E007FC0
3C007F80
7C007F00
7C003E00
00001000
00000000
00000000
00780000
00FC0000
00FC0000
00FC0000
007C0000
000C0000
001C0000
00380000
00F00000
00400000
ENDCHAR
STARTCHAR 0147
ENCODING 327
SWIDTH 846 0
DWIDTH 44 0
BBX 47 50 0 0
BITMAP
000007001C00
000003C0F000
000001F3E000
000000FFC000
000000FF8000
0000007F0000
000000000000
000000000000
000000000000
000000000000
03FFE0003FFE
03FFE0003FFE
03FFF0007FFE
001FF0000FF0
000FF80007E0
0007F80007C0
0007F8000380
0007FC000380
0007FC000780
00077E000700
00077E000700
00073F000700
000E3F000F00
000E3F800E00
000E1F800E00
001E1F800E00
001C0FC01E00
001C0FC01C00
001C07E01C00
003C07E01C00
003803F03800
003803F03800
003803F03800
007001F83800
007001F87000
007000FC7000
00F000FC7000
00E0007E7000
00E0007EE000
00E0003EE000
01E0003FE000
01C0003FE000
01C0001FC000
03C0001FC000
03C0000FC000
07E0000F8000
0FE000078000
FFFE00078000
FFFE00078000
FFFE00030000
ENDCHAR
STARTCHAR 0148
ENCODING 328
SWIDTH 634 0
DWIDTH 33 0
BBX 30 42 1 -1
BITMAP
001C0030
000E00E0
000783C0
0007CF80
0003FE00
0001FC00
0001F800
00000000
00000000
00000000
00000000
00000000
00000000
01E00F80
07F03FE0
0FF0FFE0
1CF1E3E0
18F383F0
30F303E0
60F703E0
61FE03E0
41EC03E0
C1F807C0
C3F807C0
03F007C0
03F00F80
03E00F80
07E01F80
07C01F00
07C01F00
0F803F00
0F803E00
0F803E08
1F007E1C
1F007C38
1F007C70
3E007CE0
3E007FC0
3C007F80
7C007F00
7C003E00
00001000
ENDCHAR
STARTCHAR 0149
ENCODING 329
SWIDTH 788 0
DWIDTH 41 0
BBX 31 44 7 -1
BITMAP
38000000
78000000
F8000000
F8000000
F0000000
F0000000
E0000000
E0000000
C0000000
C0000000
C0000000
00000000
00000000
00000000
00000000
00F007E0
03F81FF0
07F83FF8
067C70F8
0C7CE0F8
1879C0F8
187B80F8
307B01F0
30FE01F0
20FE01F0
60FC03E0
01FC03E0
01F803E0
01F007C0
01F007C0
03F00FC0
03E00F80
03E00F80
07C01F80
07C01F04
07C01F06
0F801F0C
0F803E1C
0F003E38
1F003FF0
1F003FE0
1E003F80
3E001F00
00000800
ENDCHAR
STARTCHAR 014A
ENCODING 330
SWIDTH 846 0
DWIDTH 44 0
BBX 47 54 0 -14
BITMAP
03FFE0003FFE
03FFE0003FFE
03FFF0007FFE
001FF0000FF0
000FF80007E0
0007F80007C0
0007FC000380
0007FC000380
0007FC000780
00077E000700
00077E000700
00073F000700
000E3F000F00
000E1F800E00
000E1F800E00
001E1F800E00
001C0FC01E00
001C0FC01C00
001C07E01C00
003C07E01C00
003803F03C00
003803F03800
003803F83800
007001F87800
007001F87000
007000FC7000
00F000FC7000
00E0007EF000
00E0007EE000
00E0003FE000
01E0003FE000
01C0003FE000
01C0001FC000
03C0001FC000
03C0000FC000
07E0000FC000
0FE000078000
FFFE00078000
FFFE00078000
FFFE00070000
000000070000
000000070000
0000F0070000
0001F80E0000
0003F80E0000
0003F81E0000
0003F01C0000
0003E03C0000
0003E0380000
0003E0780000
0003F1F00000
0001FFE00000
0000FF800000
000008000000
ENDCHAR
STARTCHAR 014B
ENCODING 331
SWIDTH 596 0
DWIDTH 31 0
BBX 28 42 1 -14
BITMAP
01E00F80
07F03FE0
0FF0FFE0
1CF1E3E0
18F183F0
30F383E0
60F703E0
61FE03E0
41EC07E0
C1F807C0
C3F807C0
03F007C0
03F00FC0
03E00F80
07E00F80
07C00F80
07C01F00
0F801F00
0F801F00
0F801F00
1F003E00
1F003E00
1F003E00
3E007C00
3E007C00
3C007C00
7C007C00
7C00F800
0000F800
0000F800
0001F000
0001F000
0001F000
0001E000
0203C000
0783C000
0F878000
0FC70000
0FFE0000
07FC0000
03F80000
00800000
ENDCHAR
STARTCHAR 014C
ENCODING 332
SWIDTH 826 0
DWIDTH 43 0
BBX 37 49 4 -1
BITMAP
00003FFF00
00007FFE00
00007FFE00
0000000000
0000000000
0000000000
0000000000
0000020000
0000FFF000
0003FFFC00
000FE07E00
003F001F00
007E000F80
00F80007C0
01F80007E0
03F00003E0
07E00003F0
0FC00003F0
0FC00003F0
1F800003F0
1F800003F8
3F000003F8
3F000003F8
7E000003F8
7E000003F8
7E000003F8
FE000003F8
FE000003F0
FC000003F0
FC000003F0
FC000003F0
FC000007F0
FC000007E0
FC000007E0
FC00000FC0
FC00000FC0
FC00000F80
FE00001F80
7E00001F00
7E00003E00
7E00007E00
3F0000FC00
1F0001F800
1F8003F000
0FC007C000
07F01F8000
01FFFE0000
007FF80000
0002000000
ENDCHAR
STARTCHAR 014D
ENCODING 333
SWIDTH 519 0
DWIDTH 27 0
BBX 26 40 1 -1
BITMAP
000FFFC0
000FFFC0
000FFFC0
00000000
00000000
00000000
00000000
00000000
00000000
00000000
00000000
000FC000
003FF000
00FFF800
01F83C00
03F03C00
07E01E00
0FC01E00
0F801F00
1F801F00
3F001F00
3F001F00
7E003F00
7E003F00
7E003E00
7E003E00
FC007E00
FC007C00
FC007C00
FC00FC00
FC00F800
FC01F000
7C01F000
7C03E000
7C07C000
3C0F8000
1E1F0000
1FFE0000
07F80000
00800000
ENDCHAR
STARTCHAR 014E
ENCODING 334
SWIDTH 826 0
DWIDTH 43 0
BBX 37 51 4 -1
BITMAP
00001801C0
00001E0780
00001FFF00
00000FFE00
00000FFC00
000003F000
0000000000
0000000000
0000000000
0000020000
0000FFF000
0003FFFC00
000FE07E00
003F001F00
007E000F80
00F80007C0
01F80007E0
03F00003E0
07E00003F0
0FC00003F0
0FC00003F0
1F800003F0
1F800003F8
3F000003F8
3F000003F8
7E000003F8
7E000003F8
7E000003F8
FE000003F8
FE000003F0
FC000003F0
FC000003F0
FC000003F0
FC000007F0
FC000007E0
FC000007E0
FC00000FC0
FC00000FC0
FC00000F80
FE00001F80
7E00001F00
7E00003E00
7E00007E00
3F0000FC00
1F0001F800
1F8003F000
0FC007C000
07F01F8000
01FFFE0000
007FF80000
0002000000
ENDCHAR
STARTCHAR 014F
ENCODING 335
SWIDTH 519 0
DWIDTH 27 0
BBX 26 41 1 -1
BITMAP
000C00C0
000C01C0
000F0780
000FFF00
000FFE00
0007FC00
0001F000
00000000
00000000
00000000
00000000
00000000
000FC000
003FF000
00FFF800
01F83C00
03F03C00
07E01E00
0FC01E00
0F801F00
1F801F00
3F001F00
3F001F00
7E003F00
7E003F00
7E003E00
7E003E00
FC007E00
FC007C00
FC007C00
FC00FC00
FC00F800
FC01F000
7C01F000
7C03E000
7C07C000
3C0F8000
1E1F0000
1FFE0000
07F80000
00800000
ENDCHAR
STARTCHAR 0150
ENCODING 336
SWIDTH 826 0
DWIDTH 43 0
BBX 37 51 4 -1
BITMAP
000001E078
000007F1F8
00000FE3F8
00003FCFF0
00007F1F80
0001F07C00
0000008000
0000000000
0000000000
0000020000
0000FFF000
0003FFFC00
000FE07E00
003F001F00
007E000F80
00F80007C0
01F80007E0
03F00003E0
07E00003F0
0FC00003F0
0FC00003F0
1F800003F0
1F800003F8
3F000003F8
3F000003F8
7E000003F8
7E000003F8
7E000003F8
FE000003F8
FE000003F0
FC000003F0
FC000003F0
FC000003F0
FC000007F0
FC000007E0
FC000007E0
FC00000FC0
FC00000FC0
FC00000F80
FE00001F80
7E00001F00
7E00003E00
7E00007E00
3F0000FC00
1F0001F800
1F8003F000
0FC007C000
07F01F8000
01FFFE0000
007FF80000
0002000000
ENDCHAR
STARTCHAR 0151
ENCODING 337
SWIDTH 519 0
DWIDTH 27 0
BBX 30 43 1 -1
BITMAP
0000E03C
0001F07C
0003F0FC
000FE1F8
001F83F0
003E07C0
00780F00
00E03800
00000000
00000000
00000000
00000000
00000000
00000000
000FC000
003FF000
00FFF800
01F83C00
03F03C00
07E01E00
0FC01E00
0F801F00
1F801F00
3F001F00
3F001F00
7E003F00
7E003F00
7E003E00
7E003E00
FC007E00
FC007C00
FC007C00
FC00FC00
FC00F800
FC01F000
7C01F000
7C03E000
7C07C000
3C0F8000
1E1F0000
1FFE0000
07F80000
00800000
ENDCHAR
STARTCHAR 0152
ENCODING 338
SWIDTH 1153 0
DWIDTH 60 0
BBX 54 40 4 0
BITMAP
000003FFFFFFFC
00003FFFFFFFFC
0001FFFFFFFFFC
0007F003F800FC
000FC003F0007C
003F0001F0003C
007E0003F0001C
00FC0003F0001C
01F80003E0000C
03F00003E0000C
07E00003E0000C
0FC00007E00000
1FC00007C01800
1F800007C01800
3F800007C03800
3F00000FC07800
7F00000F80F000
7F00000FFFF000
FE00000FFFF000
FE00001FFFF000
FE00001F83F000
FE00001F00E000
FC00001F00E000
FC00003F00E000
FC00003F00E000
FC00003E00E000
FC00003E00C000
FC00007E000000
FC00007E000000
FC00007C000038
7E00007C000030
7E00007C000070
3E0000FC000070
3F0000FC0000E0
1F8000FC0001E0
0FC001FC0003C0
07E001FE000FC0
01FE07FF80FFC0
007FFFFFFFFF80
000FFFFFFFFF80
ENDCHAR
STARTCHAR 0153
ENCODING 339
SWIDTH 788 0
DWIDTH 41 0
BBX 40 29 1 -1
BITMAP
000FC001F8
003FF007FC
00FFF81FFE
01F83C3C3E
03F03C781F
07E01EF01E
0FC01FE03E
0F801FC03E
1F801FC07C
3F001F8078
3F001F80F0
7E003F01E0
7E003F07C0
7E003F1F00
7E003E7E00
FC007FF000
FC007FC000
FC007E0000
FC00FC0000
FC00FC0000
FC01FC0020
7C01FC0070
7C03FC00E0
7C07FE01C0
3C0FFE0380
1E1F3F0F00
1FFE1FFE00
07F80FF800
0080008000
ENDCHAR
STARTCHAR 0154
ENCODING 340
SWIDTH 769 0
DWIDTH 40 0
BBX 38 50 -1 0
BITMAP
0000000380
0000001FC0
0000003F80
000000FF00
000003F800
00001F0000
0000000000
0000000000
0000000000
0000000000
007FFFF800
007FFFFF00
007FFFFFC0
0007F80FE0
0003F003F0
0003F003F0
0003E001F8
0003E001F8
0007E001F8
0007E001F8
0007C001F8
0007C001F8
000FC003F0
000F8003F0
000F8007E0
000F800FC0
001F803F80
001F01FF00
001FFFFC00
001FFFE000
003FFFC000
003E07C000
003E07E000
007E07E000
007C03F000
007C03F000
007C03F000
00FC01F800
00F801F800
00F800FC00
00F800FC00
01F000FC00
01F0007E00
01F0007E00
03F0003F00
03F0003F80
07F8003F80
1FFFC01FE0
7FFFC01FFC
FFFFC00FFC
ENDCHAR
STARTCHAR 0155
ENCODING 341
SWIDTH 461 0
DWIDTH 24 0
BBX 25 42 1 0
BITMAP
00000400
00001F00
00003F00
00007E00
0001FC00
0003E000
00078000
001E0000
00000000
00000000
00000000
00000000
00000000
00000000
00E01E00
03F07F00
07F0FF80
1FF1FF80
39F39F80
31F70F00
61FE0000
C1FC0000
41F80000
03F80000
03F00000
03F00000
03E00000
07E00000
07C00000
07C00000
0F800000
0F800000
0F800000
1F000000
1F000000
1F000000
3E000000
3E000000
3E000000
7C000000
7C000000
7C000000
ENDCHAR
STARTCHAR 0156
ENCODING 342
SWIDTH 769 0
DWIDTH 40 0
BBX 38 53 -1 -13
BITMAP
007FFFF800
007FFFFF00
007FFFFFC0
0007F80FE0
0003F003F0
0003F003F0
0003E001F8
0003E001F8
0007E001F8
0007E001F8
0007C001F8
0007C001F8
000FC003F0
000F8003F0
000F8007E0
000F800FC0
001F803F80
001F01FF00
001FFFFC00
003FFFE000
003FFFC000
003E07C000
003E07E000
007E07E000
007C03F000
007C03F000
007C03F000
00FC01F800
00F801F800
00F800FC00
01F800FC00
01F000FE00
01F0007E00
03F0007F00
03F0003F00
07F0003F80
0FF8003FC0
7FFFC01FFC
FFFFC01FFC
FFFFC00FFC
0000000000
0000000000
0000000000
0000700000
0000F80000
0001FC0000
0000FC0000
0000FC0000
00001C0000
0000380000
0000700000
0000E00000
0000C00000
ENDCHAR
STARTCHAR 0157
ENCODING 343
SWIDTH 461 0
DWIDTH 24 0
BBX 26 41 0 -13
BITMAP
00700F00
01F83F80
03F87FC0
0FF8FFC0
1CF9CFC0
18FB8780
30FF0000
60FE0000
20FC0000
01FC0000
01F80000
01F80000
01F00000
03F00000
03E00000
03E00000
07C00000
07C00000
07C00000
0F800000
0F800000
0F800000
1F000000
1F000000
1F000000
3E000000
3E000000
3E000000
00000000
00000000
00000000
78000000
FC000000
FC000000
FC000000
7C000000
1C000000
1C000000
38000000
F0000000
40000000
ENDCHAR
STARTCHAR 0158
ENCODING 344
SWIDTH 769 0
DWIDTH 40 0
BBX 38 50 -1 0
BITMAP
00007801C0
00003C0780
00001F3E00
00000FFC00
00000FF800
000007F000
0000000000
0000000000
0000000000
0000000000
007FFFF800
007FFFFF00
007FFFFFC0
0007F80FE0
0003F003F0
0003F003F0
0003E001F8
0003E001F8
0007E001F8
0007E001F8
0007C001F8
0007C001F8
000FC003F0
000F8003F0
000F8007E0
000F800FE0
001F803F80
001F01FF00
001FFFFC00
003FFFF000
003FFFC000
003E0FC000
003E07E000
007E07E000
007C03F000
007C03F000
007C03F000
00FC01F800
00F801F800
00F800FC00
01F800FC00
01F800FE00
01F0007E00
03F0007E00
03F0003F00
07F0003F80
0FF8003FC0
7FFFC01FFC
FFFFC01FFC
FFFFC00FFC
ENDCHAR
STARTCHAR 0159
ENCODING 345
SWIDTH 461 0
DWIDTH 24 0
BBX 26 41 1 0
BITMAP
00E001C0
00700700
003C1E00
003E7C00
001FF800
000FE000
000FC000
00000000
00000000
00000000
00000000
00000000
00000000
00E01E00
03F07F00
07F0FF80
1FF1FF80
39F39F80
31F70F00
61FE0000
C1FC0000
41F80000
03F80000
03F00000
03F00000
03E00000
07E00000
07C00000
07C00000
0F800000
0F800000
0F800000
1F000000
1F000000
1F000000
3E000000
3E000000
3E000000
7C000000
7C000000
7C000000
ENDCHAR
STARTCHAR 015A
ENCODING 346
SWIDTH 596 0
DWIDTH 31 0
BBX 30 51 1 -1
BITMAP
00000070
000001F8
000007F0
00001FE0
00007E00
0003E000
00000000
00000000
00000000
00002000
0003FF04
000FFF88
003F03D8
007C01F8
007800F8
00F00078
01F00070
01F00070
01F00070
01F00030
01F00030
01F80000
01FC0000
01FE0000
00FF0000
00FF8000
007FC000
003FF000
001FF800
000FFC00
0007FE00
0001FF00
0000FF00
00007F80
00003F80
00001FC0
00000FC0
30000FC0
300007C0
300007C0
700007C0
70000780
78000780
78000700
7C000F00
7E001E00
FF003C00
CFC0F800
C3FFF000
C1FFC000
00080000
ENDCHAR
STARTCHAR 015B
ENCODING 347
SWIDTH 384 0
DWIDTH 20 0
BBX 23 43 -1 -1
BITMAP
000004
00001E
00007E
0000FE
0001F8
0003E0
000780
001E00
000000
000000
000000
000000
000000
000000
003F00
00FFC0
01FFE0
03E3E0
03C3E0
07C1E0
07C0E0
07C000
07C000
07E000
07F000
03F800
03F800
01FC00
00FE00
007E00
007F00
003F00
001F00
001F00
201F00
780F00
F80F00
F81E00
FC1E00
7C3C00
7FF800
1FE000
030000
ENDCHAR
STARTCHAR 015C
ENCODING 348
SWIDTH 596 0
DWIDTH 31 0
BBX 30 51 1 -1
BITMAP
00003F80
00007F80
0000FFC0
0001F3E0
000781F0
000E0078
00000000
00000000
00000000
00002000
0003FF04
000FFF88
003F03F8
007C01F8
007800F8
00F00078
01F00070
01F00070
01F00070
01F00030
01F00030
01F80000
01FC0000
01FE0000
00FF0000
00FF8000
007FC000
003FF000
001FF800
000FFC00
0007FE00
0001FF00
0000FF00
00007F80
00003F80
00001FC0
00000FC0
30000FC0
300007C0
300007C0
700007C0
70000780
78000780
78000700
7C000F00
7E001E00
FF003C00
CFC0F800
C3FFF000
C1FFC000
00080000
ENDCHAR
STARTCHAR 015D
ENCODING 349
SWIDTH 384 0
DWIDTH 20 0
BBX 23 41 -1 -1
BITMAP
0003E0
000FF0
001FF8
003EF8
00783C
01E01E
020000
000000
000000
000000
000000
000000
003F00
00FFC0
01FFE0
03E3E0
03C3E0
07C1E0
07C0E0
07C000
07C000
07E000
07F000
03F800
03F800
01FC00
00FE00
007E00
007F00
003F00
001F00
001F00
201F00
780F00
F80F00
F81E00
FC1E00
7C3C00
7FF800
1FE000
030000
ENDCHAR
STARTCHAR 015E
ENCODING 350
SWIDTH 596 0
DWIDTH 31 0
BBX 30 55 1 -14
BITMAP
00002000
0003FF04
000FFF88
003F03F8
007C01F8
007800F8
00F00078
01F00070
01F00070
01F00070
01F00030
01F00030
01F80000
01FC0000
01FE0000
00FF0000
00FF8000
007FC000
003FF000
001FF800
000FFC00
0007FE00
0001FF00
0000FF00
00007F80
00003F80
00001FC0
00000FC0
30000FC0
300007C0
300007C0
700007C0
70000780
78000780
78000780
7C000F00
7E001E00
FF003C00
CFC0F800
C7FFF000
C1FFC000
00380000
00300000
00700000
00E00000
00FE0000
01FF0000
001F0000
000F0000
0E0F0000
1E0F0000
1E3E0000
0FFC0000
07F00000
00800000
ENDCHAR
STARTCHAR 015F
ENCODING 351
SWIDTH 384 0
DWIDTH 20 0
BBX 22 42 -4 -14
BITMAP
0007E0
001FF8
003FFC
007C7C
00787C
00F83C
00F81C
00F800
00F800
00FC00
00FE00
007F00
007F00
003F80
001FC0
000FC0
000FE0
0007E0
0003E0
0003E0
0601E0
0F01E0
1F01E0
1F83C0
1F83C0
0F8780
0FFF00
03FC00
01E000
038000
038000
070000
0FE000
1FF800
00F800
007800
607800
F0F800
F1F000
FFE000
7F8000
0C0000
ENDCHAR
STARTCHAR 0160
ENCODING 352
SWIDTH 596 0
DWIDTH 31 0
BBX 30 51 1 -1
BITMAP
0007003C
0003C0F0
0001F3E0
0001FFC0
0000FF80
00007E00
00000000
00000000
00000000
00002000
0003FF04
000FFF88
003F03F8
007C01F8
00F800F8
00F00078
01F00070
01F00070
01F00070
01F00030
01F00020
01F80000
01FC0000
01FE0000
00FF0000
00FF8000
007FC000
003FF000
001FF800
000FFC00
0007FE00
0001FF00
0000FF00
00007F80
00003F80
00001FC0
00000FC0
300007C0
300007C0
300007C0
700007C0
78000780
78000780
78000700
7C000F00
7E001E00
FF003C00
CFE1F800
C3FFF000
C0FFC000
00080000
ENDCHAR
STARTCHAR 0161
ENCODING 353
SWIDTH 384 0
DWIDTH 20 0
BBX 25 42 -1 -1
BITMAP
00C00180
00700700
00781E00
003EF800
001FF000
001FE000
000FC000
00000000
00000000
00000000
00000000
00000000
00000000
003F0000
00FFC000
01FFE000
03E3E000
03C3E000
07C1E000
07C0E000
07C00000
07C00000
07E00000
07F00000
03F80000
03F80000
01FC0000
00FE0000
007E0000
007F0000
003F0000
001F0000
001F0000
201F0000
780F0000
F80F0000
F81E0000
FC1E0000
7C3C0000
7FF80000
1FE00000
03000000
ENDCHAR
STARTCHAR 0162
ENCODING 354
SWIDTH 788 0
DWIDTH 41 0
BBX 40 54 4 -14
BITMAP
07FFFFFFFF
0FFFFFFFFF
0FFFFFFFFF
1FC03FC03E
1F003F801E
1E003F000E
3C003F000E
38003F000E
70003E0006
60003E0006
E0007E0006
00007C0000
00007C0000
00007C0000
0000FC0000
0000F80000
0000F80000
0000F80000
0001F80000
0001F00000
0001F00000
0003F00000
0003E00000
0003E00000
0003E00000
0007E00000
0007C00000
0007C00000
0007C00000
000FC00000
000F800000
000F800000
001F800000
001F000000
001F000000
003F000000
007F800000
0FFFFC0000
0FFFFC0000
0FFFFC0000
000E000000
001C000000
0018000000
0038000000
007F800000
00FFC00000
0007C00000
0003C00000
0303C00000
0787800000
078F800000
07FF000000
03FC000000
0060000000
ENDCHAR
STARTCHAR 0163
ENCODING 355
SWIDTH 365 0
DWIDTH 19 0
BBX 22 49 -3 -14
BITMAP
0003E0
0003C0
0007C0
0007C0
000780
000F80
000F80
000F80
001F00
001F04
03FFF8
03FFF8
003E00
003E00
003C00
007C00
007C00
007C00
00F800
00F800
00F800
00F000
01F000
01F000
01E000
03E000
03E060
03C0E0
07C0C0
07C180
07C780
07FF00
07FC00
07F800
03F000
01C000
038000
070000
070000
0FF000
1FF800
00F800
00F800
E0F800
E0F000
F1F000
FFE000
7F8000
0C0000
ENDCHAR
STARTCHAR 0164
ENCODING 356
SWIDTH 788 0
DWIDTH 41 0
BBX 40 50 4 0
BITMAP
00007003C0
00003C0F00
00003F3E00
00001FFC00
00000FF000
00000FE000
0000000000
0000000000
0000000000
0000000000
07FFFFFFFF
0FFFFFFFFF
0FFFFFFFFF
1FC03FC03E
1F003F801E
1E003F000E
3C003F000E
38003F000E
70003E0006
60003E0006
E0007E0006
00007C0000
00007C0000
00007C0000
0000FC0000
0000F80000
0000F80000
0000F80000
0001F80000
0001F00000
0001F00000
0003F00000
0003E00000
0003E00000
0003E00000
0007E00000
0007C00000
0007C00000
0007C00000
000FC00000
000F800000
000F800000
001F800000
001F000000
001F000000
003F000000
007F800000
0FFFFC0000
0FFFFC0000
0FFFFC0000
ENDCHAR
STARTCHAR 0165
ENCODING 357
SWIDTH 365 0
DWIDTH 19 0
BBX 24 42 2 -1
BITMAP
000004
00001F
00003F
00003F
00003F
000017
007C0E
00781C
00F838
00F870
00F040
01F000
01F000
01F000
03E000
03E080
7FFF00
7FFF00
07C000
07C000
078000
0F8000
0F8000
0F8000
1F0000
1F0000
1F0000
1E0000
3E0000
3E0000
3C0000
7C0000
7C0C00
780C00
781800
F83000
F8F000
FFE000
FFC000
FF0000
7E0000
100000
ENDCHAR
STARTCHAR 0166
ENCODING 358
SWIDTH 788 0
DWIDTH 41 0
BBX 40 40 4 0
BITMAP
07FFFFFFFF
07FFFFFFFF
0FFFFFFFFF
0FC03FC03F
1F001F801F
1E001F800E
3C001F000E
38003F0006
30003F0006
60003E0006
60003E0006
80007E0000
00007C0000
00007C0000
00007C0000
0000FC0000
0000F80000
3FFFFFFFE0
3FFFFFFFE0
3FFFFFFFE0
0001F00000
0001F00000
0003F00000
0003E00000
0003E00000
0003E00000
0007E00000
0007C00000
0007C00000
000FC00000
000FC00000
000F800000
000F800000
001F800000
001F800000
003F800000
007F800000
0FFFFE0000
0FFFFC0000
0FFFFC0000
ENDCHAR
STARTCHAR 0167
ENCODING 359
SWIDTH 365 0
DWIDTH 19 0
BBX 17 36 2 -1
BITMAP
007C00
007800
00F800
00F800
00F800
01F000
01F000
01F000
01E000
03E080
7FFF00
7FFF00
07C000
07C000
07C000
7FFE00
FFFE00
FFFC00
1F0000
1F0000
1F0000
1E0000
3E0000
3E0000
3C0000
7C0000
7C0C00
7C0C00
781800
F83000
F8F000
FFE000
FFC000
FF0000
7E0000
100000
ENDCHAR
STARTCHAR 0168
ENCODING 360
SWIDTH 807 0
DWIDTH 42 0
BBX 40 51 6 -1
BITMAP
0000780600
0000FE0600
0001FF8E00
0003FFFC00
00031FFC00
000607F800
000601F000
0000000000
0000000000
0000000000
7FFF803FFF
FFFF807FFE
FFFF807FFE
0FF00007E0
07F00003E0
07E00003C0
07E00003C0
07C00003C0
07C0000380
0FC0000380
0F80000380
0F80000380
1F80000780
1F80000700
1F00000700
1F00000700
3F00000700
3F00000E00
3E00000E00
3E00000E00
7E00000E00
7C00001E00
7C00001C00
7C00001C00
FC00001C00
F800003800
F800003800
F800003800
F800007000
F800007000
F80000E000
F80000E000
FC0001C000
7C0003C000
7C00078000
3E000F0000
3F001E0000
1FC07C0000
0FFFF80000
03FFE00000
000C000000
ENDCHAR
STARTCHAR 0169
ENCODING 361
SWIDTH 596 0
DWIDTH 31 0
BBX 28 41 1 -1
BITMAP
0007C060
001FF860
001FFFC0
003FFFC0
0030FF80
00601F00
00000000
00000000
00000000
00000000
00000000
00000000
00F003E0
03F803E0
07F807C0
0FF807C0
1DF807C0
39F00F80
71F00F80
61F01F80
C3E01F00
03E01F00
07E03F00
07C03E00
07C03E00
0FC07E00
0F807C00
1F80FC00
1F01FC00
1F01F800
3F03F800
3E03F830
3E07F860
3E0EF060
7E1CF0C0
7E3CF1C0
7E78F380
3FF0FF00
3FE0FE00
1F80FC00
04002000
ENDCHAR
STARTCHAR 016A
ENCODING 362
SWIDTH 807 0
DWIDTH 42 0
BBX 40 49 6 -1
BITMAP
0001FFFC00
0001FFF800
0001FFF800
0000000000
0000000000
0000000000
0000000000
0000000000
7FFF803FFF
FFFF807FFE
FFFF807FFE
0FF00007E0
07F00003E0
07E00003C0
07E00003C0
07C00003C0
07C0000380
0FC0000380
0F80000380
0F80000380
1F80000780
1F80000700
1F00000700
1F00000700
3F00000700
3F00000E00
3E00000E00
3E00000E00
7E00000E00
7C00001E00
7C00001C00
7C00001C00
FC00001C00
F800003800
F800003800
F800003800
F800007000
F800007000
F80000E000
F80000E000
FC0001C000
7C0003C000
7C00078000
3E000F0000
3F001E0000
1FC07C0000
0FFFF80000
03FFE00000
000C000000
ENDCHAR
STARTCHAR 016B
ENCODING 363
SWIDTH 596 0
DWIDTH 31 0
BBX 28 40 1 -1
BITMAP
001FFFC0
001FFF80
001FFF80
00000000
00000000
00000000
00000000
00000000
00000000
00000000
00000000
00F003E0
03F803E0
07F807C0
0FF807C0
1DF807C0
39F00F80
71F00F80
61F01F80
C3E01F00
03E01F00
07E03F00
07C03E00
07C03E00
0FC07E00
0F807C00
1F80FC00
1F01FC00
1F01F800
3F03F800
3E03F830
3E07F860
3E0EF060
7E1CF0C0
7E3CF1C0
7E78F380
3FF0FF00
3FE0FE00
1F80FC00
04002000
ENDCHAR
STARTCHAR 016C
ENCODING 364
SWIDTH 807 0
DWIDTH 42 0
BBX 40 51 6 -1
BITMAP
0000C00C00
0000E03800
0000FFF800
0000FFF000
00007FC000
00003F0000
0000000000
0000000000
0000000000
0000000000
7FFF803FFF
FFFF807FFE
FFFF807FFE
0FF00007E0
07F00003E0
07E00003C0
07E00003C0
07C00003C0
07C0000380
0FC0000380
0F80000380
0F80000380
1F80000780
1F80000700
1F00000700
1F00000700
3F00000700
3F00000E00
3E00000E00
3E00000E00
7E00000E00
7C00001E00
7C00001C00
7C00001C00
FC00001C00
F800003800
F800003800
F800003800
F800007000
F800007000
F80000E000
F80000E000
FC0001C000
7C0003C000
7C00078000
3E000F0000
3F001E0000
1FC07C0000
0FFFF80000
03FFE00000
000C000000
ENDCHAR
STARTCHAR 016D
ENCODING 365
SWIDTH 596 0
DWIDTH 31 0
BBX 28 41 1 -1
BITMAP
000C00C0
000E01C0
000F0780
000FFF00
0007FE00
0007FC00
0001F000
00000000
00000000
00000000
00000000
00000000
00F003E0
03F803E0
07F807C0
0FF807C0
1DF807C0
39F00F80
71F00F80
61F01F80
C3E01F00
03E01F00
07E03F00
07C03E00
07C03E00
0FC07E00
0F807C00
1F80FC00
1F01FC00
1F01F800
3F03F800
3E03F830
3E07F860
3E0EF060
7E1CF0C0
7E3CF1C0
7E78F380
3FF0FF00
3FE0FE00
1F80FC00
04002000
ENDCHAR
STARTCHAR 016E
ENCODING 366
SWIDTH 807 0
DWIDTH 42 0
BBX 40 51 6 -1
BITMAP
0000038000
00000F8000
000018C000
000010C000
0000118000
00001F8000
00000E0000
0000000000
0000000000
0000000000
7FFF803FFF
FFFF807FFE
FFFF807FFE
0FF00007E0
07F00003E0
07E00003C0
07E00003C0
07C00003C0
07C0000380
0FC0000380
0F80000380
0F80000380
1F80000780
1F80000700
1F00000700
1F00000700
3F00000700
3F00000E00
3E00000E00
3E00000E00
7E00000E00
7C00001E00
7C00001C00
7C00001C00
FC00001C00
F800003800
F800003800
F800003800
F800007000
F800007000
F80000E000
F80000E000
FC0001C000
7C0003C000
7C00078000
3E000F0000
3F001E0000
1FC07C0000
0FFFF80000
03FFE00000
000C000000
ENDCHAR
STARTCHAR 016F
ENCODING 367
SWIDTH 596 0
DWIDTH 31 0
BBX 28 44 1 -1
BITMAP
00007C00
0000FE00
0001FE00
00038600
00030600
00030E00
0003FC00
0003F800
0001E000
00000000
00000000
00000000
00000000
00000000
00000000
00F003E0
03F803E0
07F807C0
0FF807C0
1DF807C0
39F00F80
71F00F80
61F01F80
C3E01F00
03E01F00
07E03F00
07C03E00
07C03E00
0FC07E00
0F807C00
1F80FC00
1F01FC00
1F01F800
3F03F800
3E03F830
3E07F860
3E0EF060
7E1CF0C0
7E3CF1C0
7E78F380
3FF0FF00
3FE0FE00
1F80FC00
04002000
ENDCHAR
STARTCHAR 0170
ENCODING 368
SWIDTH 807 0
DWIDTH 42 0
BBX 40 51 6 -1
BITMAP
00000781E0
00001F87E0
00003F8FE0
0000FF3FC0
0001F87E00
0007C3E000
0000000000
0000000000
0000000000
0000000000
7FFF803FFF
FFFF807FFE
FFFF807FFE
0FF00007E0
07F00003E0
07E00003C0
07E00003C0
07C00003C0
07C0000380
0FC0000380
0F80000380
0F80000380
1F80000780
1F80000700
1F00000700
1F00000700
3F00000700
3F00000E00
3E00000E00
3E00000E00
7E00000E00
7C00001E00
7C00001C00
7C00001C00
FC00001C00
F800003800
F800003800
F800003800
F800007000
F800007000
F80000E000
F80000E000
FC0001C000
7C0003C000
7C00078000
3E000F0000
3F001E0000
1FC07C0000
0FFFF80000
03FFE00000
000C000000
ENDCHAR
STARTCHAR 0171
ENCODING 369
SWIDTH 596 0
DWIDTH 31 0
BBX 31 43 1 -1
BITMAP
0000701E
0000F83E
0001F87E
0003F0FC
000FC1F8
001F03E0
003C0780
00701E00
00000000
00000000
00000000
00000000
00000000
00000000
00F003E0
03F803E0
07F807C0
0FF807C0
1DF807C0
39F00F80
71F00F80
61F01F80
C3E01F00
03E01F00
07E03F00
07C03E00
07C03E00
0FC07E00
0F807C00
1F80FC00
1F01FC00
1F01F800
3F03F800
3E03F830
3E07F860
3E0EF060
7E1CF0C0
7E3CF1C0
7E78F380
3FF0FF00
3FE0FE00
1F80FC00
04002000
ENDCHAR
STARTCHAR 0172
ENCODING 370
SWIDTH 807 0
DWIDTH 42 0
BBX 40 52 6 -12
BITMAP
7FFF803FFF
FFFF807FFE
FFFF807FFE
0FF00007E0
07F00003E0
07E00003C0
07E00003C0
07C00003C0
07C0000380
0FC0000380
0F80000380
0F80000380
0F80000780
1F80000700
1F00000700
1F00000700
3F00000700
3F00000E00
3E00000E00
3E00000E00
7E00000E00
7C00001E00
7C00001C00
7C00001C00
FC00001C00
F800003800
F800003800
F800003800
F800007000
F800007000
F80000E000
F80000E000
FC0001C000
7C0003C000
7C00078000
3E000F0000
3F001E0000
1FC07C0000
0FFFF80000
03FFE00000
007C000000
01E0000000
03C0000000
0780000000
0F00000000
0F00000000
1E00000000
1E03000000
1F07800000
0FFE000000
0FFC000000
03F0000000
ENDCHAR
STARTCHAR 0173
ENCODING 371
SWIDTH 596 0
DWIDTH 31 0
BBX 28 40 1 -12
BITMAP
00F003E0
03F803E0
07F807C0
0FF807C0
1DF807C0
39F00F80
71F00F80
61F01F80
C3E01F00
03E01F00
07E03F00
07C03E00
07C03E00
0FC07E00
0F807C00
1F80FC00
1F01FC00
1F01F800
3F03F800
3E03F830
3E07F860
3E0EF060
7E1CF0C0
7E3CF1C0
7E78F380
3FF0FF00
3FE0FE00
1F80FC00
0403E000
00078000
000E0000
001E0000
003C0000
00780000
00780000
00780800
007C3C00
007FF800
003FF000
001F8000
ENDCHAR
STARTCHAR 0174
ENCODING 372
SWIDTH 1057 0
DWIDTH 55 0
BBX 57 51 6 -1
BITMAP
0000001F80000000
0000003FC0000000
0000007FE0000000
000001FBE0000000
000003C0F0000000
00000F0038000000
0000000000000000
0000000000000000
0000000000000000
0000000000000000
1FFFC7FFF01FFF80
1FFF87FFF01FFF80
1FFF87FFF01FFF00
01FC007F0003F800
01F8007E0003E000
01F8007E0007C000
01F0007C00078000
01F0007C000F0000
01F0007C001E0000
01F0007C001C0000
03F000F800380000
03E001F800700000
03E003F800F00000
03E003F801E00000
03E007F001C00000
07C00FF003800000
07C01FF007800000
07C01DF00F000000
07C03BF00E000000
0FC07BE01C000000
0F80F3E038000000
0F81E3E078000000
0F81C3E0F0000000
0F8387C0E0000000
1F0787C1C0000000
1F0F07C3C0000000
1F0E07C780000000
1F1C0FC700000000
3F3C0F8E00000000
3E780F9E00000000
3EF00FBC00000000
3EE00FF800000000
3FE01F7000000000
7FC01FF000000000
7F801FE000000000
7F001FC000000000
7E003F8000000000
FE003F0000000000
FC003F0000000000
F8003E0000000000
F0007C0000000000
ENDCHAR
STARTCHAR 0175
ENCODING 373
SWIDTH 846 0
DWIDTH 44 0
BBX 41 42 1 -1
BITMAP
0000001F0000
0000003F0000
000000FF8000
000001FFC000
000003C3C000
00000701E000
00001C007000
000000000000
000000000000
000000000000
000000000000
000000000000
000000000000
0F8180700700
1FC380F80F80
3FFF81F80F80
73FF03FC0F80
F1FE03BC0F80
F83C073C0F80
F83807380F80
FC380E380780
78700E380780
30F00E380780
00E00E700780
01E01E700780
01C01E600700
03C01EE00F00
03C01EC00F00
07801FC00E00
07801F800E00
07801F801E00
0F801F001C00
0F801F003800
0F803F007800
0F807F807000
0FC0FF80F000
0FC1FFC1E000
07FFE7FFC000
07FFC7FF8000
03FF03FF0000
01FE01FC0000
002000200000
ENDCHAR
STARTCHAR 0176
ENCODING 374
SWIDTH 692 0
DWIDTH 36 0
BBX 36 50 5 0
BITMAP
00003F8000
00007F8000
0000FFC000
0003F7E000
000781E000
001E007000
0000000000
0000000000
0000000000
0000000000
FFFE01FFF0
FFFE03FFE0
FFFC03FFE0
1FE0007F00
0FE0003E00
07E0003C00
07E0007800
03F0007000
03F000F000
01F001E000
01F801C000
00F8038000
00FC078000
00FC070000
007E0E0000
007E1E0000
003E1C0000
003F380000
001F700000
001FF00000
001FE00000
000FC00000
000FC00000
000F800000
000F800000
000F800000
001F800000
001F000000
001F000000
003F000000
003F000000
003E000000
003E000000
007E000000
007E000000
00FE000000
01FE000000
3FFFF00000
3FFFF00000
3FFFF00000
ENDCHAR
STARTCHAR 0177
ENCODING 375
SWIDTH 519 0
DWIDTH 27 0
BBX 32 55 -6 -14
BITMAP
000003C0
00000FE0
00001FF0
00003FF0
00007878
0000E03C
0003800E
00000000
00000000
00000000
00000000
00000000
00000000
001E000E
003E001F
007F001F
007F001F
00FF801F
01FF801F
018F801F
0187C01E
0307C01E
0303C01E
0303C01C
0303E01C
0003E03C
0003E038
0001E038
0001E070
0001F070
0001F060
0001F0E0
0000F1C0
0000F9C0
0000FB80
0000FF80
0000FF00
00007E00
00007E00
00007C00
00007800
00007800
00007000
0000E000
0001C000
0001C000
00038000
00070000
700E0000
F81C0000
F8380000
FCF00000
7FE00000
3F800000
08000000
ENDCHAR
STARTCHAR 0178
ENCODING 376
SWIDTH 692 0
DWIDTH 36 0
BBX 36 50 5 0
BITMAP
0001C0F000
0003E1F000
0007E1F000
0007C1F000
000381E000
0000000000
0000000000
0000000000
0000000000
0000000000
FFFE01FFF0
FFFE03FFE0
FFFC03FFE0
1FE0007F00
0FE0003E00
07E0003C00
07E0007800
03F0007000
03F000F000
01F001E000
01F801C000
00F8038000
00FC078000
00FC070000
007E0E0000
007E1E0000
003E1C0000
003F380000
001F700000
001FF00000
001FE00000
000FC00000
000FC00000
000F800000
000F800000
000F800000
001F800000
001F000000
001F000000
003F000000
003F000000
003E000000
003E000000
007E000000
007E000000
00FE000000
01FE000000
3FFFF00000
3FFFF00000
3FFFF00000
ENDCHAR
STARTCHAR 0179
ENCODING 377
SWIDTH 673 0
DWIDTH 35 0
BBX 36 50 0 0
BITMAP
0000000700
0000001F80
0000007F00
000001FE00
000007F000
00003F0000
0000000000
0000000000
0000000000
0000000000
001FFFFFF0
003FFFFFF0
003FFFFFE0
007E001FC0
0078003FC0
00F0003F80
00E0007F00
01C000FE00
018001FC00
030003FC00
000003F800
000007F000
00000FE000
00001FE000
00001FC000
00003F8000
00007F0000
0000FF0000
0001FE0000
0001FC0000
0003F80000
0007F00000
000FF00000
000FE00000
001FC00000
003F800000
007F800000
00FF000000
00FE000100
01FC000600
03FC000E00
07F8000E00
07F0001C00
0FE0003C00
1FE0007800
3FC001F800
3F8007F800
7FFFFFF000
FFFFFFF000
FFFFFFE000
ENDCHAR
STARTCHAR 017A
ENCODING 378
SWIDTH 519 0
DWIDTH 27 0
BBX 25 43 0 -1
BITMAP
00000200
00000F00
00001F80
00007F00
0000FE00
0001F000
0003C000
000F0000
00000000
00000000
00000000
00000000
00000000
00000000
00FC0100
03FF0380
07FF8380
0E7FC780
1C1FFF00
1C07FE00
1E03FC00
1F00F800
1F807000
1F80E000
0F01C000
00078000
000F0000
001E0000
003C0000
00780000
00F00000
01E00000
03C00000
07800100
0FC00380
1FF80300
3FFE0700
7FFFDE00
F0FFFC00
F07FFC00
E03FF800
E00FE000
00010000
ENDCHAR
STARTCHAR 017B
ENCODING 379
SWIDTH 673 0
DWIDTH 35 0
BBX 36 50 0 0
BITMAP
000001C000
000003E000
000003E000
000003E000
000003E000
000001C000
0000000000
0000000000
0000000000
0000000000
001FFFFFF0
003FFFFFF0
003FFFFFE0
007E001FC0
0078003FC0
00F0003F80
00E0007F00
01C000FE00
018001FC00
030003FC00
000003F800
000007F000
00000FE000
00001FE000
00001FC000
00003F8000
00007F0000
0000FF0000
0001FE0000
0001FC0000
0003F80000
0007F00000
000FF00000
000FE00000
001FC00000
003F800000
007F800000
00FF000000
00FE000100
01FC000600
03FC000E00
07F8000E00
07F0001C00
0FE0003C00
1FE0007800
3FC001F800
3F8007F800
7FFFFFF000
FFFFFFF000
FFFFFFE000
ENDCHAR
STARTCHAR 017C
ENCODING 380
SWIDTH 519 0
DWIDTH 27 0
BBX 25 43 0 -1
BITMAP
0001E000
0003F000
0003F000
0003F000
0003F000
0001E000
00000000
00000000
00000000
00000000
00000000
00000000
00000000
00000000
00FC0100
03FF0380
07FF8380
0E7FC780
1C1FFF00
1C07FE00
1E03FC00
1F00F800
1F807000
1F80E000
0F01C000
00078000
000F0000
001E0000
003C0000
00780000
00F00000
01E00000
03C00000
07800100
0FC00380
1FF80300
3FFE0700
7FFFDE00
F0FFFC00
F07FFC00
E03FF800
E00FE000
00010000
ENDCHAR
STARTCHAR 017D
ENCODING 381
SWIDTH 673 0
DWIDTH 35 0
BBX 36 50 0 0
BITMAP
00007003C0
00003C0F00
00003E3E00
00001FF800
00000FF000
00000FE000
0000000000
0000000000
0000000000
0000000000
001FFFFFF0
003FFFFFF0
003FFFFFE0
007E001FC0
0078003FC0
00F0003F80
00E0007F00
01C000FE00
018001FC00
030003FC00
000003F800
000007F000
00000FE000
00001FE000
00001FC000
00003F8000
00007F0000
0000FF0000
0001FE0000
0001FC0000
0003F80000
0007F00000
000FF00000
000FE00000
001FC00000
003F800000
007F800000
00FF000000
00FE000100
01FC000600
03FC000E00
07F8000E00
07F0001C00
0FE0003C00
1FC0007800
3FC001F800
7F8007F800
7FFFFFF000
FFFFFFF000
FFFFFFE000
ENDCHAR
STARTCHAR 017E
ENCODING 382
SWIDTH 519 0
DWIDTH 27 0
BBX 26 42 0 -1
BITMAP
007000C0
00380380
001E0F00
001F3E00
000FFC00
0007F000
0007E000
00000000
00000000
00000000
00000000
00000000
00000000
00FC0100
03FF0380
07FF8380
0E7FC780
1C1FFF00
1C07FE00
1E03FC00
1F00F800
1F807000
1F80E000
0F01C000
00078000
000F0000
001E0000
003C0000
00780000
00F00000
01E00000
03C00000
07800100
0FC00380
1FF80300
3FFE0700
7FFFDE00
F0FFFC00
F07FFC00
E03FF800
E00FE000
00010000
ENDCHAR
STARTCHAR 018F
ENCODING 399
SWIDTH 634 0
DWIDTH 33 0
BBX 32 42 1 -1
BITMAP
00000400
0000FFC0
0007FFF0
000FFFF8
001E01FC
007C00FC
00F000FE
00E0007E
01C0007E
03C0007E
0180007F
0080007F
0000007F
0000007F
0000007F
0000007E
0000007E
000003FE
00003FFE
0000FFFE
0003FFFC
000FF8FC
003FC0FC
00FF01F8
01FE01F8
03F803F0
07F003F0
0FE003E0
1FC007E0
3F800FC0
7F000F80
7F001F80
FE003F00
FE003E00
FC007C00
FC00F800
FC01F000
FE03E000
7F0F8000
3FFE0000
1FF80000
01000000
ENDCHAR
STARTCHAR 0192
ENCODING 402
SWIDTH 461 0
DWIDTH 24 0
BBX 31 51 -2 -8
BITMAP
000003E0
00000FF8
00001FFC
00003C1E
0000781E
0000781E
0000F03C
0000F078
0000F000
0001E000
0001E000
0001E000
0001E000
0003E000
0003C000
003FFE00
007FFE00
007FFE00
0003C000
0007C000
0007C000
00078000
00078000
00078000
000F8000
000F8000
000F8000
000F0000
000F0000
000F0000
001F0000
001F0000
001F0000
001E0000
001E0000
001E0000
003E0000
003E0000
003E0000
003C0000
003C0000
003C0000
787C0000
FC780000
F0780000
F0700000
F0F00000
F1E00000
FFC00000
7F800000
04000000
ENDCHAR
STARTCHAR 01C4
ENCODING 452
SWIDTH 1500 0
DWIDTH 78 0
BBX 82 50 -2 0
BITMAP
0000000000000003800E00
0000000000000001E07800
0000000000000000F9F000
0000000000000000FFE000
00000000000000007FC000
00000000000000003F8000
0000000000000000000000
0000000000000000000000
0000000000000000000000
0000000000000000000000
003FFFFC000000FFFFFFC0
003FFFFFC00000FFFFFF80
0003FFFFF00001FFFFFF80
0001F803F80001F0007F00
0001F800FC0003C000FE00
0001F0007E00038001FC00
0001F0003F00070003F800
0003F0001F80060007F800
0003F0000F800E0007F000
0003E0000FC01C000FE000
0003E00007C000001FC000
0007E00007E000003FC000
0007C00007E000003F8000
0007C00007E000007F0000
0007C00007E00000FE0000
000FC00007E00001FE0000
000F800007E00003FC0000
000F800007E00003F80000
001F800007E00007F00000
001F800007E0000FE00000
001F000007E0001FE00000
001F000007E0001FC00000
003F000007E0003F800000
003F00000FC0007F000000
003E00000FC000FF000000
003E00000FC001FE000000
007E00001F8001FC000000
007C00001F8003F8000000
007C00003F0007F8000000
007C00007F000FF0003800
00FC00007E000FE0003000
00F80000FC001FC0007000
00F80001F8003F8000F000
01F80003F0007F8001E000
01F80007E000FF0003E000
01F8001FC000FE0007C000
03FC007F8001FC003FC000
7FFFFFFE0003FFFFFFC000
7FFFFFF80007FFFFFF8000
FFFFFF000007FFFFFF8000
ENDCHAR
STARTCHAR 01C5
ENCODING 453
SWIDTH 1346 0
DWIDTH 70 0
BBX 72 42 -2 -1
BITMAP
000000000000018003
003FFFFC000001E00E
003FFFFFC00000F03C
0003FFFFF000007DF0
0001F803F800007FE0
0001F800FC00003FC0
0001F0007E00001F80
0001F0003F00000000
0003F0001F80000000
0003F0000F80000000
0003E0000FC0000000
0003E00007C0000000
0007E00007E0000000
0007C00007E007E004
0007C00007E01FF80E
0007C00007E03FFC1E
000FC00007E079FF1E
000F800007E0607FFC
000F800007E0F03FF8
001F800007E0F80FF0
001F800007E0FC03E0
001F000007E0FC03C0
001F000007E07C0780
003F000007E0780F00
003F00000FC0001C00
003E00000FC0003800
003E00000FC0007000
007E00001F8000E000
007C00001F8001C000
007C00003F00038000
007C00007F00070000
00FC00007E000E0000
00F80000FC001C000C
00F80001F8003F800C
01F80003F0007FE018
01F80007E000FFF838
01F8001FC001CFFFF0
03FC007F800383FFF0
7FFFFFFE000781FFE0
7FFFFFF8000780FFC0
FFFFFF000007007F80
000000000000000800
ENDCHAR
STARTCHAR 01C6
ENCODING 454
SWIDTH 1115 0
DWIDTH 58 0
BBX 57 44 1 -1
BITMAP
00000FFC00000000
00000FFC00000000
00001FF800000080
000000F801E00700
000000F800F01E00
000000F8007C7800
000000F0003FF000
000001F0001FE000
000001F0001FC000
000001E000000000
000003E000000000
000003E000000000
000003E000000000
000003C000000000
000007C000000000
0007C7C003F00600
001FF7C00FFC0F00
007FFF801FFE0F00
00F83F8038FF9E00
01F01F80707FFC00
03E01F00701FFC00
07C01F00780FF800
07801F007C01F000
0F801F007E01E000
1F003E007E038000
1F003E003C070000
3E003E00000E0000
7E003E00003C0000
7C007C0000780000
7C007C0000F00000
FC00FC0001E00000
F800FC0003C00000
F800F80007800000
F801F8280F000000
F803F8301E000000
F803F8303E000600
F807F8707FC00C00
F80FF860FFF01C00
F80EF8E1FFFC3800
FC3CF9C3E7FFF800
7FF8FF83C1FFF000
3FF0FF0380FFE000
1FC07E03803F8000
0400100000040000
ENDCHAR
STARTCHAR 01C7
ENCODING 455
SWIDTH 1250 0
DWIDTH 65 0
BBX 70 41 -1 -1
BITMAP
007FFFC0000007FFFC
007FFFC0000007FFFC
007FFFC000000FFFF8
0007F8000000003F80
0003F0000000003F80
0003F0000000003F00
0003E0000000003F00
0007E0000000003E00
0007E0000000007E00
0007C0000000007E00
0007C0000000007C00
000FC0000000007C00
000FC000000000FC00
000F8000000000FC00
000F8000000000F800
001F8000000000F800
001F8000000001F800
001F0000000001F000
001F0000000001F000
003F0000000001F000
003E0000000003F000
003E0000000003E000
003E0000000003E000
007E0000000003E000
007C0000000007E000
007C0000000007C000
007C0000000007C000
00FC000000000FC000
00F80000E1E00FC000
00F80000E3F00F8000
00F80000C7F00F8000
01F80001C7F01F8000
01F000038FF01F0000
01F000038FE03F0000
03F000078FC03E0000
03F0000F0F807E0000
07F8003F07C0FC0000
0FFC01FF07E3F80000
FFFFFFFE03FFF00000
FFFFFFFE00FFC00000
000000000008000000
ENDCHAR
STARTCHAR 01C8
ENCODING 456
SWIDTH 980 0
DWIDTH 51 0
BBX 52 57 -1 -14
BITMAP
000000000001C0
000000000003E0
000000000007F0
007FFFC00007F0
007FFFC00007F0
007FFFC00003E0
0007F8000001C0
0003F000000000
0003F000000000
0003E000000000
0007E000000000
0007E000000000
0007C000000000
0007C000000000
000FC000000000
000FC000000780
000F8000001F80
000F8000003FC0
001F800000FFC0
001F800001DF80
001F0000018F80
001F0000030F80
003F0000061F80
003E0000021F80
003E0000001F00
003E0000001F00
007E0000003F00
007C0000003F00
007C0000003E00
007C0000003E00
00FC0000007E00
00F80000E07C00
00F80000C07C00
01F80001C07C00
01F00001C0FC00
01F0000380F800
01F0000780F800
03F0000F80F800
03F0001F01F800
07F8007F01F000
FFFFFFFE01F000
FFFFFFFE01F000
FFFFFFFE01E000
0000000003E000
0000000003E000
0000000003E000
0000000003C000
0000000007C000
00000000078000
00000000078000
0000001C0F0000
0000001E0E0000
0000003F1E0000
0000003F1C0000
0000001FF00000
0000000FE00000
00000001000000
ENDCHAR
STARTCHAR 01C9
ENCODING 457
SWIDTH 615 0
DWIDTH 32 0
BBX 31 57 1 -14
BITMAP
03FE0038
07FE007C
007E007E
007C00FE
007C00FE
007C007C
007C0038
00F80000
00F80000
00F80000
00F00000
01F00000
01F00000
01F00000
03E00000
03E000F0
03E003F0
03E007F8
07C00FF8
07C01FF0
07C031F0
078061F0
0F80C3F0
0F80C3F0
0F8003E0
1F0003E0
1F0007E0
1F0007E0
1F0007C0
3E0007C0
3E000FC0
3E000F80
3C000F80
7C000F80
7C0C1F80
7C181F00
78381F00
F8701F00
F8E01F00
FFE03E00
FFC03E00
FF003E00
7E003C00
10007C00
00007C00
00007C00
00007800
0000F800
0000F000
0000F000
03C1E000
03C1C000
07E1C000
07E38000
03FE0000
01FC0000
00200000
ENDCHAR
STARTCHAR 01CA
ENCODING 458
SWIDTH 1384 0
DWIDTH 72 0
BBX 76 41 0 -1
BITMAP
03FFE0003FFE001FFFF0
03FFE0003FFE001FFFF0
03FFF0007FFE001FFFF0
001FF0000FF00000FF00
000FF80007E00000FE00
0007F80007C00000FC00
0007F80003800000FC00
0007FC0003800000F800
0007FC0007800000F800
00077E0007000001F800
00077E0007000001F800
00073F0007000001F000
000E3F000F000001F000
000E3F800E000003F000
000E1F800E000003F000
000E1F800E000003E000
001C0FC01E000003E000
001C0FC01C000007E000
001C07E01C000007C000
003C07E01C000007C000
003803F038000007C000
003803F03800000FC000
003803F03800000F8000
007801F83800000F8000
007001F87000000F8000
007000FC7000001F8000
007000FC7000001F0000
00E0007E7000001F0000
00E0007EE003803F0000
00E0003EE00FC03F0000
01E0003FE01FC03E0000
01C0003FE01FC07E0000
01C0001FC01FC07E0000
03C0001FC01F807C0000
03C0000FC01F00FC0000
07C0000F801F01F80000
0FE00007801F03F00000
3FF80007800F87E00000
FFFE0007800FFFC00000
FFFE00030003FF000000
00000000000020000000
ENDCHAR
STARTCHAR 01CB
ENCODING 459
SWIDTH 1134 0
DWIDTH 59 0
BBX 59 57 0 -14
BITMAP
00000000000003C0
00000000000007E0
00000000000007E0
03FFE0003FFE07E0
03FFE0003FFE07E0
03FFF0007FFE07E0
001FF0000FF003C0
000FF80007E00000
0007F80007C00000
0007F80003800000
0007FC0003800000
0007FC0007800000
00077E0007000000
00077E0007000000
00073F0007000000
000E3F000F000F00
000E1F800E003F80
000E1F800E007F80
001E1F800E00FF80
001C0FC01E01FF80
001C0FC01C031F80
001C07E01C071F00
003C07E01C0E1F00
003803F038043F00
003803F038003F00
003803F038003E00
007001F838003E00
007001F870007E00
007000FC70007E00
00F000FC70007C00
00E0007E70007C00
00E0007EE0007C00
00E0003EE000F800
01E0003FE000F800
01C0003FE000F800
01C0001FC000F800
03C0001FC001F000
03C0000FC001F000
07E0000F8001F000
0FE000078001F000
FFFE00078003E000
FFFE00078003E000
FFFE00030003E000
000000000003C000
000000000007C000
000000000007C000
0000000000078000
0000000000078000
00000000000F8000
00000000000F0000
000000003C0E0000
000000003C1E0000
000000003E1C0000
000000003E380000
000000003FF00000
000000001FC00000
0000000002000000
ENDCHAR
STARTCHAR 01CC
ENCODING 460
SWIDTH 923 0
DWIDTH 48 0
BBX 47 57 1 -14
BITMAP
00000000003C
00000000007E
00000000007E
00000000007E
00000000007E
00000000007E
00000000003C
000000000000
000000000000
000000000000
000000000000
000000000000
000000000000
000000000000
000000000000
01E00F8000F0
07F03FE003F8
0FF0FFE007F8
1CF1E3E00FF8
18F383F01DF8
30F303E031F8
60F703E061F0
61FE03E0E1F0
41EC03E043F0
C1F807C003F0
C3F807C003E0
03F007C003E0
03F00F8003E0
03E00F8007E0
07E01F8007C0
07C01F0007C0
07C01F0007C0
0F803F000FC0
0F803E000F80
0F803E080F80
1F007E1C0F80
1F007C381F00
1F007C701F00
3E007CE01F00
3E007FC01F00
3C007F803E00
7C007F003E00
7C003E003E00
000010003C00
000000007C00
000000007C00
000000007C00
000000007800
00000000F800
00000000F000
000003C0E000
000003C1E000
000003E1C000
000003F38000
000003FF0000
000001FC0000
000000200000
ENDCHAR
STARTCHAR 01EA
ENCODING 490
SWIDTH 826 0
DWIDTH 43 0
BBX 37 53 4 -12
BITMAP
0000020000
0000FFF000
0003FFFC00
000FE07E00
003F001F00
007E000F80
00F80007C0
01F80007E0
03F00003E0
07E00003F0
0FC00003F0
0FC00003F0
1F800003F0
1F800003F8
3F000003F8
3F000003F8
7E000003F8
7E000003F8
7E000003F8
FE000003F8
FE000003F0
FC000003F0
FC000003F0
FC000003F0
FC000007F0
FC000007E0
FC000007E0
FC00000FC0
FC00000FC0
FC00000F80
FE00001F80
7E00001F00
7E00003E00
7E00007E00
3F0000FC00
1F0001F800
1F8003F000
0FC007C000
07F01F8000
01FFFE0000
007FF80000
003E000000
00F0000000
01E0000000
03C0000000
0780000000
0780000000
0F00000000
0F01800000
0F83800000
07FF000000
07FE000000
01F8000000
ENDCHAR
STARTCHAR 01EB
ENCODING 491
SWIDTH 519 0
DWIDTH 27 0
BBX 24 40 1 -12
BITMAP
000FC0
003FF0
00FFF8
01F83C
03E03C
07E01E
0FC01E
0F801F
1F801F
3F001F
3F001F
3F003F
7E003F
7E003E
7E003E
FC007E
FC007E
FC007C
FC00FC
FC00F8
FC01F8
7C01F0
7C03E0
7C07C0
3C0FC0
3E1F00
1FFE00
0FFC00
03E000
078000
0E0000
3C0000
3C0000
780000
780000
781800
783C00
7FF800
7FE000
1F8000
ENDCHAR
STARTCHAR 01F1
ENCODING 497
SWIDTH 1500 0
DWIDTH 78 0
BBX 81 40 -2 0
BITMAP
003FFFFC000000FFFFFF80
003FFFFFC00001FFFFFF80
0003FFFFF00001FFFFFF00
0001F803F80003F000FE00
0001F800FC0003C001FE00
0001F0007E00078001FC00
0001F0003F00070003F800
0003F0001F800E0007F000
0003F0000F800C000FE000
0003E0000FC018001FE000
0003E00007C000001FC000
0007E00007E000003F8000
0007C00007E000007F0000
0007C00007E00000FF0000
0007C00007E00000FE0000
000FC00007E00001FC0000
000F800007E00003F80000
000F800007E00007F80000
001F800007E0000FF00000
001F800007E0000FE00000
001F000007E0001FC00000
001F000007E0003FC00000
003F000007E0007F800000
003F00000FC0007F000000
003E00000FC000FE000000
003E00000FC001FC000000
007E00001F8003FC000000
007C00001F8007F8000000
007C00003F0007F0000800
007C00007F000FE0003000
00FC00007E001FE0007000
00F80000FC003FC0007000
00F80001F8007F8000E000
01F80003F0007F0001E000
01F80007E000FF0003C000
01F8001FC001FE000FC000
03FC007F8003FC003FC000
7FFFFFFE0003FFFFFF8000
7FFFFFF80007FFFFFF8000
FFFFFF000007FFFFFF0000
ENDCHAR
STARTCHAR 01F2
ENCODING 498
SWIDTH 1346 0
DWIDTH 70 0
BBX 71 41 -2 -1
BITMAP
003FFFFC0000000000
003FFFFFC000000000
0003FFFFF000000000
0001F803F800000000
0001F800FC00000000
0001F0007E00000000
0001F0003F00000000
0003F0001F80000000
0003F0000F80000000
0003E0000FC0000000
0003E00007C0000000
0007E00007E0000000
0007C00007E007E004
0007C00007E01FF80E
0007C00007E03FFC1E
000FC00007E073FF3C
000F800007E0E0FFF8
000F800007E0E03FF8
001F800007E0F00FF0
001F800007E0FC03C0
001F000007E0FC0380
001F000007E0FC0700
003F000007E0780E00
003F00000FC0001C00
003E00000FC0003800
003E00000FC0007000
007E00001F8001E000
007C00001F8003C000
007C00003F00078000
007C00007F000F0000
00FC00007E001E0000
00F80000FC003C000C
00F80001F8007F001C
01F80003F000FFE018
01F80007E001FFF838
01F8001FC003DFFFF0
03FC007F800787FFF0
7FFFFFFE000781FFE0
7FFFFFF8000700FFC0
FFFFFF000007007F00
000000000000000800
ENDCHAR
STARTCHAR 01F3
ENCODING 499
SWIDTH 1115 0
DWIDTH 58 0
BBX 56 44 1 -1
BITMAP
00000FFC000000
00000FFC000000
00001FF8000000
000000F8000000
000000F8000000
000000F8000000
000000F0000000
000001F0000000
000001F0000000
000001E0000000
000003E0000000
000003E0000000
000003E0000000
000003C0000000
000007C0000000
0007C7C003F006
001FF7C00FFC0F
007FFF801FFE0F
00F83F8038FF9E
01F01F80707FFC
03E01F00701FFC
07C01F00780FF8
07801F007C01F0
0F801F007E01E0
1F003E007E0380
1F003E003C0700
3E003E00000E00
7E003E00003C00
7C007C00007800
7C007C0000F000
FC00FC0001E000
F800FC0003C000
F800F800078000
F801F8280F0000
F803F8301E0000
F803F8303E0006
F807F8707FC00C
F80FF860FFF01C
F80EF8E1FFFC38
FC3CF9C3E7FFF8
7FF8FF83C1FFF0
3FF0FF0380FFE0
1FC07E03803F80
04001000000400
ENDCHAR
STARTCHAR 01FA
ENCODING 506
SWIDTH 769 0
DWIDTH 40 0
BBX 49 50 -6 0
BITMAP
00000000007100
0000000000FF80
00000000019F00
00000000031C00
000000000F1800
000000007FF000
0000000001E000
00000000000000
00000000000000
00000000000000
0000000007C000
000000000F8000
000000001F8000
000000003F8000
000000007F8000
000000007F8000
00000000FF0000
00000001FF0000
00000003DF0000
000000079F0000
0000000F1E0000
0000001E3E0000
0000001C3E0000
0000003C3E0000
000000783E0000
000000F07C0000
000001E07C0000
000003C07C0000
000003807C0000
00000780F80000
00000F00F80000
00001E00F80000
00003FFFF80000
00007FFFF00000
00007FFFF00000
0000E001F00000
0001C001F00000
00038003F00000
00078003E00000
000F0003E00000
001E0003E00000
003C0003E00000
00380007C00000
00700007C00000
00E00007C00000
03E0000FC00000
07E0000FC00000
1FE0003FE00000
7FFC01FFFE0000
FFFC01FFFC0000
ENDCHAR
STARTCHAR 01FB
ENCODING 507
SWIDTH 576 0
DWIDTH 30 0
BBX 28 50 1 -1
BITMAP
00000070
000001F0
000003F0
000007E0
00000FC0
00001F00
00003C00
0000F000
00000000
00000800
00007E00
0000FF00
0000C700
00018300
00018300
00018600
0001FE00
0001FC00
0000F000
00000000
00000000
0007C3C0
001FE7C0
007FF780
00F83F80
01F03F00
03E03F00
07C03F00
0F803E00
0F803E00
1F003E00
1E003C00
3E007C00
3C007C00
7C007800
7C00F800
F800F800
F801F000
F801F000
F803F000
F007F040
F007E0E0
F80FE1C0
F81DE180
F839E380
FFF9FF00
FFF1FE00
7FC1FC00
3F81F000
04004000
ENDCHAR
STARTCHAR 01FC
ENCODING 508
SWIDTH 1076 0
DWIDTH 56 0
BBX 58 50 -4 0
BITMAP
000000000000F000
000000000003F000
00000000000FE000
00000000003FC000
0000000000FE0000
0000000007E00000
0000000000000000
0000000000000000
0000000000000000
0000000000000000
0000000FFFFFFFC0
0000000FFFFFFFC0
0000001FFFFFFFC0
000000007F000FC0
000000007F0007C0
00000000FF0003C0
00000001FF0003C0
00000003DE0001C0
00000007BE0001C0
000000073E0000C0
0000000E3E0000C0
0000001E3C000000
0000003C7C018000
000000787C038000
000000F07C030000
000001E078070000
000001C0F80F0000
000003C0FFFF0000
00000780FFFF0000
00000F00FFFE0000
00001E01F03E0000
00003C01F01E0000
00007FFFF00E0000
00007FFFF00C0000
0000FFFFE00C0000
0001E003E00C0000
0003C003E00C0000
00078003E0000000
000F0007E0000000
000E0007C0000300
001C0007C0000700
00380007C0000600
00700007C0000E00
00E0000F80001E00
01C0000F80003C00
03C0000F80007C00
0FC0001F8000FC00
3FE0003FE00FF800
FFFC01FFFFFFF800
FFF803FFFFFFF000
ENDCHAR
STARTCHAR 01FD
ENCODING 509
SWIDTH 750 0
DWIDTH 39 0
BBX 38 43 1 -1
BITMAP
0000000200
0000000F80
0000001F80
0000003F00
0000007E00
000001F800
000003C000
0000070000
0000000000
0000000000
0000000000
0000000000
0000000000
000003C000
0007C3C7E0
001FE79FF0
007FF7BFF8
00F83FF07C
01F03FE07C
03E03FC07C
07C03F80F8
0F803F00F8
0F803F01F0
1F003E03E0
1E003E07C0
3E007C0F80
3C007C1F00
7C007C7C00
7C00FBF000
F800FFC000
F800FE0000
F801F80000
F803F00000
F003F00000
F007F00080
F80FF801C0
F81EF80380
F83CF80700
FFF8FC0E00
FFF07F7C00
7FE03FF800
3F801FE000
0C00020000
ENDCHAR
STARTCHAR 01FE
ENCODING 510
SWIDTH 826 0
DWIDTH 43 0
BBX 41 53 2 -3
BITMAP
00000001E000
00000007E000
0000001FC000
0000007F8000
000001FC0000
00000FC00000
000000000000
000000000780
000000000E00
000000801E00
00003FFC3C00
0000FFFF7800
0003F81FF000
000FC007F000
001F8003E000
003F0003F000
007C0003F000
00FC0007F800
01F8000FF800
01F0001EFC00
03F0001CFC00
07E00038FC00
07E00078FE00
0FC000F0FE00
0FC001E0FE00
1F8001C0FE00
1F800380FE00
1F800780FE00
1F800F00FE00
3F801E00FE00
3F001C00FC00
3F003800FC00
3F007800FC00
3F00F001FC00
3F01E001F800
3F01C001F800
3F038003F000
3F078003F000
3F0F0003E000
3F8E0007E000
1F9C0007C000
1FB8000F8000
1FF8001F8000
0FF0003F0000
0FE0003E0000
07E000FC0000
03F001F00000
07FC07E00000
0FFFFF800000
1E3FFE000000
1C0080000000
380000000000
F00000000000
ENDCHAR
STARTCHAR 01FF
ENCODING 511
SWIDTH 519 0
DWIDTH 27 0
BBX 30 45 -2 -3
BITMAP
00000020
000000F0
000003F0
000007F0
00000FC0
00001F00
00003C00
0000F000
00000000
00000000
00000000
0000001C
00000038
00000078
0001F8F0
0007FFE0
001FFFC0
003F0780
007E0780
00FC0FC0
01F81FC0
01F01FE0
03F03BE0
07E07BE0
07E0F3E0
07C1E7E0
0FC1C7E0
0FC387C0
0FC787C0
1F8F0FC0
1F9E0F80
1F9C0F80
1FB81F80
1FF81F00
1FF03E00
0FE03E00
0FC07C00
0F80F800
07C1F000
0FC3E000
1FFFC000
1CFF0000
38100000
78000000
F0000000
ENDCHAR
STARTCHAR 0218
ENCODING 536
SWIDTH 596 0
DWIDTH 31 0
BBX 30 54 1 -13
BITMAP
00002000
0003FF04
000FFF88
003F03F8
007C01F8
007800F8
00F00078
01F00070
01F00070
01F00070
01F00030
01F00030
01F80000
01FC0000
01FE0000
00FF0000
00FF8000
007FC000
003FF000
001FF800
000FFC00
0007FE00
0001FF00
0000FF00
00007F80
00003F80
00001FC0
00000FC0
30000FC0
300007C0
300007C0
700007C0
70000780
78000780
78000700
7C000F00
7E001E00
FF003C00
CFC0F800
C3FFF000
C1FFC000
00080000
00000000
00000000
00380000
007C0000
00FE0000
00FE0000
007E0000
000C0000
001C0000
00380000
00700000
00600000
ENDCHAR
STARTCHAR 0219
ENCODING 537
SWIDTH 384 0
DWIDTH 20 0
BBX 19 41 -1 -13
BITMAP
003F00
00FFC0
01FFE0
03E3E0
03C3E0
07C1E0
07C0E0
07C000
07C000
07E000
07F000
03F800
03F800
01FC00
00FE00
007E00
007F00
003F00
001F00
001F00
201F00
780F00
F80F00
F81E00
FC1E00
7C3C00
7FF800
1FE000
030000
000000
000000
1E0000
1F0000
3F0000
3F8000
1F8000
030000
070000
0E0000
1C0000
100000
ENDCHAR
STARTCHAR 021A
ENCODING 538
SWIDTH 788 0
DWIDTH 41 0
BBX 40 53 4 -13
BITMAP
07FFFFFFFF
0FFFFFFFFF
0FFFFFFFFF
1FC03FC03E
1F003F801E
1E003F000E
3C003F000E
38003F000E
70003E0006
60003E0006
E0007E0006
00007C0000
00007C0000
00007C0000
0000FC0000
0000F80000
0000F80000
0000F80000
0001F80000
0001F00000
0001F00000
0003F00000
0003E00000
0003E00000
0003E00000
0007E00000
0007C00000
0007C00000
0007C00000
000FC00000
000F800000
000F800000
001F800000
001F000000
001F000000
003F000000
007F800000
0FFFFC0000
0FFFFC0000
0FFFFC0000
0000000000
0000000000
0000000000
003C000000
007E000000
007E000000
007E000000
003E000000
000E000000
000E000000
001C000000
0078000000
0020000000
ENDCHAR
STARTCHAR 021B
ENCODING 539
SWIDTH 365 0
DWIDTH 19 0
BBX 18 48 1 -13
BITMAP
003E00
003C00
007C00
007C00
007800
00F800
00F800
00F800
01F000
01F040
3FFF80
3FFF80
03E000
03E000
03C000
07C000
07C000
07C000
0F8000
0F8000
0F8000
0F0000
1F0000
1F0000
1E0000
3E0000
3E0600
3C0600
3C0C00
7C1800
7C7800
7FF000
7FE000
7F8000
3F0000
080000
000000
000000
780000
F80000
FC0000
FC0000
7C0000
1C0000
180000
380000
E00000
400000
ENDCHAR
STARTCHAR 0237
ENCODING 567
SWIDTH 307 0
DWIDTH 16 0
BBX 23 42 -10 -14
BITMAP
00001C
00007E
0001FE
0003FE
0007FE
00067E
000C7E
00187E
00187C
00007C
0000FC
0000FC
0000F8
0000F8
0001F8
0001F0
0001F0
0001F0
0003F0
0003E0
0003E0
0003E0
0003E0
0007C0
0007C0
0007C0
000780
000F80
000F80
000F80
000F00
001F00
001E00
001E00
001C00
703C00
F83800
F87000
FCE000
7FC000
3F8000
040000
ENDCHAR
STARTCHAR 0259
ENCODING 601
SWIDTH 461 0
DWIDTH 24 0
BBX 23 29 -1 -1
BITMAP
000FC0
003FF0
00FFF8
01C0FC
03807C
07007C
06007E
0C003E
00003E
00003E
00007E
0000FC
0007FC
003FFC
00FC7C
01F0F8
07C0F8
0F81F0
1F01F0
3E03E0
7C03E0
7C07C0
780F80
F80F00
F83E00
7C7C00
7FF000
3FE000
060000
ENDCHAR
STARTCHAR 02BC
ENCODING 700
SWIDTH 192 0
DWIDTH 10 0
BBX 5 12 3 31
BITMAP
38
78
F8
F8
F8
F0
F0
E0
E0
C0
C0
80
ENDCHAR
STARTCHAR 02C6
ENCODING 710
SWIDTH 365 0
DWIDTH 19 0
BBX 17 7 0 34
BITMAP
00F800
01F800
03FC00
0FFE00
1F1E00
3C0F00
E00380
ENDCHAR
STARTCHAR 02C7
ENCODING 711
SWIDTH 365 0
DWIDTH 19 0
BBX 17 7 2 34
BITMAP
C00180
700700
783E00
3EF800
1FF000
1FE000
0FC000
ENDCHAR
STARTCHAR 02D8
ENCODING 728
SWIDTH 307 0
DWIDTH 16 0
BBX 14 7 2 33
BITMAP
C00C
C01C
F078
FFF0
FFE0
7FC0
1F00
ENDCHAR
STARTCHAR 02D9
ENCODING 729
SWIDTH 173 0
DWIDTH 9 0
BBX 6 6 1 35
BITMAP
78
FC
FC
FC
FC
78
ENDCHAR
STARTCHAR 02DA
ENCODING 730
SWIDTH 211 0
DWIDTH 11 0
BBX 9 10 1 33
BITMAP
1F00
3F80
7F80
E180
C180
C180
E300
FF00
7C00
1000
ENDCHAR
STARTCHAR 02DB
ENCODING 731
SWIDTH 269 0
DWIDTH 14 0
BBX 13 13 0 -12
BITMAP
00E0
0380
0F00
1E00
3C00
7800
F000
F000
F010
F878
FFF0
7FE0
3F00
ENDCHAR
STARTCHAR 02DC
ENCODING 732
SWIDTH 384 0
DWIDTH 20 0
BBX 18 7 1 33
BITMAP
0F00C0
3FC0C0
7FF180
7FFF80
E3FF00
C0FF00
C01C00
ENDCHAR
STARTCHAR 02DD
ENCODING 733
SWIDTH 480 0
DWIDTH 25 0
BBX 23 8 1 34
BITMAP
00F01C
01F07E
03F0FC
07E1FC
0FC3F0
1F07C0
3C0F00
F03C00
ENDCHAR
STARTCHAR 03BC
ENCODING 956
SWIDTH 634 0
DWIDTH 33 0
BBX 31 42 -1 -14
BITMAP
001C007C
007E007C
01FE007C
03FE00F8
07FE00F8
063E00F8
0C7E01F0
187C01F0
187C03F0
007C03E0
007803E0
00F807E0
00F807C0
00F007C0
01F00FC0
01F00F80
01E01F80
03E03F80
03E03F84
03E07F06
07C0FF06
07C0FF0C
07C1DF1C
0FC3DE38
0FFF9FF0
0FFF1FE0
0FFE1FC0
1F7C0F80
1F100400
1E000000
3E000000
3E000000
3E000000
7E000000
7E000000
7C000000
7C000000
FC000000
FC000000
FC000000
78000000
20000000
ENDCHAR
STARTCHAR 1E0C
ENCODING 7692
SWIDTH 826 0
DWIDTH 43 0
BBX 43 52 -2 -12
BITMAP
003FFFFC0000
003FFFFFC000
0003FFFFF000
0001F803F800
0001F800FC00
0001F0007E00
0001F0003F00
0003F0001F80
0003F0000F80
0003E0000FC0
0003E00007C0
0007E00007E0
0007C00007E0
0007C00007E0
0007C00007E0
000FC00007E0
000F800007E0
000F800007E0
001F800007E0
001F800007E0
001F000007E0
001F000007E0
003F000007E0
003F00000FC0
003E00000FC0
003E00000FC0
007E00001F80
007C00001F80
007C00003F00
007C00007F00
00FC00007E00
00F80000FC00
00F80001F800
01F80003F000
01F80007E000
01F8001FC000
03FC007F8000
7FFFFFFE0000
7FFFFFF80000
FFFFFF000000
000000000000
000000000000
000000000000
000000000000
000000000000
000000000000
0001E0000000
0003F0000000
0003F0000000
0003F0000000
0003F0000000
0001E0000000
ENDCHAR
STARTCHAR 1E0D
ENCODING 7693
SWIDTH 596 0
DWIDTH 31 0
BBX 30 55 1 -12
BITMAP
00000FFC
00000FFC
00001FF8
000000F8
000000F8
000000F8
000000F0
000001F0
000001F0
000001E0
000003E0
000003E0
000003E0
000007C0
000007C0
0007C7C0
001FF7C0
007FFF80
00F83F80
01F01F80
03E01F00
07C01F00
07801F00
0F801F00
1F003E00
1F003E00
3E003E00
7E003E00
7C007C00
7C007C00
FC00FC00
F800FC00
F800F800
F801F828
F803F830
F803F830
F807F870
F80FF860
F80EF8E0
FC3CF9C0
7FF8FF80
3FF07F00
1FC07E00
04001000
00000000
00000000
00000000
00000000
00000000
00F00000
01F80000
01F80000
01F80000
01F80000
00F00000
ENDCHAR
STARTCHAR 1E24
ENCODING 7716
SWIDTH 903 0
DWIDTH 47 0
BBX 52 52 -1 -12
BITMAP
007FFFC01FFFF0
007FFFC01FFFF0
007FFFC03FFFE0
0003FC0001FE00
0003F80001FC00
0003F00001F800
0003E00001F800
0003E00001F800
0007E00001F000
0007E00001F000
0007C00003F000
0007C00003E000
000FC00003E000
000F800003E000
000F800007E000
001F800007C000
001F800007C000
001F000007C000
001FFFFFFFC000
003FFFFFFF8000
003FFFFFFF8000
003E00001F8000
003E00001F0000
007E00001F0000
007C00001F0000
007C00003F0000
00FC00003E0000
00FC00003E0000
00F800007E0000
00F800007E0000
01F800007C0000
01F800007C0000
01F00000FC0000
03F00000FC0000
03F00000FC0000
07F00001FC0000
0FF80003FC0000
FFFF803FFFC000
FFFF807FFFC000
FFFF007FFFC000
00000000000000
00000000000000
00000000000000
00000000000000
00000000000000
00000000000000
00001C00000000
00003E00000000
00007F00000000
00007F00000000
00003E00000000
00001C00000000
ENDCHAR
STARTCHAR 1E25
ENCODING 7717
SWIDTH 576 0
DWIDTH 30 0
BBX 28 55 0 -12
BITMAP
03FF8000
03FF8000
03FF0000
003F0000
001F0000
001E0000
003E0000
003E0000
003E0000
003C0000
007C0000
007C0000
00780000
00F80000
00F80000
00F07C00
01F1FF00
01F3FF00
01F70F80
01EE0F80
03FC0F80
03F80F80
03F00F80
07F01F80
07E01F00
07E01F00
0FC01F00
0FC03E00
0F803E00
0F803E00
1F007C00
1F007C00
1F007C00
3E00F800
3E00F800
3E00F820
3C01F070
7C01F0E0
7C01F1C0
7801FF80
F801FF00
F801FE00
F001F800
00004000
00000000
00000000
00000000
00000000
00000000
07800000
0FC00000
0FC00000
0FC00000
0FC00000
07800000
ENDCHAR
STARTCHAR 1E44
ENCODING 7748
SWIDTH 846 0
DWIDTH 44 0
BBX 47 50 0 0
BITMAP
0000001E0000
0000001E0000
0000003F0000
0000003F0000
0000001E0000
0000001E0000
000000000000
000000000000
000000000000
000000000000
03FFE0003FFE
03FFE0003FFE
03FFF0007FFE
001FF0000FF0
000FF80007E0
0007F80007C0
0007F8000380
0007FC000380
0007FC000780
00077E000700
00077E000700
00073F000700
000E3F000F00
000E3F800E00
000E1F800E00
001E1F800E00
001C0FC01E00
001C0FC01C00
001C07E01C00
003C07E01C00
003803F03800
003803F03800
003803F03800
007001F83800
007001F87000
007000FC7000
00F000FC7000
00E0007E7000
00E0007EE000
00E0003EE000
01E0003FE000
01C0003FE000
01C0001FC000
03C0001FC000
03C0000FC000
07E0000F8000
0FE000078000
FFFE00078000
FFFE00078000
FFFE00030000
ENDCHAR
STARTCHAR 1E45
ENCODING 7749
SWIDTH 634 0
DWIDTH 33 0
BBX 30 43 1 -1
BITMAP
00001C00
00003E00
00007F00
00007F00
00003E00
00001C00
00000000
00000000
00000000
00000000
00000000
00000000
00000000
00000000
01E00F80
07F03FE0
0FF0FFE0
1CF1E3E0
18F383F0
30F303E0
60F703E0
61FE03E0
41EC03E0
C1F807C0
C3F807C0
03F007C0
03F00F80
03E00F80
07E01F80
07C01F00
07C01F00
0F803F00
0F803E00
0F803E08
1F007E1C
1F007C38
1F007C70
3E007CE0
3E007FC0
3C007F80
7C007F00
7C003E00
00001000
ENDCHAR
STARTCHAR 1E5A
ENCODING 7770
SWIDTH 769 0
DWIDTH 40 0
BBX 38 52 -1 -12
BITMAP
007FFFF800
007FFFFF00
007FFFFFC0
0007F80FE0
0003F003F0
0003F003F0
0003E001F8
0003E001F8
0007E001F8
0007E001F8
0007C001F8
0007C001F8
000FC003F0
000F8003F0
000F8007E0
000F800FC0
001F803F80
001F01FF00
001FFFFC00
003FFFE000
003FFFC000
003E07C000
003E07E000
007E07E000
007C03F000
007C03F000
007C03F000
00FC01F800
00F801F800
00F800FC00
01F800FC00
01F000FE00
01F0007E00
03F0007F00
03F0003F00
07F0003F80
0FF8003FC0
7FFFC01FFC
FFFFC01FFC
FFFFC00FFC
0000000000
0000000000
0000000000
0000000000
0000000000
0000000000
0000700000
0000F80000
0001FC0000
0001FC0000
0000F80000
0000700000
ENDCHAR
STARTCHAR 1E5B
ENCODING 7771
SWIDTH 461 0
DWIDTH 24 0
BBX 27 40 -1 -12
BITMAP
00380780
00FC1FC0
01FC3FE0
07FC7FE0
0E7CE7E0
0C7DC3C0
187F8000
307F0000
107E0000
00FE0000
00FC0000
00FC0000
00F80000
01F80000
01F00000
01F00000
03E00000
03E00000
03E00000
07C00000
07C00000
07C00000
0F800000
0F800000
0F800000
1F000000
1F000000
1F000000
00000000
00000000
00000000
00000000
00000000
00000000
78000000
FC000000
FC000000
FC000000
FC000000
78000000
ENDCHAR
STARTCHAR 1E62
ENCODING 7778
SWIDTH 596 0
DWIDTH 31 0
BBX 30 53 1 -12
BITMAP
00002000
0003FF04
000FFF88
003F03F8
007C01F8
007800F8
00F00078
01F00070
01F00070
01F00070
01F00030
01F00030
01F80000
01FC0000
01FE0000
00FF0000
00FF8000
007FC000
003FF000
001FF800
000FFC00
0007FE00
0001FF00
0000FF00
00007F80
00003F80
00001FC0
00000FC0
30000FC0
300007C0
300007C0
700007C0
70000780
78000780
78000700
7C000F00
7E001E00
FF003C00
CFC0F800
C3FFF000
C1FFC000
00080000
00000000
00000000
00000000
00000000
00000000
00700000
00F80000
01FC0000
01FC0000
00F80000
00700000
ENDCHAR
STARTCHAR 1E63
ENCODING 7779
SWIDTH 384 0
DWIDTH 20 0
BBX 19 40 -1 -12
BITMAP
003F00
00FFC0
01FFE0
03E3E0
03C3E0
07C1E0
07C0E0
07C000
07C000
07E000
07F000
03F800
03F800
01FC00
00FE00
007E00
007F00
003F00
001F00
001F00
201F00
780F00
F80F00
F81E00
FC1E00
7C3C00
7FF800
1FE000
030000
000000
000000
000000
000000
000000
070000
0F8000
1FC000
1FC000
0F8000
070000
ENDCHAR
STARTCHAR 1E6C
ENCODING 7788
SWIDTH 788 0
DWIDTH 41 0
BBX 40 52 4 -12
BITMAP
07FFFFFFFF
0FFFFFFFFF
0FFFFFFFFF
1FC03FC03E
1F003F801E
1E003F000E
3C003F000E
38003F000E
70003E0006
60003E0006
E0007E0006
00007C0000
00007C0000
00007C0000
0000FC0000
0000F80000
0000F80000
0000F80000
0001F80000
0001F00000
0001F00000
0003F00000
0003E00000
0003E00000
0003E00000
0007E00000
0007C00000
0007C00000
0007C00000
000FC00000
000F800000
000F800000
001F800000
001F000000
001F000000
003F000000
007F800000
0FFFFC0000
0FFFFC0000
0FFFFC0000
0000000000
0000000000
0000000000
0000000000
0000000000
0000000000
0078000000
00FC000000
00FC000000
00FC000000
00FC000000
0078000000
ENDCHAR
STARTCHAR 1E6D
ENCODING 7789
SWIDTH 365 0
DWIDTH 19 0
BBX 19 47 0 -12
BITMAP
001F00
001E00
003E00
003E00
003C00
007C00
007C00
007C00
00F800
00F820
1FFFC0
1FFFC0
01F000
01F000
01E000
03E000
03E000
03E000
07C000
07C000
07C000
078000
0F8000
0F8000
0F0000
1F0000
1F0300
1E0300
1E0600
3E0C00
3E3C00
3FF800
3FF000
3FC000
1F8000
040000
000000
000000
000000
000000
000000
380000
FC0000
FE0000
FE0000
FC0000
780000
ENDCHAR
STARTCHAR 1E80
ENCODING 7808
SWIDTH 1057 0
DWIDTH 55 0
BBX 57 51 6 -1
BITMAP
0000008000000000
000003E000000000
000003F800000000
000003FC00000000
000000FF00000000
0000001F80000000
00000001C0000000
0000000000000000
0000000000000000
0000000000000000
1FFFC7FFF01FFF80
1FFF87FFF01FFF80
1FFF87FFF01FFF00
01FC007F0003F800
01F8007E0003E000
01F8007E0007C000
01F0007C00078000
01F0007C000F0000
01F0007C001E0000
01F0007C001C0000
03F000F800380000
03E001F800700000
03E003F800F00000
03E003F801E00000
03E007F001C00000
07C00FF003800000
07C01FF007800000
07C01DF00F000000
07C03BF00E000000
0FC07BE01C000000
0F80F3E038000000
0F81E3E078000000
0F81C3E0F0000000
0F8387C0E0000000
1F0787C1C0000000
1F0F07C3C0000000
1F0E07C780000000
1F1C0FC700000000
3F3C0F8E00000000
3E780F9E00000000
3EF00FBC00000000
3EE00FF800000000
3FE01F7000000000
7FC01FF000000000
7F801FE000000000
7F001FC000000000
7E003F8000000000
FE003F0000000000
FC003F0000000000
F8003E0000000000
F0007C0000000000
ENDCHAR
STARTCHAR 1E81
ENCODING 7809
SWIDTH 846 0
DWIDTH 44 0
BBX 41 43 1 -1
BITMAP
000000800000
000003E00000
000003F00000
000003F80000
000001F80000
0000007C0000
0000001E0000
000000070000
000000000000
000000000000
000000000000
000000000000
000000000000
000000000000
0F8180700700
1FC380F80F80
3FFF81F80F80
73FF03FC0F80
F1FE03BC0F80
F83C073C0F80
F83807380F80
FC380E380780
78700E380780
30F00E380780
00E00E700780
01E01E700780
01C01E600700
03C01EE00F00
03C01EC00F00
07801FC00E00
07801F800E00
07801F801E00
0F801F001C00
0F801F003800
0F803F007800
0F807F807000
0FC0FF80F000
0FC1FFC1E000
07FFE7FFC000
07FFC7FF8000
03FF03FF0000
01FE01FC0000
002000200000
ENDCHAR
STARTCHAR 1E82
ENCODING 7810
SWIDTH 1057 0
DWIDTH 55 0
BBX 57 51 6 -1
BITMAP
0000000008000000
000000007C000000
00000001FC000000
00000007F8000000
0000001FE0000000
0000007E00000000
000000E000000000
0000000000000000
0000000000000000
0000000000000000
1FFFC7FFF01FFF80
1FFF87FFF01FFF80
1FFF87FFF01FFF00
01FC007F0003F800
01F8007E0003E000
01F8007E0007C000
01F0007C00078000
01F0007C000F0000
01F0007C001E0000
01F0007C001C0000
03F000F800380000
03E001F800700000
03E003F800F00000
03E003F801E00000
03E007F001C00000
07C00FF003800000
07C01FF007800000
07C01DF00F000000
07C03BF00E000000
0FC07BE01C000000
0F80F3E038000000
0F81E3E078000000
0F81C3E0F0000000
0F8387C0E0000000
1F0787C1C0000000
1F0F07C3C0000000
1F0E07C780000000
1F1C0FC700000000
3F3C0F8E00000000
3E780F9E00000000
3EF00FBC00000000
3EE00FF800000000
3FE01F7000000000
7FC01FF000000000
7F801FE000000000
7F001FC000000000
7E003F8000000000
FE003F0000000000
FC003F0000000000
F8003E0000000000
F0007C0000000000
ENDCHAR
STARTCHAR 1E83
ENCODING 7811
SWIDTH 846 0
DWIDTH 44 0
BBX 41 43 1 -1
BITMAP
000000004000
00000001F000
00000003F000
00000007E000
0000000FC000
0000001F0000
000000780000
000000E00000
000000000000
000000000000
000000000000
000000000000
000000000000
000000000000
0F8180700700
1FC380F80F80
3FFF81F80F80
73FF03FC0F80
F1FE03BC0F80
F83C073C0F80
F83807380F80
FC380E380780
78700E380780
30F00E380780
00E00E700780
01E01E700780
01C01E600700
03C01EE00F00
03C01EC00F00
07801FC00E00
07801F800E00
07801F801E00
0F801F001C00
0F801F003800
0F803F007800
0F807F807000
0FC0FF80F000
0FC1FFC1E000
07FFE7FFC000
07FFC7FF8000
03FF03FF0000
01FE01FC0000
002000200000
ENDCHAR
STARTCHAR 1E84
ENCODING 7812
SWIDTH 1057 0
DWIDTH 55 0
BBX 57 50 6 -1
BITMAP
000000E070000000
000001F0F8000000
000003E0F8000000
000003E0F0000000
000001C0E0000000
0000000000000000
0000000000000000
0000000000000000
0000000000000000
1FFFC7FFF01FFF80
1FFF87FFF01FFF80
1FFF87FFF01FFF00
01FC007F0003F800
01F8007E0003E000
01F8007E0007C000
01F0007C00078000
01F0007C000F0000
01F0007C001E0000
01F0007C001C0000
03F000F800380000
03E001F800700000
03E003F800F00000
03E003F801E00000
03E007F001C00000
07C00FF003800000
07C01FF007800000
07C01DF00F000000
07C03BF00E000000
0FC07BE01C000000
0F80F3E038000000
0F81E3E078000000
0F81C3E0F0000000
0F8387C0E0000000
1F0787C1C0000000
1F0F07C3C0000000
1F0E07C780000000
1F1C0FC700000000
3F3C0F8E00000000
3E780F9E00000000
3EF00FBC00000000
3EE00FF800000000
3FE01F7000000000
7FC01FF000000000
7F801FE000000000
7F001FC000000000
7E003F8000000000
FE003F0000000000
FC003F0000000000
F8003E0000000000
F0007C0000000000
ENDCHAR
STARTCHAR 1E85
ENCODING 7813
SWIDTH 846 0
DWIDTH 44 0
BBX 41 41 1 -1
BITMAP
000001C0E000
000003E3F000
000007E3F000
000007E3F000
000007C3E000
00000383C000
000000000000
000000000000
000000000000
000000000000
000000000000
000000000000
0F8180700700
1FC380F80F80
3FFF81F80F80
73FF03FC0F80
F1FE03BC0F80
F83C073C0F80
F83807380F80
FC380E380780
78700E380780
30F00E380780
00E00E700780
01E01E700780
01C01E600700
03C01EE00F00
03C01EC00F00
07801FC00E00
07801F800E00
07801F801E00
0F801F001C00
0F801F003800
0F803F007800
0F807F807000
0FC0FF80F000
0FC1FFC1E000
07FFE7FFC000
07FFC7FF8000
03FF03FF0000
01FE01FC0000
002000200000
ENDCHAR
STARTCHAR 1E92
ENCODING 7826
SWIDTH 673 0
DWIDTH 35 0
BBX 36 52 0 -12
BITMAP
001FFFFFF0
003FFFFFF0
003FFFFFE0
007E001FC0
0078003FC0
00F0003F80
00E0007F00
01C000FE00
018001FC00
030003FC00
000003F800
000007F000
00000FE000
00001FE000
00001FC000
00003F8000
00007F0000
0000FF0000
0001FE0000
0001FC0000
0003F80000
0007F00000
000FF00000
000FE00000
001FC00000
003F800000
007F800000
00FF000000
00FE000100
01FC000600
03FC000E00
07F8000E00
07F0001C00
0FE0003C00
1FE0007800
3FC001F800
3F8007F800
7FFFFFF000
FFFFFFF000
FFFFFFE000
0000000000
0000000000
0000000000
0000000000
0000000000
0000000000
003C000000
007E000000
007E000000
007E000000
007E000000
003C000000
ENDCHAR
STARTCHAR 1E93
ENCODING 7827
SWIDTH 519 0
DWIDTH 27 0
BBX 25 40 0 -12
BITMAP
00FC0100
03FF0380
07FF8380
0E7FC780
1C1FFF00
1C07FE00
1E03FC00
1F00F800
1F807000
1F80E000
0F01C000
00078000
000F0000
001E0000
003C0000
00780000
00F00000
01E00000
03C00000
07800100
0FC00380
1FF80300
3FFE0700
7FFFDE00
F0FFFC00
F07FFC00
E03FF800
E00FE000
00010000
00000000
00000000
00000000
00000000
00000000
03C00000
07E00000
07E00000
07E00000
07E00000
03C00000
ENDCHAR
STARTCHAR 1EB8
ENCODING 7864
SWIDTH 730 0
DWIDTH 38 0
BBX 38 52 -1 -12
BITMAP
007FFFFFFC
007FFFFFFC
007FFFFFFC
0007F001FC
0003F0007C
0003E0003C
0003E0003C
0003E0001C
0007E0001C
0007C0001C
0007C0000C
0007C00000
000FC03800
000F803000
000F807000
000F807000
001F00F000
001FFFE000
001FFFE000
003FFFE000
003E03E000
003E01E000
003E01C000
007E00C000
007C00C000
007C00C000
007C01C000
00FC000000
00F8000000
00F8000070
00F8000070
01F00000E0
01F00000E0
01F00001C0
03F00003C0
03F00007C0
07F8001F80
0FFE00FF80
FFFFFFFF80
FFFFFFFF00
0000000000
0000000000
0000000000
0000000000
0000000000
0000000000
0001E00000
0003F00000
0003F00000
0007F00000
0003F00000
0001C00000
ENDCHAR
STARTCHAR 1EB9
ENCODING 7865
SWIDTH 461 0
DWIDTH 24 0
BBX 22 40 1 -12
BITMAP
0007E0
001FF8
007FF8
00F87C
01E07C
03C07C
07C07C
0F80F8
0F00F8
1F01F0
3E03E0
3E07C0
7C0F00
7C3E00
7CF800
FFE000
FF0000
F80000
F80000
F80000
F80080
F800C0
F801C0
F80380
7C0700
7E1E00
3FFC00
1FF000
010000
000000
000000
000000
000000
000000
1E0000
3F0000
3F0000
3F0000
3F0000
1E0000
ENDCHAR
STARTCHAR 1EBC
ENCODING 7868
SWIDTH 730 0
DWIDTH 38 0
BBX 38 50 -1 0
BITMAP
000007C030
00000FF060
00001FFC60
00001FFFE0
000038FFC0
0000303F80
0000300F00
0000000000
0000000000
0000000000
007FFFFFFC
007FFFFFFC
007FFFFFFC
0007F001FC
0003F0007C
0003E0003C
0003E0003C
0003E0001C
0007E0001C
0007C0001C
0007C0000C
0007C00000
000FC03800
000F803000
000F807000
000F807000
001F00F000
001FFFE000
001FFFE000
003FFFE000
003E03E000
003E01E000
003E01C000
007E00C000
007C00C000
007C00C000
007C01C000
00FC000000
00F8000000
00F8000070
00F8000070
01F00000E0
01F00000E0
01F00001C0
03F00003C0
03F00007C0
07F8001F80
0FFE00FF80
FFFFFFFF80
FFFFFFFF00
ENDCHAR
STARTCHAR 1EBD
ENCODING 7869
SWIDTH 461 0
DWIDTH 24 0
BBX 27 41 1 -1
BITMAP
000F8060
001FF0C0
003FFFC0
007FFF80
0061FF80
00601E00
00000000
00000000
00000000
00000000
00000000
00000000
0007E000
001FF800
007FF800
00F87C00
01E07C00
03C07C00
07C07C00
0F80F800
0F00F800
1F01F000
3E03E000
3E07C000
7C0F0000
7C3E0000
7CF80000
FFE00000
FF000000
F8000000
F8000000
F8000000
F8008000
F800C000
F801C000
F8038000
7C070000
7E1E0000
3FFC0000
1FF00000
01000000
ENDCHAR
STARTCHAR 1ECA
ENCODING 7882
SWIDTH 423 0
DWIDTH 22 0
BBX 26 52 -1 -12
BITMAP
007FFFC0
007FFFC0
007FFFC0
0003FC00
0003F800
0003F000
0003E000
0003E000
0007E000
0007C000
0007C000
0007C000
000FC000
000F8000
000F8000
001F8000
001F8000
001F0000
001F0000
003F0000
003E0000
003E0000
003E0000
007E0000
007C0000
007C0000
00FC0000
00FC0000
00F80000
00F80000
01F80000
01F80000
01F00000
03F00000
03F00000
07F00000
0FF80000
FFFF8000
FFFF8000
FFFF0000
00000000
00000000
00000000
00000000
00000000
00000000
0F000000
1F800000
1F800000
1F800000
1F800000
0F000000
ENDCHAR
STARTCHAR 1ECB
ENCODING 7883
SWIDTH 346 0
DWIDTH 18 0
BBX 17 55 1 -12
BITMAP
000E00
001F00
003F80
003F80
003F80
001F00
000E00
000000
000000
000000
000000
000000
000000
000000
000000
00F000
03F800
07F800
0FF800
1DF800
39F800
71F000
61F000
C1F000
03E000
03E000
03E000
07C000
07C000
07C000
0F8000
0F8000
1F8000
1F0000
1F0400
3E0600
3E0C00
3E1800
3E3800
3FF000
3FE000
3FC000
3F0000
080000
000000
000000
000000
000000
000000
1C0000
3E0000
7F0000
7F0000
3E0000
1C0000
ENDCHAR
STARTCHAR 1ECC
ENCODING 7884
SWIDTH 826 0
DWIDTH 43 0
BBX 37 53 4 -12
BITMAP
0000020000
0000FFF000
0003FFFC00
000FE07E00
003F001F00
007E000F80
00F80007C0
01F80007E0
03F00003E0
07E00003F0
0FC00003F0
0FC00003F0
1F800003F0
1F800003F8
3F000003F8
3F000003F8
7E000003F8
7E000003F8
7E000003F8
FE000003F8
FE000003F0
FC000003F0
FC000003F0
FC000003F0
FC000007F0
FC000007E0
FC000007E0
FC00000FC0
FC00000FC0
FC00000F80
FE00001F80
7E00001F00
7E00003E00
7E00007E00
3F0000FC00
1F0001F800
1F8003F000
0FC007C000
07F01F8000
01FFFE0000
007FF80000
0002000000
0000000000
0000000000
0000000000
0000000000
0000000000
001E000000
003F000000
003F000000
003F000000
003F000000
001E000000
ENDCHAR
STARTCHAR 1ECD
ENCODING 7885
SWIDTH 519 0
DWIDTH 27 0
BBX 24 40 1 -12
BITMAP
000FC0
003FF0
00FFF8
01F83C
03F03C
07E01E
0FC01E
0F801F
1F801F
3F001F
3F001F
7E003F
7E003F
7E003E
7E003E
FC007E
FC007C
FC007C
FC00FC
FC00F8
FC01F0
7C01F0
7C03E0
7C07C0
3C0F80
1E1F00
1FFE00
07F800
008000
000000
000000
000000
000000
000000
078000
0FC000
0FC000
0FC000
0FC000
078000
ENDCHAR
STARTCHAR 1EE4
ENCODING 7908
SWIDTH 807 0
DWIDTH 42 0
BBX 40 52 6 -12
BITMAP
7FFF803FFF
FFFF807FFE
FFFF807FFE
0FF00007E0
07F00003E0
07E00003C0
07E00003C0
07C00003C0
07C0000380
0FC0000380
0F80000380
0F80000380
1F80000780
1F80000700
1F00000700
1F00000700
3F00000700
3F00000E00
3E00000E00
3E00000E00
7E00000E00
7C00001E00
7C00001C00
7C00001C00
FC00001C00
F800003800
F800003800
F800003800
F800007000
F800007000
F80000E000
F80000E000
FC0001C000
7C0003C000
7C00078000
3E000F0000
3F001E0000
1FC07C0000
0FFFF80000
03FFE00000
000C000000
0000000000
0000000000
0000000000
0000000000
0000000000
003C000000
007E000000
007E000000
007E000000
007E000000
003C000000
ENDCHAR
STARTCHAR 1EE5
ENCODING 7909
SWIDTH 596 0
DWIDTH 31 0
BBX 28 40 1 -12
BITMAP
00F003E0
03F803E0
07F807C0
0FF807C0
1DF807C0
39F00F80
71F00F80
61F01F80
C3E01F00
03E01F00
07E03F00
07C03E00
07C03E00
0FC07E00
0F807C00
1F80FC00
1F01FC00
1F01F800
3F03F800
3E03F830
3E07F860
3E0EF060
7E1CF0C0
7E3CF1C0
7E78F380
3FF0FF00
3FE0FE00
1F80FC00
04002000
00000000
00000000
00000000
00000000
00000000
03800000
07C00000
0FE00000
0FE00000
07C00000
03800000
ENDCHAR
STARTCHAR 1EF2
ENCODING 7922
SWIDTH 692 0
DWIDTH 36 0
BBX 36 50 5 0
BITMAP
0007800000
0007E00000
000FF00000
0007F80000
0000FE0000
00000F8000
0000000000
0000000000
0000000000
0000000000
FFFE01FFF0
FFFE03FFE0
FFFC03FFE0
1FE0007F00
0FE0003E00
07E0003C00
07E0007800
03F0007000
03F000F000
01F001E000
01F801C000
00F8038000
00FC078000
00FC070000
007E0E0000
007E1E0000
003E1C0000
003F380000
001F700000
001FF00000
001FE00000
000FC00000
000FC00000
000F800000
000F800000
000F800000
001F800000
001F000000
001F000000
003F000000
003F000000
003E000000
003E000000
007E000000
007E000000
00FE000000
01FE000000
3FFFF00000
3FFFF00000
3FFFF00000
ENDCHAR
STARTCHAR 1EF3
ENCODING 7923
SWIDTH 519 0
DWIDTH 27 0
BBX 32 56 -6 -14
BITMAP
00002000
0000F800
0000FC00
0000FE00
00003F00
00001F80
00000780
000001E0
00000000
00000000
00000000
00000000
00000000
00000000
001E000E
003E001F
007F001F
007F001F
00FF801F
01FF801F
018F801F
0187C01E
0307C01E
0303C01E
0303C01C
0303E01C
0003E03C
0003E038
0001E038
0001E070
0001F070
0001F060
0001F0E0
0000F1C0
0000F9C0
0000FB80
0000FF80
0000FF00
00007E00
00007E00
00007C00
00007800
00007800
00007000
0000E000
0001C000
0001C000
00038000
00070000
700E0000
F81C0000
F8380000
FCF00000
7FE00000
3F800000
08000000
ENDCHAR
STARTCHAR 1EF8
ENCODING 7928
SWIDTH 692 0
DWIDTH 36 0
BBX 36 50 5 0
BITMAP
0001E01800
0007F81800
000FFE3000
000FFFF000
000C7FE000
00181FE000
0018078000
0000000000
0000000000
0000000000
FFFE01FFF0
FFFE03FFE0
FFFC03FFE0
1FE0007F00
0FE0003E00
07E0003C00
07E0007800
03F0007000
03F000F000
01F001E000
01F801C000
00F8038000
00FC078000
00FC070000
007E0E0000
007E1E0000
003E1C0000
003F380000
001F700000
001FF00000
001FE00000
000FC00000
000FC00000
000F800000
000F800000
000F800000
001F800000
001F000000
001F000000
003F000000
003F000000
003E000000
003E000000
007E000000
007E000000
00FE000000
01FE000000
3FFFF00000
3FFFF00000
3FFFF00000
ENDCHAR
STARTCHAR 1EF9
ENCODING 7929
SWIDTH 519 0
DWIDTH 27 0
BBX 32 54 -6 -14
BITMAP
00007C03
0000FF86
0001FFFE
0001FFFE
000387FC
000300F8
00000000
00000000
00000000
00000000
00000000
00000000
001E000E
003E001F
007F001F
007F001F
00FF801F
01FF801F
0187801F
0187C01E
0307C01E
0303C01E
0303C01C
0303E01C
0003E03C
0003E038
0001E038
0001E070
0001F070
0001F060
0001F0E0
0000F1C0
0000F9C0
0000FB80
0000FF80
0000FF00
00007E00
00007E00
00007C00
00007800
00007800
00007000
0000E000
0001C000
0001C000
00038000
00070000
700E0000
F81C0000
F8380000
FCF00000
7FE00000
3F800000
08000000
ENDCHAR
STARTCHAR 2013
ENCODING 8211
SWIDTH 730 0
DWIDTH 38 0
BBX 31 4 3 13
BITMAP
7FFFFFFE
7FFFFFFE
7FFFFFFC
FFFFFFFC
ENDCHAR
STARTCHAR 2014
ENCODING 8212
SWIDTH 1115 0
DWIDTH 58 0
BBX 51 4 3 13
BITMAP
7FFFFFFFFFFFE0
7FFFFFFFFFFFE0
7FFFFFFFFFFFC0
FFFFFFFFFFFFC0
ENDCHAR
STARTCHAR 2018
ENCODING 8216
SWIDTH 250 0
DWIDTH 13 0
BBX 10 14 7 29
BITMAP
0080
01C0
0700
0E00
1C00
3800
7000
7000
FE00
FE00
FE00
FE00
FC00
7800
ENDCHAR
STARTCHAR 2019
ENCODING 8217
SWIDTH 250 0
DWIDTH 13 0
BBX 10 14 7 29
BITMAP
0780
1F80
1FC0
3FC0
3F80
1F80
0380
0700
0700
0E00
1C00
7000
E000
8000
ENDCHAR
STARTCHAR 201A
ENCODING 8218
SWIDTH 269 0
DWIDTH 14 0
BBX 10 15 -3 -9
BITMAP
0100
0F80
1FC0
1FC0
1FC0
1FC0
0B80
0380
0700
0E00
0C00
3800
7000
C000
8000
ENDCHAR
STARTCHAR 201C
ENCODING 8220
SWIDTH 442 0
DWIDTH 23 0
BBX 20 14 7 29
BITMAP
008020
01C070
0701C0
0E0380
1C0700
380E00
701C00
701C00
FE3F80
FE3F80
FE3F80
FE3F80
FC3F00
781E00
ENDCHAR
STARTCHAR 201D
ENCODING 8221
SWIDTH 442 0
DWIDTH 23 0
BBX 20 14 7 29
BITMAP
0781E0
1F87E0
1FC7F0
3FCFF0
3F8FE0
1F87E0
0380E0
0701C0
0701C0
0E0380
1C0700
701C00
E03800
802000
ENDCHAR
STARTCHAR 201E
ENCODING 8222
SWIDTH 461 0
DWIDTH 24 0
BBX 20 15 -3 -9
BITMAP
010040
0F83E0
1FC7F0
1FC7F0
1FC7F0
1FC7F0
0B82E0
0380E0
0701C0
0E0380
0C0300
380E00
701C00
C03800
802000
ENDCHAR
ENDFONT
